<?xml version="1.0" standalone="no"?>
<!DOCTYPE svg PUBLIC "-//W3C//DTD SVG 20010904//EN"
 "http://www.w3.org/TR/2001/REC-SVG-20010904/DTD/svg10.dtd">
<svg version="1.0" xmlns="http://www.w3.org/2000/svg"
 width="1024.000000pt" height="1024.000000pt" viewBox="0 0 1024.000000 1024.000000"
 preserveAspectRatio="xMidYMid meet">
<metadata>
Created by potrace 1.16, written by Peter Selinger 2001-2019
</metadata>
<g transform="translate(0.000000,1024.000000) scale(0.100000,-0.100000)"
fill="#000000" stroke="none">
<path d="M0 5120 l0 -5120 5120 0 5120 0 0 5120 0 5120 -5120 0 -5120 0 0
-5120z m5195 4436 c33 -7 102 -30 154 -51 89 -35 102 -38 229 -42 185 -6 237
-26 345 -135 71 -70 82 -78 117 -78 131 0 290 -61 396 -152 61 -53 201 -239
211 -281 3 -12 9 -26 13 -32 22 -32 42 -152 37 -218 -14 -169 -86 -251 -213
-241 -94 7 -109 15 -197 102 -36 34 -97 147 -97 178 0 21 -10 17 -36 -13 -18
-21 -24 -40 -24 -73 0 -40 29 -160 59 -245 6 -16 36 -110 67 -208 30 -97 66
-205 79 -240 12 -34 30 -84 38 -112 25 -80 77 -227 91 -260 7 -16 23 -57 36
-90 12 -33 26 -69 30 -80 5 -11 18 -50 30 -87 12 -37 26 -70 31 -73 5 -4 9
-15 9 -27 0 -19 52 -124 160 -318 28 -52 56 -99 61 -104 5 -6 9 -16 9 -22 0
-20 59 -112 130 -204 94 -121 115 -173 115 -285 0 -77 -4 -98 -28 -148 -15
-32 -27 -71 -27 -87 0 -66 40 -200 168 -565 82 -232 84 -238 131 -338 67 -143
126 -220 221 -283 57 -38 123 -105 163 -166 20 -31 37 -61 37 -67 0 -6 5 -11
10 -11 6 0 10 -9 10 -21 0 -11 5 -30 11 -41 6 -12 11 -61 11 -110 0 -100 -14
-146 -69 -215 -44 -56 -55 -87 -54 -163 1 -104 14 -161 76 -325 51 -134 117
-320 122 -343 3 -12 9 -25 14 -28 5 -3 9 -12 9 -21 0 -9 15 -48 34 -87 87
-183 131 -312 121 -354 -6 -23 21 -148 35 -167 4 -5 15 -30 23 -55 8 -25 36
-100 61 -168 25 -68 46 -130 46 -139 0 -8 14 -43 32 -77 17 -33 38 -74 46 -91
8 -16 25 -44 38 -62 13 -17 24 -35 24 -38 0 -7 46 -71 73 -100 10 -11 30 -39
44 -62 14 -24 29 -43 34 -43 5 0 9 -6 9 -14 0 -20 82 -90 133 -114 23 -10 60
-22 82 -26 174 -28 308 -71 383 -123 130 -89 214 -247 199 -373 -14 -117 -73
-193 -195 -252 -59 -28 -75 -30 -228 -39 -118 -6 -194 -16 -272 -35 -97 -23
-125 -26 -296 -25 -279 2 -339 14 -531 108 -125 62 -146 63 -245 16 -160 -76
-285 -127 -425 -175 -76 -26 -159 -27 -205 -3 -64 32 -106 73 -134 129 -15 30
-35 61 -42 67 -10 8 -93 15 -257 20 -326 10 -397 27 -501 120 -61 55 -106 132
-106 182 0 112 154 263 325 317 126 39 378 161 432 207 29 26 80 123 175 333
58 129 61 116 -190 851 -159 466 -218 548 -386 537 -73 -4 -101 -22 -110 -69
-3 -16 -9 -42 -12 -58 -17 -88 -149 -137 -231 -85 -56 35 -114 114 -136 185
-4 12 -21 16 -69 18 -34 1 -95 9 -134 18 -91 21 -149 8 -194 -43 -41 -48 -50
-90 -50 -252 0 -231 -44 -379 -132 -442 -63 -46 -166 -47 -219 -1 -55 46 -70
61 -102 102 -56 70 -68 131 -76 379 -7 229 -14 259 -58 279 -46 21 -70 13
-135 -45 -85 -76 -135 -98 -223 -99 -58 0 -79 5 -124 28 -29 16 -63 39 -75 51
-49 53 -119 61 -201 22 -106 -49 -163 -165 -296 -605 -185 -607 -278 -948
-279 -1019 0 -37 21 -112 32 -112 5 0 8 -6 8 -12 0 -34 113 -84 300 -132 74
-19 154 -42 177 -50 63 -22 162 -93 185 -132 11 -19 24 -34 29 -34 5 0 9 -7 9
-15 0 -8 4 -15 8 -15 14 0 35 -73 34 -117 -1 -66 -19 -108 -66 -151 -112 -103
-263 -138 -651 -151 l-220 -7 -65 -32 c-64 -31 -88 -50 -183 -150 -40 -42 -57
-53 -100 -61 -29 -5 -92 -18 -142 -28 -49 -10 -129 -18 -176 -17 -77 1 -93 5
-163 38 -74 36 -151 101 -216 182 -14 17 -32 32 -40 32 -8 1 -46 6 -83 12 -48
8 -98 8 -170 0 -104 -10 -133 -15 -272 -45 -106 -23 -299 -25 -378 -3 -104 29
-200 107 -248 200 -48 92 -13 226 81 318 59 58 107 85 177 100 60 14 91 33
105 68 22 50 76 107 134 141 33 19 77 45 99 59 22 14 69 41 105 60 91 48 106
61 227 203 214 250 248 291 285 347 21 31 54 80 74 107 44 61 80 133 123 245
18 47 39 99 46 115 7 17 43 109 80 205 37 96 91 231 120 300 29 69 69 184 90
255 20 72 48 163 62 204 27 82 27 106 -6 216 -26 87 -26 134 0 243 27 111 74
210 138 289 64 79 96 143 111 221 13 66 8 171 -9 181 -5 4 -24 34 -40 68 -36
72 -41 146 -15 234 28 94 53 131 173 254 135 139 210 247 274 395 55 126 73
180 171 505 74 246 163 517 212 645 14 36 31 81 39 100 7 19 31 80 54 135 22
55 61 154 86 220 50 132 50 131 92 225 32 70 77 199 72 204 -2 2 -26 1 -54 -3
-80 -11 -128 4 -180 55 -79 77 -90 113 -89 299 0 143 3 169 26 245 34 109 33
106 89 231 46 102 48 111 48 195 0 111 20 178 71 243 93 118 183 153 474 186
80 9 130 28 206 79 82 55 143 86 200 102 60 16 200 17 275 0z"/>
<path d="M5072 7364 c-12 -8 -31 -32 -41 -52 -18 -37 -586 -1730 -676 -2017
-26 -82 -71 -227 -101 -320 -105 -331 -118 -455 -55 -501 44 -33 112 -36 791
-32 605 4 681 6 735 21 85 25 134 56 173 107 l35 45 -6 100 c-3 55 -12 129
-20 165 -33 147 -49 258 -43 301 14 100 19 91 -67 119 -202 65 -275 231 -201
460 21 63 28 106 28 165 0 74 -4 90 -51 205 -28 69 -88 238 -133 375 -45 138
-99 300 -120 360 -21 61 -57 169 -80 240 -65 202 -80 239 -103 257 -27 22 -37
22 -65 2z"/>
</g>
</svg>
