<?xml version="1.0" standalone="no"?>
<!DOCTYPE svg PUBLIC "-//W3C//DTD SVG 20010904//EN"
 "http://www.w3.org/TR/2001/REC-SVG-20010904/DTD/svg10.dtd">
<svg version="1.0" xmlns="http://www.w3.org/2000/svg"
 width="1024.000000pt" height="1024.000000pt" viewBox="0 0 1024.000000 1024.000000"
 preserveAspectRatio="xMidYMid meet">
<metadata>
Created by potrace 1.16, written by Peter Selinger 2001-2019
</metadata>
<g transform="translate(0.000000,1024.000000) scale(0.100000,-0.100000)"
fill="#000000" stroke="none">
<path d="M0 5120 l0 -5120 5120 0 5120 0 0 5120 0 5120 -5120 0 -5120 0 0
-5120z m5550 4219 c47 -6 117 -15 155 -20 39 -6 104 -14 145 -19 70 -9 119
-18 215 -40 22 -6 80 -19 129 -30 48 -12 127 -35 175 -51 47 -17 100 -34 116
-38 17 -5 60 -22 98 -40 37 -17 71 -31 75 -31 4 0 18 -6 32 -13 14 -8 75 -40
135 -72 133 -70 260 -155 380 -254 271 -225 515 -625 599 -981 8 -36 24 -103
35 -150 35 -149 56 -315 75 -598 40 -586 46 -910 46 -2259 0 -1011 3 -1242 15
-1345 22 -187 44 -261 110 -363 77 -121 184 -199 341 -251 202 -65 307 -142
369 -267 44 -91 59 -168 52 -282 -9 -138 -80 -343 -149 -428 -85 -105 -167
-174 -278 -233 -30 -16 -60 -35 -68 -42 -7 -6 -22 -12 -32 -12 -11 0 -23 -6
-27 -14 -8 -13 -84 -33 -233 -61 -36 -7 -137 -13 -225 -14 -237 -2 -333 24
-480 134 -38 29 -86 60 -105 70 -18 10 -40 24 -48 31 -19 19 -51 17 -59 -3 -4
-10 -17 -26 -29 -35 -41 -33 -54 -88 -64 -286 -5 -103 -13 -201 -18 -217 -26
-87 -67 -132 -140 -155 -15 -5 -45 -15 -67 -24 -48 -17 -243 -23 -297 -8 -45
12 -114 61 -140 99 -38 56 -69 137 -89 231 -40 185 -67 239 -145 292 -52 35
-85 36 -146 6 -39 -20 -79 -20 -126 -1 -87 37 -127 109 -141 253 -5 55 -16
113 -25 130 -24 46 -72 90 -131 118 -50 23 -56 24 -83 10 -15 -8 -50 -34 -78
-58 -27 -24 -71 -59 -99 -77 -27 -18 -54 -40 -58 -47 -4 -8 -15 -14 -22 -14
-8 0 -15 -4 -15 -10 0 -11 -165 -110 -184 -110 -7 0 -23 -9 -36 -20 -13 -11
-30 -20 -37 -20 -8 0 -47 -15 -86 -34 -76 -35 -274 -100 -342 -112 -22 -4 -46
-11 -53 -17 -33 -27 -585 -48 -721 -28 -117 17 -219 61 -372 158 -19 13 -42
23 -50 23 -22 0 -79 -45 -99 -77 -17 -28 -58 -156 -79 -246 -7 -27 -21 -69
-33 -93 -28 -62 -104 -144 -132 -144 -12 0 -27 -5 -33 -11 -11 -11 -51 -23
-137 -40 -66 -14 -133 3 -183 46 -37 32 -82 115 -133 245 -11 30 -25 64 -30
75 -5 11 -16 45 -26 75 -44 141 -97 210 -189 250 -23 10 -46 23 -49 29 -13 20
-42 11 -64 -18 -29 -39 -41 -99 -42 -196 -1 -168 -59 -277 -157 -292 -21 -3
-40 -9 -43 -13 -3 -4 -39 -12 -80 -18 -102 -15 -154 3 -231 78 -121 120 -224
437 -206 633 17 173 52 273 146 415 63 94 108 191 122 260 14 77 7 255 -16
357 -47 214 -80 556 -70 735 7 140 31 304 55 385 10 33 28 94 41 135 63 211
224 498 378 675 52 58 167 172 241 236 58 50 341 249 355 249 3 0 53 27 111
61 58 33 129 71 157 84 29 12 105 48 171 79 65 31 122 56 127 56 4 0 23 6 41
14 117 50 373 140 468 166 47 12 93 26 102 31 10 5 25 9 33 9 8 0 23 4 33 9 9
5 42 16 72 24 30 9 78 23 105 31 104 29 274 76 370 101 55 15 125 33 155 42
30 8 87 23 125 33 39 10 171 46 295 81 124 34 241 65 260 70 19 4 76 19 125
33 50 15 122 35 160 45 89 24 131 47 169 95 l31 38 2 291 c1 211 -3 313 -13
368 -25 139 -88 304 -159 414 -41 65 -179 207 -245 252 -67 45 -227 119 -290
133 -30 7 -82 20 -115 30 -69 20 -296 27 -348 11 -18 -6 -63 -17 -101 -26 -65
-15 -140 -43 -176 -65 -8 -5 -34 -19 -58 -32 -24 -12 -53 -32 -65 -44 -12 -11
-34 -29 -49 -39 -15 -9 -25 -21 -22 -26 3 -5 -2 -12 -10 -15 -9 -3 -16 -11
-16 -17 0 -5 -11 -25 -25 -43 -14 -18 -25 -36 -25 -40 0 -4 -7 -16 -17 -26
-20 -23 -53 -102 -99 -238 -19 -58 -38 -114 -43 -125 -5 -11 -21 -65 -36 -120
-15 -55 -31 -113 -37 -130 -5 -16 -18 -63 -29 -104 -11 -40 -32 -97 -46 -125
-26 -51 -118 -155 -139 -156 -5 0 -27 -16 -48 -35 -21 -19 -48 -35 -60 -35
-12 0 -27 -5 -33 -11 -6 -6 -61 -11 -134 -12 -142 -1 -175 9 -233 73 -38 42
-61 106 -71 196 -10 94 -13 103 -48 120 -17 10 -37 23 -42 31 -9 12 -15 9 -37
-14 -15 -15 -35 -35 -45 -43 -21 -18 -108 -43 -142 -41 -59 3 -133 80 -147
151 -11 55 -45 121 -68 130 -16 7 -26 3 -43 -15 -26 -30 -32 -79 -36 -340 -3
-157 -7 -198 -22 -235 -27 -64 -65 -108 -100 -116 -16 -3 -45 -15 -64 -26 -42
-24 -117 -26 -159 -4 -37 19 -86 77 -111 131 -46 100 -53 120 -67 191 -8 42
-16 79 -19 84 -2 4 -12 70 -21 146 -24 201 -15 495 20 655 36 164 80 294 143
423 143 290 324 495 638 722 75 54 359 200 465 239 37 14 243 88 300 108 8 3
26 8 40 11 14 4 77 19 140 36 154 39 230 55 320 70 41 6 95 16 119 21 104 23
423 59 616 69 191 10 783 3 895 -11z"/>
<path d="M5598 5116 c-14 -7 -38 -16 -54 -19 -43 -8 -115 -27 -149 -39 -16 -6
-46 -13 -65 -15 -19 -3 -49 -11 -67 -19 -17 -8 -37 -14 -43 -14 -12 0 -83 -20
-222 -61 -37 -11 -70 -25 -73 -30 -4 -5 -19 -9 -34 -9 -16 0 -58 -16 -95 -35
-37 -19 -75 -35 -84 -35 -9 0 -32 -9 -50 -20 -18 -11 -43 -20 -56 -20 -13 0
-29 -7 -36 -14 -6 -8 -28 -20 -48 -27 -20 -7 -51 -23 -68 -35 -17 -13 -45 -27
-62 -30 -17 -3 -39 -15 -48 -25 -9 -11 -22 -19 -29 -19 -14 0 -123 -79 -149
-109 -11 -11 -23 -21 -27 -21 -9 0 -69 -59 -69 -68 0 -4 -10 -12 -22 -17 -13
-6 -27 -19 -33 -30 -5 -12 -20 -31 -32 -44 -32 -34 -143 -257 -160 -321 -63
-236 -65 -379 -13 -641 47 -232 176 -437 355 -566 166 -119 306 -160 515 -149
127 7 158 11 265 40 131 36 338 135 424 204 223 178 329 351 382 622 17 87 19
152 19 772 0 394 -4 687 -9 701 -11 29 -70 87 -88 87 -7 0 -13 5 -13 10 0 6
-5 10 -11 10 -5 0 -7 -6 -3 -12 6 -10 5 -10 -7 -1 -12 10 -21 9 -41 -1z"/>
</g>
</svg>
