<?xml version="1.0" standalone="no"?>
<!DOCTYPE svg PUBLIC "-//W3C//DTD SVG 20010904//EN"
 "http://www.w3.org/TR/2001/REC-SVG-20010904/DTD/svg10.dtd">
<svg version="1.0" xmlns="http://www.w3.org/2000/svg"
 width="1024.000000pt" height="1024.000000pt" viewBox="0 0 1024.000000 1024.000000"
 preserveAspectRatio="xMidYMid meet">
<metadata>
Created by potrace 1.16, written by Peter Selinger 2001-2019
</metadata>
<g transform="translate(0.000000,1024.000000) scale(0.100000,-0.100000)"
fill="#000000" stroke="none">
<path d="M0 5120 l0 -5120 5120 0 5120 0 0 5120 0 5120 -5120 0 -5120 0 0
-5120z m5996 4539 c302 -37 472 -91 782 -250 255 -130 366 -193 410 -231 18
-15 37 -28 43 -28 13 0 109 -96 109 -109 0 -5 19 -23 43 -39 98 -70 303 -271
362 -355 22 -32 62 -88 89 -125 101 -139 180 -339 220 -554 41 -224 -2 -750
-81 -988 -108 -325 -175 -421 -473 -681 -269 -235 -296 -283 -232 -406 30 -57
47 -70 297 -225 77 -47 160 -101 185 -120 123 -89 219 -172 255 -218 22 -29
85 -87 140 -130 238 -185 275 -248 380 -635 15 -55 31 -120 36 -145 5 -25 18
-88 28 -140 34 -168 40 -203 56 -315 37 -263 45 -377 45 -612 0 -300 -5 -321
-124 -564 -78 -156 -127 -218 -358 -444 -245 -241 -263 -269 -262 -405 0 -47
2 -128 5 -180 5 -109 -10 -154 -65 -193 -46 -33 -130 -30 -185 6 -66 44 -101
101 -137 222 -13 42 -66 75 -123 75 -38 0 -67 -12 -166 -67 -66 -36 -149 -82
-184 -101 -35 -19 -104 -48 -155 -64 -89 -28 -137 -37 -301 -58 -159 -21 -255
-61 -324 -135 -76 -82 -95 -142 -120 -382 -11 -108 -34 -166 -86 -216 -46 -45
-69 -52 -143 -43 -127 15 -243 157 -263 322 -12 91 -22 113 -86 180 -36 40
-71 62 -143 95 l-95 44 -177 -2 c-302 -2 -436 -48 -519 -176 -53 -82 -63 -150
-57 -394 6 -212 -1 -293 -35 -387 -25 -71 -107 -165 -171 -195 -69 -34 -180
-30 -256 9 -19 10 -48 24 -63 31 -36 16 -82 64 -106 109 -93 173 -96 213 -45
530 18 113 25 369 11 434 -6 28 -24 53 -63 92 -79 76 -134 109 -237 143 -133
42 -228 55 -363 48 -100 -6 -122 -10 -166 -34 -42 -23 -56 -38 -75 -80 -21
-45 -23 -64 -22 -165 3 -174 -33 -273 -123 -338 -55 -40 -140 -43 -204 -5 -53
31 -121 115 -135 169 -14 53 -4 140 28 235 50 151 22 228 -124 336 -44 33 -86
70 -91 82 -6 12 -30 34 -52 48 -34 21 -50 43 -87 120 -89 185 -63 343 75 447
78 60 119 71 257 67 246 -7 266 -5 368 42 51 22 123 55 160 72 107 48 122 70
187 287 29 94 34 133 51 365 10 143 26 359 35 480 11 153 18 415 21 856 5 548
3 650 -10 735 -9 54 -21 162 -27 239 -5 77 -15 203 -20 280 -17 225 -15 493 5
638 14 107 16 189 13 510 l-4 382 -37 220 c-89 528 -111 644 -134 716 -21 67
-29 80 -70 110 -60 45 -73 52 -173 98 -187 87 -299 92 -377 19 -60 -56 -66
-188 -18 -363 40 -146 29 -241 -34 -274 -11 -6 -22 -20 -26 -30 -8 -26 -105
-55 -154 -46 -46 9 -131 66 -180 121 -23 26 -46 68 -59 108 -25 75 -20 122 25
264 25 77 28 102 28 217 0 128 -1 131 -39 224 -42 104 -43 125 -4 228 28 77
143 192 247 248 41 22 108 69 150 103 90 75 156 111 271 146 148 45 490 96
640 96 98 0 247 -24 336 -55 200 -69 456 -71 1023 -10 75 8 188 19 251 25 63
6 172 20 243 31 255 41 446 43 733 8z"/>
<path d="M5450 8778 c-105 -54 -124 -116 -101 -323 8 -72 -9 -148 -40 -181
-51 -54 -147 -36 -218 42 -56 60 -64 85 -56 172 6 59 4 78 -10 98 -33 50 -135
71 -185 37 -46 -30 -82 -68 -103 -108 -21 -38 -22 -52 -21 -290 1 -137 7 -311
13 -384 6 -74 11 -329 11 -565 1 -572 12 -830 41 -897 19 -44 30 -54 82 -80
113 -58 172 -64 567 -62 415 2 465 8 605 77 76 38 109 63 215 164 139 133 177
187 322 469 58 112 86 180 106 255 25 96 27 117 27 313 0 205 -1 213 -33 333
-50 187 -182 495 -219 509 -8 3 -22 22 -33 43 -11 21 -42 56 -71 79 -45 36
-58 41 -101 41 -64 0 -80 -9 -116 -68 -42 -68 -87 -110 -127 -118 -52 -9 -135
35 -186 98 -48 62 -53 80 -46 176 5 66 3 82 -16 115 -32 57 -76 80 -166 85
-71 4 -80 2 -141 -30z"/>
<path d="M5679 5175 c-3 -2 -135 -6 -294 -8 -264 -3 -295 -5 -342 -24 -141
-56 -190 -110 -216 -235 -20 -96 -43 -207 -74 -348 -25 -115 -25 -116 -18
-455 21 -1001 22 -1048 40 -1120 9 -38 21 -88 25 -110 11 -50 60 -170 94 -227
59 -100 97 -118 370 -174 66 -13 181 -46 255 -72 l136 -47 230 0 c202 0 241 3
325 23 157 37 281 79 349 119 81 47 237 196 362 344 51 62 118 139 147 173 53
60 87 116 102 166 5 14 22 70 39 125 47 150 58 289 43 532 -7 109 -17 221 -23
248 -21 97 -251 589 -297 637 -24 24 -47 55 -82 110 -17 25 -43 54 -57 64 -15
9 -38 29 -52 45 -29 30 -230 140 -301 162 -87 28 -206 56 -283 66 -76 11 -469
16 -478 6z"/>
</g>
</svg>
