<?xml version="1.0" standalone="no"?>
<!DOCTYPE svg PUBLIC "-//W3C//DTD SVG 20010904//EN"
 "http://www.w3.org/TR/2001/REC-SVG-20010904/DTD/svg10.dtd">
<svg version="1.0" xmlns="http://www.w3.org/2000/svg"
 width="1024.000000pt" height="1024.000000pt" viewBox="0 0 1024.000000 1024.000000"
 preserveAspectRatio="xMidYMid meet">
<metadata>
Created by potrace 1.16, written by Peter Selinger 2001-2019
</metadata>
<g transform="translate(0.000000,1024.000000) scale(0.100000,-0.100000)"
fill="#000000" stroke="none">
<path d="M0 5120 l0 -5120 5120 0 5120 0 0 5120 0 5120 -5120 0 -5120 0 0
-5120z m4488 4555 c126 -30 209 -112 252 -250 40 -126 38 -327 -10 -1225 -55
-1014 -58 -1217 -24 -1445 28 -190 60 -261 143 -320 38 -27 50 -30 111 -29 75
1 128 25 235 104 27 20 82 56 120 79 95 58 102 62 159 97 69 42 217 100 334
132 91 24 111 26 322 26 222 0 227 0 344 -32 216 -57 397 -142 540 -252 61
-47 192 -174 241 -232 16 -20 55 -67 86 -105 95 -114 326 -466 387 -588 44
-89 120 -299 181 -500 16 -55 48 -159 70 -232 74 -242 86 -327 85 -583 -1
-375 -31 -489 -212 -805 -81 -142 -99 -205 -118 -399 -17 -173 -43 -303 -70
-344 -10 -15 -35 -49 -57 -77 -47 -59 -150 -262 -183 -359 -59 -172 -66 -340
-23 -505 26 -98 36 -254 19 -307 -37 -115 -157 -175 -263 -130 -64 26 -82 61
-105 204 -18 121 -23 136 -63 196 -53 80 -87 101 -159 94 -72 -7 -230 -88
-292 -150 -27 -26 -48 -52 -48 -58 0 -6 -20 -52 -44 -103 -53 -113 -108 -177
-184 -213 -52 -26 -67 -28 -177 -29 -113 0 -123 -2 -152 -25 -65 -51 -68 -69
-65 -328 2 -214 1 -237 -17 -278 -16 -35 -30 -49 -63 -64 -54 -24 -103 -25
-148 -2 -54 26 -63 56 -59 196 2 66 4 187 4 267 l0 146 -39 76 c-47 94 -111
156 -189 186 -123 46 -230 12 -277 -86 -22 -47 -22 -53 -14 -213 5 -91 9 -237
9 -325 0 -155 -1 -162 -28 -217 -76 -155 -246 -222 -392 -155 -174 81 -196
195 -110 551 75 305 66 496 -30 626 -102 138 -241 116 -307 -50 -29 -72 -34
-215 -15 -372 23 -179 4 -228 -85 -228 -39 0 -54 5 -73 25 -25 24 -25 26 -25
203 0 141 -4 189 -17 228 -9 27 -21 54 -27 61 -6 6 -22 27 -36 47 -100 138
-242 49 -271 -171 -13 -95 -2 -177 50 -398 30 -123 41 -198 41 -275 0 -179
-77 -280 -215 -280 -99 0 -163 48 -196 148 -27 82 -23 160 20 348 86 381 79
514 -34 629 -56 58 -94 72 -162 61 -224 -36 -370 0 -477 117 -49 53 -69 94
-91 182 -39 156 2 281 135 416 88 88 117 126 153 194 74 143 104 283 118 555
23 444 8 3654 -22 4673 -9 323 -12 368 -34 451 -12 51 -35 117 -50 147 -29 58
-104 142 -147 165 -59 31 -115 9 -139 -53 -17 -45 -11 -181 16 -333 51 -290
44 -435 -26 -537 -34 -49 -110 -93 -162 -93 -40 0 -95 28 -115 59 -61 92 -57
224 11 402 85 222 77 373 -31 578 l-34 64 5 196 c5 209 11 245 64 344 32 62
80 126 108 147 29 22 115 56 161 64 21 4 174 34 339 66 165 32 374 71 465 85
91 15 237 39 325 55 410 74 632 93 753 65z"/>
<path d="M5348 5315 c-328 -83 -541 -456 -624 -1095 -21 -161 -24 -476 -5
-595 43 -274 127 -500 230 -618 142 -164 269 -227 456 -227 279 0 485 164 653
521 88 186 134 348 163 569 26 205 9 514 -41 710 -39 151 -122 345 -175 408
-14 16 -25 35 -25 40 0 6 -39 50 -87 99 -137 137 -247 191 -403 199 -54 2
-106 -2 -142 -11z"/>
</g>
</svg>
