<?xml version="1.0" standalone="no"?>
<!DOCTYPE svg PUBLIC "-//W3C//DTD SVG 20010904//EN"
 "http://www.w3.org/TR/2001/REC-SVG-20010904/DTD/svg10.dtd">
<svg version="1.0" xmlns="http://www.w3.org/2000/svg"
 width="1024.000000pt" height="1024.000000pt" viewBox="0 0 1024.000000 1024.000000"
 preserveAspectRatio="xMidYMid meet">
<metadata>
Created by potrace 1.16, written by Peter Selinger 2001-2019
</metadata>
<g transform="translate(0.000000,1024.000000) scale(0.100000,-0.100000)"
fill="#000000" stroke="none">
<path d="M0 5120 l0 -5120 5120 0 5120 0 0 5120 0 5120 -5120 0 -5120 0 0
-5120z m5076 4730 c216 -38 409 -109 554 -205 30 -20 93 -56 140 -79 262 -131
349 -146 874 -146 387 0 487 -9 667 -55 530 -137 892 -529 975 -1055 17 -108
17 -145 -2 -760 -7 -206 -2 -285 33 -559 19 -156 13 -234 -24 -304 -40 -74
-98 -112 -171 -112 -76 0 -105 9 -146 46 -67 58 -89 169 -67 339 10 85 -3 135
-43 159 -18 12 -45 21 -58 21 -40 0 -91 -41 -118 -95 -23 -46 -24 -59 -22
-185 1 -74 6 -159 12 -189 16 -86 13 -248 -7 -301 -27 -74 -81 -138 -143 -168
-47 -23 -68 -27 -140 -27 -69 0 -93 4 -128 23 -69 36 -108 72 -134 121 -21 42
-23 58 -22 181 0 74 6 153 12 175 20 65 26 232 12 300 -18 88 -37 121 -88 155
-55 36 -111 40 -161 9 -50 -30 -68 -56 -91 -128 -26 -81 -26 -192 0 -371 35
-240 42 -314 36 -390 -17 -210 -139 -346 -311 -345 -156 1 -259 109 -286 301
-14 98 0 252 42 469 43 228 50 286 50 460 0 130 -3 176 -20 241 -26 103 -56
175 -100 244 -39 62 -165 190 -220 224 -222 139 -455 198 -717 182 -273 -16
-527 -126 -721 -310 -184 -175 -291 -350 -395 -646 -73 -207 -113 -393 -159
-745 -18 -133 -18 -720 -1 -865 77 -635 231 -1035 513 -1334 218 -231 459
-357 802 -420 128 -24 473 -25 587 -2 249 51 450 150 655 322 39 32 117 105
175 160 106 103 232 208 305 255 225 144 525 190 806 124 223 -52 445 -199
575 -382 53 -74 124 -221 153 -319 25 -84 51 -270 51 -363 0 -82 -24 -225 -52
-311 -26 -81 -92 -213 -153 -305 -65 -98 -122 -219 -139 -295 -22 -90 -20
-226 4 -356 11 -60 25 -131 30 -159 46 -245 52 -294 47 -375 -7 -129 -44 -219
-121 -295 -88 -88 -118 -100 -246 -100 -92 0 -111 3 -153 25 -62 31 -122 96
-155 168 -24 51 -26 69 -26 167 0 92 6 132 34 240 26 101 34 151 34 226 1 94
0 97 -36 151 -51 77 -105 103 -198 95 -81 -7 -117 -24 -175 -82 -90 -89 -112
-169 -125 -452 -13 -273 -25 -322 -99 -385 -56 -48 -116 -64 -178 -48 -100 25
-140 66 -194 200 -46 115 -67 147 -115 170 -105 52 -238 -11 -307 -145 -46
-91 -47 -309 -2 -515 44 -199 47 -223 42 -313 -12 -183 -124 -334 -292 -394
-36 -13 -79 -17 -155 -17 -99 0 -110 3 -180 35 -158 74 -250 229 -250 418 0
57 12 142 49 351 26 144 37 363 22 449 -41 245 -257 391 -481 325 -39 -12 -66
-29 -104 -67 -102 -102 -126 -200 -126 -509 0 -275 -15 -346 -92 -434 -51 -57
-114 -84 -201 -84 -136 0 -222 52 -278 166 -30 61 -33 74 -33 163 1 90 25 214
63 313 20 54 51 241 51 312 0 180 -89 332 -236 405 -112 55 -217 51 -305 -13
-68 -50 -89 -102 -106 -266 -7 -74 -20 -158 -28 -186 -42 -145 -176 -245 -312
-231 -203 21 -317 204 -299 479 5 88 42 343 51 358 2 3 11 68 19 145 15 125
15 150 2 240 -17 114 -30 158 -68 231 -68 129 -211 182 -290 107 -16 -15 -44
-61 -64 -103 -37 -79 -89 -141 -139 -167 -38 -20 -132 -20 -171 0 -59 31 -107
99 -134 193 -16 54 -7 303 15 439 9 55 19 157 22 226 8 195 -29 382 -95 469
-38 50 -52 59 -95 60 -89 0 -108 -39 -117 -246 -6 -145 -8 -153 -38 -206 -41
-71 -82 -104 -148 -119 -156 -35 -294 94 -294 274 0 34 16 139 35 232 41 198
65 383 65 510 0 94 -21 372 -42 543 -6 53 -11 207 -11 342 0 204 4 263 21 355
30 161 93 338 185 520 223 440 242 487 263 655 8 60 13 204 14 336 0 185 4
252 20 340 77 426 290 766 625 996 129 89 241 139 411 183 54 14 142 37 194
51 207 53 318 128 615 414 77 74 167 156 200 181 198 151 375 227 625 267 78
13 296 14 366 2z"/>
</g>
</svg>
