<?xml version="1.0" standalone="no"?>
<!DOCTYPE svg PUBLIC "-//W3C//DTD SVG 20010904//EN"
 "http://www.w3.org/TR/2001/REC-SVG-20010904/DTD/svg10.dtd">
<svg version="1.0" xmlns="http://www.w3.org/2000/svg"
 width="1024.000000pt" height="1024.000000pt" viewBox="0 0 1024.000000 1024.000000"
 preserveAspectRatio="xMidYMid meet">
<metadata>
Created by potrace 1.16, written by Peter Selinger 2001-2019
</metadata>
<g transform="translate(0.000000,1024.000000) scale(0.100000,-0.100000)"
fill="#000000" stroke="none">
<path d="M0 5120 l0 -5120 5120 0 5120 0 0 5120 0 5120 -5120 0 -5120 0 0
-5120z m4955 3780 c47 -12 121 -43 184 -77 168 -91 236 -122 303 -138 79 -18
203 -19 289 -1 65 14 101 27 335 124 184 76 315 104 509 110 334 10 560 -60
765 -235 65 -56 152 -171 192 -254 70 -146 87 -304 53 -494 -9 -49 -25 -137
-36 -195 -29 -159 -35 -388 -14 -535 26 -183 30 -337 11 -418 -21 -91 -64
-173 -127 -241 -87 -95 -179 -137 -305 -138 -104 0 -181 38 -299 148 -69 64
-137 106 -225 139 -102 38 -148 62 -196 101 -112 90 -148 262 -109 514 22 143
20 267 -6 337 -42 111 -155 196 -324 245 -115 32 -335 33 -448 0 -389 -111
-601 -410 -600 -842 1 -109 8 -176 38 -345 33 -189 36 -224 33 -345 -4 -113
-8 -143 -27 -185 -32 -71 -85 -123 -146 -141 -91 -27 -171 1 -221 76 -25 37
-28 54 -33 149 -7 122 -21 153 -78 177 -129 55 -217 -123 -229 -466 -5 -129
-1 -198 22 -410 33 -308 37 -618 11 -879 -46 -455 2 -813 148 -1101 40 -78
128 -213 204 -310 255 -328 632 -563 1044 -652 137 -29 439 -32 562 -5 252 57
440 191 531 381 68 140 80 275 60 623 -8 133 -7 161 9 218 68 254 339 369 590
251 129 -61 219 -163 277 -316 l33 -85 0 -330 1 -330 43 -140 c40 -127 44
-152 48 -271 8 -203 -33 -342 -132 -452 -86 -95 -183 -117 -350 -78 -181 43
-269 41 -371 -9 -65 -32 -121 -89 -191 -195 -98 -150 -161 -200 -249 -200 -55
0 -91 23 -134 86 -48 69 -110 92 -158 58 -12 -8 -35 -39 -50 -67 l-27 -52 3
-210 2 -210 -29 -62 c-69 -145 -216 -173 -323 -63 -83 86 -96 185 -52 387 15
69 27 153 28 203 1 74 -2 91 -24 130 -82 147 -236 80 -310 -134 -68 -199 -65
-415 10 -683 59 -211 61 -352 5 -462 -55 -110 -134 -156 -265 -156 -75 0 -91
4 -138 30 -67 36 -106 81 -146 165 -28 59 -31 76 -34 180 -4 127 5 178 73 395
65 210 74 244 86 345 19 164 -16 331 -79 380 -33 27 -85 26 -116 -3 -18 -15
-31 -44 -44 -97 -11 -41 -26 -89 -35 -106 -50 -97 -168 -122 -261 -57 -103 74
-131 217 -81 424 42 176 28 306 -42 370 -47 44 -73 53 -154 53 -71 0 -83 -4
-205 -61 -192 -90 -220 -98 -355 -98 l-116 0 -87 44 c-160 81 -264 230 -308
438 -24 118 -20 278 11 443 50 262 51 444 5 684 -40 207 -84 353 -209 691
-123 329 -156 429 -182 545 -24 105 -27 134 -27 335 -1 237 8 323 55 565 70
357 169 581 414 940 194 284 547 817 593 895 22 39 90 174 152 300 126 259
190 370 256 444 91 101 229 186 350 215 91 22 275 20 369 -4z"/>
</g>
</svg>
