<?xml version="1.0" standalone="no"?>
<!DOCTYPE svg PUBLIC "-//W3C//DTD SVG 20010904//EN"
 "http://www.w3.org/TR/2001/REC-SVG-20010904/DTD/svg10.dtd">
<svg version="1.0" xmlns="http://www.w3.org/2000/svg"
 width="1024.000000pt" height="1024.000000pt" viewBox="0 0 1024.000000 1024.000000"
 preserveAspectRatio="xMidYMid meet">
<metadata>
Created by potrace 1.16, written by Peter Selinger 2001-2019
</metadata>
<g transform="translate(0.000000,1024.000000) scale(0.100000,-0.100000)"
fill="#000000" stroke="none">
<path d="M0 5120 l0 -5120 5120 0 5120 0 0 5120 0 5120 -5120 0 -5120 0 0
-5120z m7118 4740 c34 -6 79 -20 100 -31 94 -52 162 -157 181 -279 7 -43 10
-1176 10 -3269 1 -3142 2 -3275 32 -3431 12 -62 50 -192 58 -200 3 -3 15 -23
26 -45 29 -58 110 -134 174 -163 43 -20 86 -28 187 -38 182 -17 211 -36 249
-156 14 -46 17 -83 13 -200 -4 -139 -5 -145 -39 -218 -39 -81 -86 -131 -154
-161 -36 -16 -106 -30 -261 -54 -40 -6 -42 -8 -48 -52 -3 -25 -6 -70 -6 -100
0 -70 -20 -108 -64 -123 -39 -12 -59 -6 -91 30 -17 18 -20 40 -24 132 l-3 110
-187 -6 c-275 -11 -341 -25 -390 -87 -42 -54 -45 -92 -31 -367 17 -349 16
-381 -26 -492 -42 -114 -144 -199 -238 -200 -67 0 -118 22 -172 75 -117 113
-134 220 -102 642 16 222 14 433 -5 539 -29 156 -113 290 -199 316 -49 14 -45
16 -248 -105 -158 -95 -272 -151 -429 -213 -206 -81 -218 -100 -237 -389 -19
-295 -46 -388 -142 -484 -71 -71 -130 -96 -227 -96 -89 0 -141 20 -204 78 -47
45 -109 143 -117 186 -4 20 -11 42 -17 49 -7 9 -12 94 -14 220 -5 285 -3 281
-193 302 -52 6 -134 19 -183 28 -48 10 -89 16 -91 14 -3 -2 -2 -86 1 -186 7
-205 -1 -258 -49 -344 -47 -84 -133 -130 -210 -113 -80 18 -159 97 -179 178
-6 21 -10 156 -9 301 0 144 -2 272 -5 285 -7 24 -21 35 -170 122 -92 54 -183
112 -195 125 -3 3 -16 13 -30 21 -77 50 -288 268 -394 409 -27 36 -54 70 -59
75 -6 6 -8 -37 -4 -119 10 -251 -23 -338 -132 -353 -37 -5 -44 -2 -80 34 -22
22 -42 53 -46 69 -3 16 -11 46 -17 66 -8 27 -9 105 -2 270 5 128 9 328 9 443
0 200 -2 217 -32 350 -49 218 -66 364 -67 590 0 110 3 234 7 275 4 41 10 100
13 130 17 173 68 452 104 565 5 17 17 55 25 85 9 30 23 69 30 85 7 17 28 71
46 120 18 50 53 129 76 178 24 48 43 89 43 91 0 7 107 181 153 251 162 242
463 541 657 653 19 11 75 43 123 71 48 28 91 51 96 51 4 0 34 13 67 29 32 17
104 44 159 61 55 17 114 35 132 41 57 18 256 48 391 59 240 19 556 -22 767
-100 139 -52 241 -101 375 -181 64 -38 127 -69 141 -69 14 0 34 9 45 21 18 20
19 52 19 1008 0 894 -2 994 -17 1070 -43 207 -138 313 -303 339 -67 11 -171 6
-208 -9 -30 -13 -34 -23 -40 -124 -5 -64 -8 -72 -41 -102 -29 -27 -44 -33 -80
-33 -57 0 -90 15 -107 49 -19 36 -26 589 -9 676 25 128 121 224 245 245 22 4
76 17 120 30 44 13 112 32 150 43 39 11 90 26 113 34 38 12 124 36 227 63 17
5 89 25 160 45 135 38 168 47 325 90 319 88 287 79 310 88 8 3 53 17 100 31
240 70 259 73 368 56z"/>
<path d="M4910 5515 c-203 -34 -319 -94 -461 -236 -75 -75 -159 -199 -200
-296 -11 -26 -27 -63 -36 -81 -27 -61 -83 -295 -99 -412 -21 -161 -30 -674
-15 -810 25 -212 74 -398 141 -530 174 -346 472 -540 826 -540 96 0 223 18
269 39 69 31 94 41 100 41 4 0 37 20 74 44 128 86 235 228 278 371 17 56 18
128 21 985 1 621 -1 942 -8 976 -15 73 -97 201 -172 269 -168 152 -458 225
-718 180z"/>
</g>
</svg>
