<?xml version="1.0" standalone="no"?>
<!DOCTYPE svg PUBLIC "-//W3C//DTD SVG 20010904//EN"
 "http://www.w3.org/TR/2001/REC-SVG-20010904/DTD/svg10.dtd">
<svg version="1.0" xmlns="http://www.w3.org/2000/svg"
 width="1024.000000pt" height="1024.000000pt" viewBox="0 0 1024.000000 1024.000000"
 preserveAspectRatio="xMidYMid meet">
<metadata>
Created by potrace 1.16, written by Peter Selinger 2001-2019
</metadata>
<g transform="translate(0.000000,1024.000000) scale(0.100000,-0.100000)"
fill="#000000" stroke="none">
<path d="M0 5120 l0 -5120 5120 0 5120 0 0 5120 0 5120 -5120 0 -5120 0 0
-5120z m2650 4060 c56 -17 199 -50 283 -65 42 -8 82 -17 87 -20 29 -18 361
-48 615 -55 349 -11 929 -11 1220 -1 240 8 743 -2 870 -18 44 -6 141 -18 215
-26 74 -9 143 -18 153 -21 10 -3 64 -14 120 -25 250 -47 407 -88 542 -141 28
-11 70 -26 95 -34 25 -7 86 -35 135 -60 50 -25 108 -55 130 -66 36 -19 177
-109 324 -207 116 -78 324 -265 438 -393 111 -125 274 -349 337 -463 9 -16 28
-50 42 -75 102 -177 207 -420 271 -625 97 -311 139 -563 164 -975 8 -135 14
-184 29 -215 10 -22 29 -67 41 -100 12 -33 31 -82 43 -109 18 -43 21 -68 21
-195 0 -168 -2 -176 -125 -396 -95 -170 -117 -219 -172 -380 -18 -54 -20 -89
-23 -340 -1 -212 -5 -289 -16 -315 -28 -70 -61 -116 -103 -143 -39 -25 -52
-27 -140 -27 -133 0 -167 -18 -221 -122 -14 -26 -25 -53 -25 -60 0 -11 -46
-137 -71 -193 -17 -39 -99 -269 -99 -278 0 -5 -6 -23 -14 -40 -25 -56 -54
-160 -61 -217 -5 -44 1 -85 29 -205 50 -210 55 -285 26 -375 -29 -89 -72 -134
-142 -150 -136 -29 -258 80 -258 230 0 33 7 106 16 163 8 56 16 144 17 195 2
88 0 95 -22 113 -28 23 -71 24 -159 3 -73 -18 -89 -24 -272 -113 -233 -113
-283 -174 -295 -357 -4 -55 -11 -117 -17 -138 -23 -93 -136 -175 -221 -162
-91 15 -146 68 -211 203 -36 73 -139 117 -223 95 -120 -32 -199 -90 -238 -177
-34 -76 -38 -107 -39 -285 -1 -158 -2 -167 -25 -201 -60 -88 -155 -111 -251
-62 -46 24 -59 37 -82 83 -24 47 -29 75 -38 186 -12 164 -23 217 -57 261 -33
43 -96 76 -148 77 -60 1 -116 -46 -143 -121 -31 -83 -56 -119 -103 -149 -62
-39 -108 -42 -171 -11 -48 24 -58 35 -99 109 -54 97 -84 120 -124 91 -13 -10
-27 -25 -30 -33 -17 -41 -44 -219 -50 -325 -6 -106 -4 -133 18 -235 33 -152
43 -264 27 -328 -14 -60 -76 -132 -134 -156 -84 -35 -199 -12 -257 51 -48 51
-53 71 -53 198 0 103 5 133 29 210 24 77 28 106 27 202 -1 73 -8 141 -21 195
-11 46 -22 101 -26 122 -16 97 -107 216 -177 231 -62 14 -99 -3 -173 -79 -61
-64 -74 -83 -100 -157 -26 -72 -30 -97 -29 -179 1 -53 9 -128 19 -170 10 -41
20 -119 22 -172 4 -80 1 -108 -16 -161 -39 -117 -115 -177 -224 -177 -98 0
-168 41 -219 129 -33 56 -33 56 -32 191 0 113 4 145 22 198 13 35 34 112 48
170 22 89 25 124 22 212 -3 89 -8 113 -30 155 -54 103 -98 130 -218 129 -102
-1 -152 -19 -284 -106 -48 -32 -92 -58 -96 -58 -4 0 -18 -9 -31 -19 -31 -24
-121 -51 -170 -51 -20 0 -54 7 -74 16 -36 15 -40 14 -64 -3 -51 -37 -64 -83
-71 -249 -6 -141 -9 -155 -34 -198 -83 -142 -261 -134 -316 13 -24 64 -24 106
5 271 26 152 14 202 -90 383 -27 48 -57 99 -65 115 -8 15 -30 49 -49 75 -60
87 -81 155 -81 260 0 75 5 105 23 148 37 90 56 118 88 134 16 9 54 38 84 65
62 56 142 104 230 138 65 26 80 31 297 95 139 42 280 108 333 155 39 35 123
139 180 222 31 47 63 92 71 101 8 8 19 31 25 50 7 19 18 41 25 49 46 54 103
324 140 670 31 282 22 1009 -16 1375 -5 50 -12 120 -16 157 -3 37 -11 74 -18
82 -61 79 -129 -115 -97 -274 16 -76 50 -284 58 -347 7 -66 -10 -132 -49 -181
-90 -113 -243 -92 -311 42 -37 72 -43 133 -22 226 100 446 133 842 122 1460
-5 277 -10 341 -36 530 -25 173 -35 218 -50 234 -50 50 -66 -51 -35 -215 38
-201 -15 -329 -137 -329 -67 0 -117 43 -145 123 -18 54 -15 85 23 227 25 91
25 100 15 215 -21 234 -44 328 -85 359 -26 19 -30 19 -55 6 -15 -9 -49 -51
-75 -95 -60 -100 -89 -130 -144 -151 -118 -45 -267 36 -345 189 -31 60 -32 66
-32 192 0 148 13 206 72 320 72 138 258 289 376 306 43 6 60 15 107 61 53 50
112 80 194 100 42 10 282 1 325 -12z"/>
<path d="M4830 8173 c-50 -35 -78 -78 -133 -203 -69 -156 -92 -444 -67 -820
10 -149 27 -248 62 -359 32 -100 34 -165 8 -241 -12 -36 -28 -76 -37 -88 -17
-28 -86 -61 -126 -62 -42 0 -103 36 -132 77 -22 33 -25 48 -25 124 0 48 7 122
15 165 16 86 13 110 -14 119 -42 13 -53 0 -82 -110 -86 -315 -114 -755 -106
-1675 6 -641 12 -754 56 -1005 11 -66 27 -147 35 -180 8 -33 24 -98 35 -145
11 -47 23 -103 27 -125 14 -83 45 -148 101 -217 31 -39 68 -77 80 -86 48 -31
392 -126 518 -142 132 -18 657 -25 755 -11 87 13 213 46 285 76 101 41 279
139 342 188 23 17 65 51 95 73 54 42 175 165 216 219 293 389 475 1008 489
1665 8 401 -42 827 -138 1160 -10 36 -24 84 -29 108 -12 48 -35 56 -43 15 -7
-36 7 -159 34 -298 18 -93 19 -117 10 -160 -22 -97 -94 -165 -174 -165 -44 0
-120 42 -151 83 -13 18 -32 60 -41 95 -19 66 -18 74 18 248 20 95 47 359 42
409 -27 253 -41 342 -66 425 -72 236 -170 408 -261 456 -33 17 -103 18 -140 1
-80 -36 -177 -162 -194 -250 -3 -21 -1 -94 6 -161 12 -114 12 -126 -6 -176
-35 -99 -131 -138 -223 -90 -64 32 -84 78 -84 190 -1 64 5 110 16 143 27 75
39 177 28 223 -13 50 -56 175 -83 239 -29 72 -90 128 -160 149 -77 22 -117 20
-204 -9 -164 -55 -226 -52 -308 17 -28 23 -60 53 -70 67 -23 28 -90 60 -126
61 -14 0 -37 -8 -50 -17z"/>
</g>
</svg>
