<?xml version="1.0" standalone="no"?>
<!DOCTYPE svg PUBLIC "-//W3C//DTD SVG 20010904//EN"
 "http://www.w3.org/TR/2001/REC-SVG-20010904/DTD/svg10.dtd">
<svg version="1.0" xmlns="http://www.w3.org/2000/svg"
 width="1024.000000pt" height="1024.000000pt" viewBox="0 0 1024.000000 1024.000000"
 preserveAspectRatio="xMidYMid meet">
<metadata>
Created by potrace 1.16, written by Peter Selinger 2001-2019
</metadata>
<g transform="translate(0.000000,1024.000000) scale(0.100000,-0.100000)"
fill="#000000" stroke="none">
<path d="M0 5120 l0 -5120 5120 0 5120 0 0 5120 0 5120 -5120 0 -5120 0 0
-5120z m3486 3760 c296 -57 479 -88 589 -100 106 -11 578 -15 830 -7 184 7
377 -7 780 -57 259 -32 389 -40 625 -40 245 0 337 8 560 45 166 29 319 34 405
16 157 -34 259 -107 316 -229 33 -71 34 -76 33 -198 0 -69 -6 -143 -12 -165
-91 -336 -101 -384 -111 -506 -5 -61 -5 -158 0 -225 5 -64 6 -129 3 -143 -17
-80 -48 -111 -109 -111 -46 0 -91 42 -99 91 -3 19 -12 74 -20 122 -16 97 -34
127 -76 127 -28 0 -54 -23 -88 -81 -38 -63 -94 -75 -142 -31 -28 24 -32 37
-46 127 -16 111 -35 150 -83 179 -28 16 -38 17 -72 7 -68 -20 -73 -39 -79
-256 -4 -166 -8 -195 -26 -229 -52 -100 -179 -97 -238 4 -16 27 -21 61 -27
184 -4 106 -12 163 -23 191 -25 60 -82 113 -141 131 -119 35 -748 81 -940 69
-254 -17 -340 -67 -384 -223 -49 -172 -81 -223 -149 -242 -88 -24 -147 25
-186 154 -40 130 -97 178 -171 143 -68 -32 -102 -175 -91 -382 7 -119 44 -498
91 -940 46 -423 48 -433 109 -488 45 -42 95 -65 199 -92 262 -68 513 -59 997
36 203 40 331 47 430 25 141 -32 258 -124 320 -250 30 -60 35 -81 38 -160 3
-78 -1 -108 -28 -211 -22 -86 -32 -151 -36 -228 -6 -148 -30 -190 -117 -204
-65 -10 -99 24 -151 150 -13 32 -19 37 -48 37 -52 0 -108 -64 -154 -175 -28
-67 -31 -266 -5 -400 44 -225 39 -323 -20 -390 -74 -84 -207 -65 -261 37 -25
47 -26 69 -17 378 5 195 -7 245 -75 315 -57 60 -126 80 -271 78 -114 -1 -254
-24 -292 -48 -23 -16 -38 -54 -48 -127 -18 -135 -169 -130 -189 7 -19 128 -64
169 -181 170 -56 0 -79 -5 -114 -25 -89 -50 -94 -81 -112 -656 -15 -514 -10
-745 20 -838 29 -88 85 -150 176 -195 198 -96 588 -143 1013 -122 155 8 278 8
449 0 408 -19 504 0 918 189 135 61 199 76 302 70 173 -10 300 -117 358 -301
94 -299 -36 -737 -255 -858 -54 -30 -67 -53 -81 -155 -14 -99 -31 -141 -64
-154 -59 -22 -96 21 -121 143 -22 105 -32 122 -74 122 -28 0 -37 -6 -54 -35
-18 -30 -21 -52 -21 -165 0 -71 6 -198 14 -281 16 -167 9 -221 -34 -268 -31
-33 -87 -43 -120 -22 -69 45 -79 107 -58 351 20 236 16 276 -37 327 -59 55
-126 62 -197 18 -79 -48 -94 -152 -74 -508 7 -114 14 -232 15 -262 8 -137 -25
-243 -82 -269 -71 -33 -159 17 -181 104 -16 62 -14 202 5 368 22 195 16 287
-21 356 -59 107 -159 159 -243 125 -53 -20 -75 -51 -97 -134 -22 -81 -36 -108
-69 -139 -55 -52 -163 -24 -202 51 -9 17 -22 87 -29 158 -21 193 -43 231 -159
270 -59 19 -83 21 -204 18 -112 -2 -144 -7 -176 -23 -70 -35 -79 -58 -87 -208
-9 -183 -39 -238 -130 -239 -88 -1 -126 59 -139 222 -10 128 -31 183 -82 217
-42 28 -106 42 -189 43 -90 0 -149 -22 -197 -74 -56 -60 -76 -132 -76 -271 0
-111 11 -181 69 -435 37 -157 39 -286 6 -353 -43 -89 -133 -138 -219 -119 -87
20 -141 88 -163 208 -14 73 -6 298 17 479 22 171 22 358 1 405 -46 104 -133
114 -223 26 -68 -67 -89 -126 -98 -274 -4 -64 -13 -130 -22 -150 -45 -110
-157 -143 -238 -71 -54 47 -67 94 -76 269 -9 188 -18 223 -90 370 -74 150 -91
204 -92 292 -3 133 31 222 147 395 116 172 156 306 156 523 0 116 -17 340 -41
545 -12 105 -46 465 -60 634 -23 292 -29 589 -20 976 10 400 15 543 50 1315
22 471 19 603 -15 833 -44 293 -110 447 -191 447 -58 0 -65 -59 -38 -340 19
-192 15 -251 -19 -301 -37 -54 -72 -74 -130 -73 -64 0 -101 23 -129 77 -18 36
-20 53 -15 146 3 65 15 145 30 206 39 153 47 245 41 463 -5 162 -4 213 10 286
40 211 161 350 347 400 90 24 218 20 395 -14z"/>
</g>
</svg>
