<?xml version="1.0" standalone="no"?>
<!DOCTYPE svg PUBLIC "-//W3C//DTD SVG 20010904//EN"
 "http://www.w3.org/TR/2001/REC-SVG-20010904/DTD/svg10.dtd">
<svg version="1.0" xmlns="http://www.w3.org/2000/svg"
 width="1024.000000pt" height="1024.000000pt" viewBox="0 0 1024.000000 1024.000000"
 preserveAspectRatio="xMidYMid meet">
<metadata>
Created by potrace 1.16, written by Peter Selinger 2001-2019
</metadata>
<g transform="translate(0.000000,1024.000000) scale(0.100000,-0.100000)"
fill="#000000" stroke="none">
<path d="M0 5120 l0 -5120 5120 0 5120 0 0 5120 0 5120 -5120 0 -5120 0 0
-5120z m5780 4360 c173 -5 370 -17 438 -25 729 -91 1419 -361 1902 -744 99
-79 335 -308 411 -400 153 -186 280 -384 406 -636 124 -247 187 -440 239 -735
36 -202 44 -520 19 -700 -52 -374 -179 -710 -337 -891 -138 -158 -215 -220
-383 -310 -155 -83 -392 -157 -615 -194 -118 -19 -548 -36 -775 -29 -924 26
-1465 31 -1465 13 0 -6 -6 -9 -14 -6 -15 6 -14 -3 19 -96 44 -125 -40 -277
-168 -305 -54 -11 -141 0 -193 24 -51 24 -112 86 -134 138 -11 23 -22 80 -26
131 -8 104 -20 133 -71 172 -32 24 -47 28 -117 31 -87 4 -94 2 -266 -73 -106
-47 -219 -57 -344 -31 -271 56 -353 -20 -350 -324 2 -155 31 -365 67 -490 35
-120 93 -284 122 -348 124 -270 449 -619 757 -810 172 -107 423 -217 610 -267
475 -127 932 -125 1443 6 407 104 712 248 1025 483 120 90 306 275 388 386
127 171 140 186 192 214 123 67 298 33 416 -81 43 -42 132 -191 160 -269 26
-73 33 -604 9 -754 -26 -167 -85 -313 -181 -446 -79 -111 -167 -161 -352 -200
-144 -30 -221 -55 -337 -109 -199 -92 -331 -192 -591 -448 -99 -98 -216 -205
-259 -237 -171 -128 -349 -185 -507 -162 -86 12 -168 48 -226 98 -21 18 -57
42 -80 54 -37 19 -46 21 -72 10 -17 -7 -30 -14 -30 -17 0 -2 11 -29 24 -61 39
-93 58 -178 50 -230 -41 -279 -399 -326 -536 -69 -21 38 -23 56 -24 183 0 157
-7 179 -67 211 -46 24 -149 22 -208 -4 -26 -12 -85 -57 -132 -100 -146 -135
-246 -175 -441 -175 -184 -1 -389 48 -671 159 -341 135 -419 152 -725 163
-324 12 -411 35 -547 148 -101 84 -163 102 -210 63 -30 -25 -29 -39 8 -157 50
-160 33 -268 -57 -364 -65 -69 -120 -93 -219 -94 -72 -1 -88 3 -147 32 -134
66 -218 188 -226 331 -7 138 12 249 63 369 58 133 65 183 36 240 -30 59 -72
103 -176 187 -136 109 -234 227 -371 445 -83 133 -235 421 -292 555 -19 44
-45 107 -59 140 -136 320 -268 768 -327 1110 -37 210 -55 285 -79 325 -41 70
-101 131 -203 210 -199 154 -254 271 -239 513 4 67 16 155 26 196 31 120 137
296 264 437 5 6 21 24 34 40 14 16 48 56 76 89 86 100 117 153 204 351 166
376 195 437 394 814 284 539 584 959 937 1310 403 402 825 668 1338 844 240
82 548 149 766 165 147 12 643 12 1006 1z"/>
<path d="M5618 8285 c-32 -8 -107 -35 -167 -60 -86 -35 -155 -54 -313 -85
-227 -45 -295 -65 -418 -123 -106 -50 -145 -75 -240 -153 -93 -77 -138 -129
-216 -253 -115 -184 -201 -430 -248 -712 -47 -284 -58 -397 -60 -618 l-1 -213
38 -33 c71 -61 46 -60 1012 -60 945 0 942 0 1110 52 378 119 645 452 662 828
13 263 -77 542 -248 772 -79 107 -132 148 -177 138 l-30 -6 30 -117 c24 -94
29 -129 23 -177 -8 -79 -46 -155 -100 -203 -146 -128 -399 -61 -497 132 -27
53 -32 72 -32 141 -1 119 18 238 47 293 138 262 158 304 151 325 -35 112 -178
169 -326 132z"/>
</g>
</svg>
