<?xml version="1.0" standalone="no"?>
<!DOCTYPE svg PUBLIC "-//W3C//DTD SVG 20010904//EN"
 "http://www.w3.org/TR/2001/REC-SVG-20010904/DTD/svg10.dtd">
<svg version="1.0" xmlns="http://www.w3.org/2000/svg"
 width="1024.000000pt" height="1024.000000pt" viewBox="0 0 1024.000000 1024.000000"
 preserveAspectRatio="xMidYMid meet">
<metadata>
Created by potrace 1.16, written by Peter Selinger 2001-2019
</metadata>
<g transform="translate(0.000000,1024.000000) scale(0.100000,-0.100000)"
fill="#000000" stroke="none">
<path d="M0 5120 l0 -5120 5120 0 5120 0 0 5120 0 5120 -5120 0 -5120 0 0
-5120z m5983 4700 c443 -27 833 -154 1137 -371 168 -121 280 -258 336 -414 27
-74 29 -91 29 -220 0 -207 -25 -264 -184 -423 -135 -135 -181 -241 -181 -420
-1 -147 -39 -351 -81 -435 -38 -74 -84 -122 -152 -155 -56 -28 -75 -32 -146
-32 -96 0 -150 18 -204 69 -83 77 -120 187 -137 401 -20 241 -50 423 -83 500
-29 65 -102 172 -136 199 -59 47 -134 81 -211 95 -141 27 -301 -27 -423 -143
-27 -25 -68 -73 -91 -106 -42 -58 -126 -224 -126 -248 0 -6 -6 -29 -14 -52
-58 -170 -74 -585 -31 -813 21 -108 46 -204 57 -216 4 -6 8 -18 8 -27 0 -33
109 -234 157 -289 129 -150 281 -227 518 -261 160 -23 242 -24 426 -3 313 35
561 -10 673 -122 21 -21 50 -63 65 -94 24 -50 26 -66 26 -175 0 -131 -10 -173
-85 -365 -47 -121 -66 -238 -51 -309 6 -29 11 -107 11 -174 0 -116 -2 -126
-33 -197 -77 -177 -200 -270 -359 -270 -115 0 -199 52 -298 185 -112 151 -228
243 -368 291 -282 98 -514 14 -635 -228 -101 -201 -130 -400 -130 -893 0 -354
14 -582 49 -805 8 -52 19 -126 25 -165 6 -38 16 -97 24 -130 8 -33 16 -73 20
-90 3 -16 12 -59 20 -95 8 -36 21 -96 30 -135 20 -95 52 -207 115 -404 22 -69
40 -129 40 -134 0 -5 6 -23 14 -40 7 -18 26 -72 41 -122 15 -49 33 -108 40
-130 73 -235 95 -359 95 -546 0 -262 -50 -424 -183 -594 -141 -180 -417 -306
-671 -306 -130 0 -319 33 -386 68 -14 7 -28 13 -32 13 -4 0 -36 13 -70 29
-245 114 -438 336 -523 601 -10 30 -22 64 -26 75 -32 84 -39 327 -14 472 46
267 63 314 346 931 16 35 29 65 29 67 0 3 12 30 26 62 48 107 54 124 54 141 0
10 4 22 8 28 4 5 16 36 26 69 10 33 24 78 31 100 44 137 80 313 107 510 18
137 18 665 -1 800 -7 55 -18 118 -23 140 -5 22 -13 58 -18 80 -10 50 -25 96
-56 163 -13 29 -24 55 -24 57 0 3 -21 34 -46 69 -62 85 -124 117 -229 118 -62
0 -82 -4 -125 -28 -144 -78 -217 -259 -207 -509 5 -117 8 -141 49 -295 47
-180 57 -239 58 -326 0 -170 -46 -263 -166 -330 l-64 -36 -112 4 c-100 3 -119
6 -168 31 -104 54 -191 163 -225 285 -13 45 -16 87 -12 188 4 131 11 164 72
379 45 159 58 308 35 423 -35 181 -133 324 -242 356 -78 22 -113 20 -169 -10
-74 -41 -134 -143 -146 -247 -7 -71 -39 -191 -63 -236 -24 -47 -86 -110 -117
-117 -13 -4 -51 -4 -85 -2 -57 4 -64 7 -98 46 -22 25 -43 64 -54 100 -19 63
-19 46 0 427 6 120 2 157 -40 375 -32 162 -14 351 46 485 39 89 124 180 200
214 102 47 270 61 453 40 89 -10 234 -23 392 -35 95 -8 226 10 291 38 24 11
62 38 83 61 93 95 99 141 109 852 11 714 19 825 87 1135 32 148 105 382 149
476 13 28 24 53 24 56 0 10 114 214 139 248 154 209 294 341 499 469 273 171
569 262 957 296 77 7 144 13 148 14 5 0 86 -4 180 -9z"/>
</g>
</svg>
