<?xml version="1.0" standalone="no"?>
<!DOCTYPE svg PUBLIC "-//W3C//DTD SVG 20010904//EN"
 "http://www.w3.org/TR/2001/REC-SVG-20010904/DTD/svg10.dtd">
<svg version="1.0" xmlns="http://www.w3.org/2000/svg"
 width="1024.000000pt" height="1024.000000pt" viewBox="0 0 1024.000000 1024.000000"
 preserveAspectRatio="xMidYMid meet">
<metadata>
Created by potrace 1.16, written by Peter Selinger 2001-2019
</metadata>
<g transform="translate(0.000000,1024.000000) scale(0.100000,-0.100000)"
fill="#000000" stroke="none">
<path d="M0 5120 l0 -5120 5120 0 5120 0 0 5120 0 5120 -5120 0 -5120 0 0
-5120z m5240 4615 c69 -8 188 -26 265 -40 328 -60 343 -61 680 -30 244 23 420
28 584 16 115 -8 189 -8 290 0 75 7 251 12 391 13 233 1 263 -1 345 -22 173
-43 284 -101 371 -193 63 -67 94 -122 128 -221 72 -210 70 -479 -3 -758 -27
-103 -52 -192 -70 -247 -39 -120 -59 -260 -66 -463 -7 -162 -24 -280 -50 -329
-19 -37 -81 -88 -116 -96 -33 -8 -79 14 -108 51 -29 37 -57 133 -70 244 -14
111 -43 236 -66 281 -40 77 -116 121 -180 105 -31 -8 -97 -65 -89 -77 3 -5 2
-8 -3 -7 -12 4 -181 -170 -174 -179 3 -3 1 -3 -5 0 -6 3 -26 -7 -45 -22 -81
-66 -186 -101 -308 -101 -133 0 -217 32 -355 134 -40 30 -77 52 -82 48 -4 -4
-4 -1 0 6 4 6 4 12 -1 12 -4 0 -32 19 -62 41 -49 37 -66 46 -95 48 -5 1 -6 4
-3 7 12 12 -90 52 -161 63 -143 22 -354 8 -413 -28 -16 -10 -26 -20 -23 -23 3
-3 -1 -5 -8 -4 -7 0 -14 -2 -15 -6 -2 -5 -12 -17 -23 -28 -20 -20 -38 -57 -45
-93 -2 -9 -6 -21 -9 -25 -3 -5 -12 -87 -21 -183 -16 -171 -33 -258 -58 -290
-27 -35 -81 -59 -134 -59 -91 0 -167 51 -204 136 -15 33 -49 203 -49 246 0 3
-13 11 -29 16 -31 11 -49 1 -55 -30 -2 -7 -5 -20 -9 -28 -6 -18 -41 -214 -63
-360 -20 -128 -22 -422 -5 -535 43 -282 113 -539 150 -553 9 -3 19 -10 23 -16
13 -20 688 -13 953 9 139 11 321 19 460 19 206 0 239 -2 320 -22 49 -13 113
-34 142 -47 28 -14 54 -25 58 -25 3 0 11 -5 18 -10 7 -6 32 -25 57 -44 62 -46
127 -132 152 -202 17 -50 20 -75 15 -165 -4 -93 -8 -114 -37 -175 -18 -38 -39
-75 -47 -82 -7 -7 -13 -20 -13 -29 0 -8 -8 -27 -18 -41 -23 -33 -38 -74 -63
-172 -30 -121 -34 -244 -14 -493 16 -190 17 -239 6 -322 -13 -113 -34 -192
-63 -241 -11 -19 -17 -34 -13 -34 15 0 -92 -93 -122 -106 -73 -31 -169 -11
-231 49 -62 59 -98 161 -113 315 -17 179 -40 242 -102 274 -33 17 -52 19 -99
14 -70 -7 -160 -35 -152 -47 3 -5 -2 -6 -10 -3 -9 3 -16 1 -16 -6 0 -6 -4 -9
-9 -5 -5 3 -18 -5 -28 -17 -10 -13 -25 -24 -33 -26 -23 -6 -100 -92 -125 -143
-13 -25 -40 -88 -61 -140 -56 -143 -102 -190 -198 -204 -53 -8 -133 15 -159
46 -10 11 -23 17 -29 13 -7 -5 -8 -3 -4 5 5 7 1 20 -7 29 -8 9 -20 34 -28 54
-7 20 -17 34 -22 31 -6 -3 -7 -1 -3 6 10 16 -25 112 -37 104 -6 -3 -7 -1 -3 6
16 25 -93 147 -121 137 -8 -3 -12 -2 -9 3 6 9 -49 21 -94 21 -30 0 -136 -50
-167 -80 -13 -11 -23 -28 -23 -37 0 -9 -3 -13 -6 -10 -12 12 -42 -39 -69 -118
-15 -44 -34 -134 -42 -200 -18 -135 -11 -259 27 -485 35 -208 25 -338 -41
-502 -82 -205 -115 -361 -104 -498 6 -82 22 -201 67 -495 29 -193 31 -519 5
-615 -10 -35 -26 -78 -34 -94 -80 -154 -220 -179 -330 -60 -19 21 -37 33 -44
28 -8 -4 -9 -3 -5 4 4 7 2 12 -5 12 -7 0 -9 3 -6 7 12 11 -51 32 -80 26 -15
-3 -34 -6 -40 -6 -7 0 -13 -5 -13 -10 0 -5 -6 -15 -13 -21 -23 -20 -47 -116
-77 -311 -40 -265 -97 -419 -180 -489 -58 -48 -197 -59 -270 -21 -35 18 -100
81 -100 96 0 6 -5 7 -10 4 -6 -3 -10 -3 -11 2 -2 18 -7 40 -22 83 -19 56 -25
112 -37 320 -6 118 -14 180 -28 217 -10 29 -22 50 -27 45 -4 -4 -5 -1 -1 6 12
20 -60 107 -171 207 -104 94 -142 141 -179 215 -40 78 -73 214 -80 323 -8 128
-1 180 100 682 51 257 61 355 60 600 0 188 -3 235 -22 320 -24 112 -41 175
-50 190 -4 6 -8 21 -10 35 -2 14 -7 27 -13 28 -5 2 -9 12 -9 23 0 11 -9 45
-21 77 -184 501 -212 669 -174 1040 31 290 89 552 180 804 14 38 23 73 20 78
-3 5 -1 10 3 12 8 3 16 29 58 173 19 67 41 171 48 220 3 22 10 65 16 95 18 93
29 367 20 520 -10 181 -47 366 -85 423 -9 14 -16 28 -16 32 3 14 -29 75 -39
75 -6 0 -9 4 -5 9 3 5 -11 23 -31 40 -37 30 -49 31 -132 20 -27 -4 -72 -71
-92 -136 -11 -37 -32 -140 -45 -228 -14 -88 -32 -187 -41 -220 -32 -131 -107
-245 -188 -288 -61 -32 -157 -30 -218 6 -25 14 -48 24 -52 22 -3 -3 -4 -2 -1
1 2 4 -11 23 -30 43 -135 142 -168 408 -86 690 36 124 63 293 63 401 1 91 -3
116 -30 193 -16 48 -38 100 -48 115 -10 15 -19 29 -19 32 -2 11 -99 205 -105
210 -4 3 -7 12 -8 20 0 8 -9 51 -21 94 -26 97 -29 282 -6 398 31 166 112 351
189 437 46 51 140 141 148 141 4 0 13 6 20 13 21 21 118 72 193 102 311 124
660 153 1130 93 134 -16 231 -22 380 -22 199 0 201 0 425 47 124 25 245 48
270 50 110 9 224 6 340 -8z"/>
</g>
</svg>
