<?xml version="1.0" standalone="no"?>
<!DOCTYPE svg PUBLIC "-//W3C//DTD SVG 20010904//EN"
 "http://www.w3.org/TR/2001/REC-SVG-20010904/DTD/svg10.dtd">
<svg version="1.0" xmlns="http://www.w3.org/2000/svg"
 width="1024.000000pt" height="1024.000000pt" viewBox="0 0 1024.000000 1024.000000"
 preserveAspectRatio="xMidYMid meet">
<metadata>
Created by potrace 1.16, written by Peter Selinger 2001-2019
</metadata>
<g transform="translate(0.000000,1024.000000) scale(0.100000,-0.100000)"
fill="#000000" stroke="none">
<path d="M0 5120 l0 -5120 5120 0 5120 0 0 5120 0 5120 -5120 0 -5120 0 0
-5120z m5191 4370 c157 -16 327 -54 499 -110 261 -86 293 -91 645 -100 219 -5
331 -12 381 -23 76 -17 176 -52 240 -85 21 -11 143 -56 269 -101 264 -94 382
-148 476 -219 181 -138 264 -301 263 -517 0 -131 -9 -164 -80 -316 -88 -187
-91 -267 -19 -429 42 -93 50 -139 35 -184 -51 -154 -262 -145 -300 13 -9 40
-9 66 4 140 9 50 16 112 16 139 -1 94 -62 172 -135 172 -71 0 -141 -77 -179
-199 -36 -114 -40 -207 -21 -446 10 -119 14 -243 11 -286 -17 -204 -101 -368
-221 -428 -176 -88 -420 74 -465 309 -5 29 -10 161 -10 294 0 263 -6 309 -59
421 -93 198 -319 343 -641 412 -103 22 -394 24 -510 4 -209 -36 -380 -104
-554 -221 -338 -227 -521 -515 -651 -1025 -148 -580 -197 -1373 -119 -1910 68
-466 220 -832 468 -1124 145 -172 323 -310 531 -414 196 -97 330 -131 515
-131 292 -1 555 116 785 348 213 214 363 510 400 789 13 104 13 121 0 146 -32
63 -151 131 -273 156 -102 22 -169 7 -219 -47 -44 -47 -56 -95 -63 -258 -8
-179 -23 -228 -86 -276 -48 -37 -127 -41 -171 -8 -83 62 -102 187 -59 395 14
70 26 147 26 173 0 110 -38 176 -102 176 -78 0 -99 -41 -97 -199 2 -114 1
-123 -24 -160 -46 -69 -152 -91 -216 -43 -74 55 -85 139 -35 267 20 51 27 89
28 140 1 85 -10 107 -100 205 -75 82 -117 163 -139 266 -26 124 -14 238 36
336 31 61 111 135 182 168 167 78 356 60 668 -63 162 -65 217 -78 349 -84 129
-6 205 7 530 91 207 54 432 101 550 116 220 27 483 3 674 -61 219 -73 367
-213 412 -389 26 -101 15 -163 -50 -295 -68 -137 -79 -175 -165 -576 -38 -178
-100 -452 -136 -609 -163 -700 -170 -840 -60 -1220 42 -144 50 -259 23 -321
-22 -51 -72 -105 -154 -165 -95 -71 -109 -99 -109 -229 0 -82 6 -115 28 -185
72 -219 47 -376 -71 -451 -84 -53 -197 -33 -258 46 -62 82 -68 164 -24 345 68
277 56 476 -40 678 -91 192 -239 257 -373 165 -47 -33 -98 -102 -123 -168 -20
-53 -22 -98 -13 -355 4 -118 3 -128 -22 -181 -50 -106 -138 -168 -237 -169
-83 0 -147 41 -177 115 -4 11 -11 75 -15 142 -6 112 -8 124 -34 157 -33 43
-84 71 -168 91 -81 19 -131 19 -225 -1 -85 -17 -138 -41 -168 -74 -18 -20 -20
-34 -17 -124 3 -92 1 -104 -20 -136 -42 -62 -108 -65 -152 -7 -18 24 -22 47
-26 149 -5 116 -6 120 -33 144 -42 36 -115 33 -195 -6 -107 -54 -165 -145
-183 -291 -23 -184 -41 -232 -100 -268 -82 -50 -170 -25 -224 63 -29 48 -30
52 -29 180 0 72 2 183 5 246 4 111 3 117 -23 162 -30 50 -91 88 -141 88 -95 0
-178 -97 -212 -250 -35 -152 -28 -292 29 -581 63 -316 70 -489 25 -649 -52
-188 -156 -299 -282 -300 -135 0 -243 122 -265 302 -13 101 -1 200 48 413 57
249 71 341 70 477 0 257 -75 413 -200 413 -90 0 -153 -82 -171 -227 -26 -195
-54 -259 -134 -306 -81 -47 -215 -12 -279 73 -57 74 -60 90 -67 375 -7 288
-18 366 -70 500 -56 144 -149 230 -251 230 -64 0 -88 -30 -111 -138 -21 -94
-51 -138 -101 -148 -36 -6 -82 12 -107 42 -11 13 -16 68 -21 228 -6 223 -19
295 -71 426 -66 162 -211 350 -271 350 -73 0 -88 -39 -80 -209 8 -146 -1 -187
-49 -227 -27 -23 -38 -26 -87 -22 -68 5 -112 33 -140 88 -27 54 -25 115 8 207
25 73 27 89 27 238 0 248 -32 365 -200 735 -156 344 -213 546 -236 831 -16
197 -1 324 70 593 56 212 58 362 10 600 -26 128 -36 355 -19 467 29 204 97
360 226 519 134 166 149 209 174 482 25 283 152 499 370 629 64 38 166 74 350
124 179 49 290 118 589 368 343 288 472 363 808 476 308 104 596 140 884 111z"/>
</g>
</svg>
