<?xml version="1.0" standalone="no"?>
<!DOCTYPE svg PUBLIC "-//W3C//DTD SVG 20010904//EN"
 "http://www.w3.org/TR/2001/REC-SVG-20010904/DTD/svg10.dtd">
<svg version="1.0" xmlns="http://www.w3.org/2000/svg"
 width="1024.000000pt" height="1024.000000pt" viewBox="0 0 1024.000000 1024.000000"
 preserveAspectRatio="xMidYMid meet">
<metadata>
Created by potrace 1.16, written by Peter Selinger 2001-2019
</metadata>
<g transform="translate(0.000000,1024.000000) scale(0.100000,-0.100000)"
fill="#000000" stroke="none">
<path d="M0 5120 l0 -5120 5120 0 5120 0 0 5120 0 5120 -5120 0 -5120 0 0
-5120z m5245 3279 c33 -5 89 -13 125 -18 113 -18 257 -60 396 -119 101 -42
123 -55 221 -124 138 -95 162 -115 269 -221 71 -69 104 -95 109 -87 5 7 7 60
6 118 -2 128 15 190 69 254 70 81 47 78 579 78 443 0 472 -1 489 -18 58 -62
92 -106 102 -137 6 -19 15 -35 20 -35 14 0 49 -131 56 -211 4 -45 2 -104 -5
-144 -9 -50 -12 -572 -12 -2041 0 -1674 2 -1982 15 -2031 25 -104 65 -479 70
-658 2 -67 8 -130 15 -142 35 -67 -28 -203 -95 -203 -29 0 -64 25 -64 45 0 7
-11 20 -25 29 -29 19 -51 58 -60 109 -4 20 -11 37 -16 37 -4 0 -20 -21 -35
-46 -21 -35 -29 -67 -35 -128 -14 -147 -38 -310 -55 -375 -13 -49 -14 -69 -5
-83 6 -10 11 -28 11 -41 0 -13 6 -32 14 -43 8 -10 13 -28 10 -40 -3 -12 1 -26
10 -33 9 -8 16 -18 16 -23 0 -12 44 -119 66 -160 42 -78 50 -237 17 -303 -29
-56 -55 -77 -106 -82 -64 -8 -106 18 -183 112 -82 101 -93 181 -43 332 22 67
30 105 26 130 -4 20 -9 38 -11 41 -16 15 -156 -75 -156 -101 0 -5 -15 -24 -32
-43 -86 -89 -168 -276 -194 -439 -17 -105 -20 -340 -5 -359 17 -23 63 -209 64
-264 2 -84 -28 -167 -80 -220 -24 -23 -55 -47 -69 -52 -67 -26 -157 1 -211 63
-18 21 -37 37 -42 37 -6 0 -16 11 -23 24 -7 14 -28 50 -47 81 -29 49 -33 65
-33 120 0 45 7 76 21 102 37 71 71 210 71 293 0 48 -28 132 -49 144 -6 4 -11
3 -11 -2 0 -5 -21 -12 -47 -16 -25 -3 -54 -13 -63 -21 -9 -8 -50 -27 -91 -41
-41 -14 -87 -31 -104 -39 -56 -25 -300 -73 -430 -85 -71 -7 -134 -15 -140 -18
-5 -3 -115 -5 -245 -4 -424 3 -667 34 -930 116 -41 13 -88 27 -105 31 -16 3
-52 17 -78 31 -27 13 -55 24 -63 24 -26 0 -200 91 -319 168 -70 44 -320 286
-380 367 -17 22 -35 45 -42 50 -30 26 -105 168 -148 278 -26 67 -51 131 -56
142 -4 11 -13 45 -18 75 -6 30 -18 87 -27 125 -9 39 -17 106 -17 150 -2 69 1
84 21 113 48 66 61 69 426 77 182 4 429 15 550 25 127 10 231 14 244 9 13 -5
22 -17 22 -29 0 -11 7 -23 15 -27 9 -3 25 -23 36 -44 11 -22 23 -39 28 -39 5
0 11 -15 14 -33 15 -83 21 -103 33 -110 8 -5 14 -25 14 -47 0 -30 4 -40 16
-40 12 0 15 -6 11 -21 -3 -12 0 -22 9 -26 8 -3 14 -14 14 -24 0 -60 125 -175
260 -240 82 -39 145 -57 245 -68 185 -22 325 -10 510 44 133 38 239 100 337
198 71 70 92 99 141 196 82 160 109 254 138 481 5 41 12 82 15 90 22 61 55
526 38 542 -11 12 -93 -28 -190 -93 -101 -67 -203 -120 -257 -133 -16 -4 -56
0 -93 10 -98 24 -115 16 -202 -103 -79 -106 -152 -150 -272 -163 -77 -8 -193
4 -247 26 -52 22 -122 67 -123 79 0 5 -17 25 -38 45 -20 19 -47 47 -60 61 -34
39 -83 192 -93 289 -19 193 -51 271 -131 314 -62 34 -98 65 -98 87 0 9 -6 19
-14 22 -7 3 -24 27 -37 54 -20 41 -24 70 -30 193 -9 178 -19 205 -82 213 -24
3 -52 1 -67 -6 -31 -15 -65 -79 -73 -137 -4 -25 -11 -65 -16 -90 -18 -78 -25
-289 -11 -350 6 -30 12 -69 13 -86 1 -17 7 -37 13 -45 6 -8 19 -36 29 -64 10
-27 28 -79 41 -115 35 -96 32 -167 -8 -242 -36 -68 -52 -81 -125 -98 -50 -11
-55 -10 -115 20 -63 31 -118 72 -118 88 0 4 -16 23 -35 42 -19 19 -35 40 -35
46 0 6 -7 24 -15 40 -32 66 -30 150 8 294 57 211 61 245 61 469 0 211 -11 328
-40 443 -8 32 -14 66 -14 77 0 28 -20 39 -76 44 -27 2 -68 14 -91 25 -40 21
-103 89 -103 111 0 6 -4 11 -10 11 -5 0 -19 19 -31 43 -30 57 -36 154 -15 233
19 73 21 155 4 172 -19 19 -65 14 -93 -10 -25 -23 -65 -115 -65 -152 0 -11 6
-42 14 -70 8 -28 20 -71 27 -96 7 -25 14 -58 15 -75 2 -33 10 -65 47 -200 35
-126 38 -153 38 -270 -1 -88 -5 -114 -27 -170 -31 -76 -52 -95 -110 -95 -50 0
-133 35 -142 59 -4 10 -22 31 -39 46 -18 15 -33 33 -33 40 0 7 -6 17 -13 24
-8 6 -25 34 -40 63 -72 146 -76 270 -17 504 37 145 40 170 40 291 l0 132 -57
163 c-71 205 -74 252 -21 403 19 55 41 132 48 170 7 39 17 74 22 80 4 5 8 21
8 35 0 26 46 246 74 352 57 219 221 547 346 692 20 23 55 66 78 97 55 73 209
221 292 281 36 26 76 56 90 66 45 34 227 142 238 142 6 0 46 16 88 35 155 71
352 124 534 145 58 6 112 13 120 15 35 7 280 3 335 -6z"/>
<path d="M5265 7366 c-113 -27 -137 -34 -199 -65 -34 -16 -82 -45 -106 -64
-25 -18 -62 -45 -82 -60 -43 -32 -125 -136 -134 -171 -3 -14 -12 -27 -19 -29
-20 -8 -111 -205 -128 -277 -9 -36 -25 -99 -37 -140 -11 -41 -25 -106 -29
-145 -5 -38 -15 -114 -21 -169 -12 -93 -9 -582 3 -646 3 -14 10 -61 16 -105
19 -130 31 -188 47 -218 8 -16 14 -41 14 -56 0 -15 4 -31 9 -37 6 -5 17 -34
25 -65 27 -106 111 -235 222 -340 179 -170 484 -233 744 -154 93 29 219 97
294 161 104 88 210 252 266 414 13 36 27 69 32 74 4 6 8 20 8 32 0 12 6 44 14
70 21 73 44 187 56 289 14 108 15 647 2 672 -5 10 -12 54 -16 98 -14 178 -110
499 -178 595 -85 121 -136 180 -153 180 -7 0 -16 7 -19 16 -4 9 -9 14 -12 11
-4 -3 -34 12 -68 33 -110 70 -213 99 -375 105 -79 3 -135 0 -176 -9z"/>
</g>
</svg>
