<?xml version="1.0" standalone="no"?>
<!DOCTYPE svg PUBLIC "-//W3C//DTD SVG 20010904//EN"
 "http://www.w3.org/TR/2001/REC-SVG-20010904/DTD/svg10.dtd">
<svg version="1.0" xmlns="http://www.w3.org/2000/svg"
 width="1024.000000pt" height="1024.000000pt" viewBox="0 0 1024.000000 1024.000000"
 preserveAspectRatio="xMidYMid meet">
<metadata>
Created by potrace 1.16, written by Peter Selinger 2001-2019
</metadata>
<g transform="translate(0.000000,1024.000000) scale(0.100000,-0.100000)"
fill="#000000" stroke="none">
<path d="M0 5120 l0 -5120 5120 0 5120 0 0 5120 0 5120 -5120 0 -5120 0 0
-5120z m4050 4893 c36 -6 78 -15 93 -21 16 -7 39 -12 53 -12 33 0 106 -38 182
-95 61 -46 112 -121 112 -165 0 -9 5 -21 11 -27 7 -7 13 -88 16 -220 5 -167 3
-214 -8 -233 -10 -18 -15 -87 -20 -250 -3 -124 -12 -250 -18 -280 -7 -30 -20
-95 -31 -145 -37 -173 -50 -333 -50 -603 0 -251 -1 -259 -24 -308 -47 -97 -65
-298 -42 -471 9 -67 16 -144 16 -172 0 -27 4 -52 9 -55 5 -3 12 -90 17 -193 4
-104 8 -190 9 -193 1 -3 5 -42 9 -88 8 -86 28 -122 65 -122 21 0 60 36 95 88
24 35 165 174 265 259 170 146 351 277 448 323 23 11 45 25 48 31 4 5 46 28
93 50 48 22 95 44 104 49 10 6 26 10 36 10 10 0 22 4 28 9 26 23 252 81 394
101 127 18 539 4 595 -19 11 -5 45 -16 75 -24 131 -38 223 -70 253 -87 18 -10
50 -23 72 -30 22 -7 65 -29 95 -48 30 -20 76 -47 101 -61 93 -53 391 -342 463
-451 14 -22 26 -41 26 -43 0 -5 100 -179 110 -192 4 -5 16 -35 26 -65 9 -30
22 -61 28 -69 6 -8 16 -32 22 -55 7 -23 20 -70 30 -106 11 -36 22 -67 25 -70
3 -3 10 -27 14 -55 4 -27 12 -56 18 -64 12 -14 21 -70 37 -219 5 -51 12 -98
17 -105 8 -14 16 -94 38 -402 10 -144 17 -386 18 -700 2 -429 5 -484 20 -517
12 -26 17 -63 17 -122 0 -47 5 -97 11 -113 6 -15 15 -59 19 -98 5 -38 16 -104
24 -145 27 -125 40 -240 40 -350 -1 -114 -11 -224 -24 -255 -5 -11 -14 -38
-20 -60 -6 -22 -15 -49 -20 -60 -4 -11 -14 -36 -21 -55 -16 -43 -53 -77 -99
-91 -81 -25 -95 -36 -142 -122 -33 -58 -36 -108 -12 -212 37 -168 60 -242 100
-330 24 -53 37 -89 41 -115 3 -22 22 -81 43 -135 31 -80 37 -218 15 -315 -20
-85 -40 -125 -87 -179 -90 -103 -194 -142 -319 -121 -57 9 -109 30 -109 43 0
4 -6 7 -12 7 -22 1 -75 82 -97 147 -27 80 -35 157 -22 213 6 25 17 74 25 110
8 36 18 79 21 95 4 17 10 39 15 50 5 11 11 38 14 60 2 22 10 65 16 95 13 60 6
218 -10 234 -6 6 -10 26 -10 46 0 42 -13 62 -54 82 -24 13 -33 13 -55 2 -56
-28 -101 -117 -101 -198 0 -58 -18 -166 -30 -181 -4 -5 -10 -27 -14 -47 -4
-21 -10 -38 -14 -38 -4 0 -13 -13 -20 -29 -7 -17 -30 -48 -52 -69 -29 -31 -51
-43 -92 -52 -98 -20 -128 -70 -128 -210 0 -47 -5 -112 -11 -142 -10 -49 -17
-59 -59 -91 -47 -35 -62 -42 -124 -51 -16 -3 -31 -7 -33 -10 -3 -2 -32 3 -66
13 -59 16 -117 56 -117 79 0 6 -4 12 -9 14 -12 5 -121 227 -121 249 0 10 -4
20 -9 23 -19 12 -23 80 -30 521 -5 253 -13 503 -19 555 -34 274 -39 373 -26
470 16 120 18 748 3 840 -6 36 -14 137 -19 225 -21 386 -46 596 -105 885 -27
129 -33 152 -44 163 -6 6 -11 19 -11 29 0 16 -22 62 -55 112 -8 12 -12 26 -8
29 3 4 -1 7 -10 7 -9 0 -17 7 -17 15 0 8 -4 15 -10 15 -5 0 -10 5 -10 11 0 13
-53 66 -91 91 -75 48 -243 94 -313 84 -22 -3 -63 -8 -91 -12 -27 -3 -52 -10
-55 -14 -9 -13 -48 -30 -69 -30 -19 0 -113 -56 -119 -72 -2 -4 -10 -8 -18 -8
-8 0 -14 -5 -14 -11 0 -6 -6 -9 -14 -6 -8 3 -17 -1 -20 -9 -3 -8 -13 -14 -21
-14 -9 0 -14 -4 -11 -9 3 -5 -9 -16 -27 -25 -17 -8 -28 -16 -23 -16 5 0 -20
-28 -55 -62 -64 -63 -130 -140 -138 -161 -2 -6 -14 -22 -27 -35 -12 -14 -28
-36 -36 -51 -7 -14 -15 -28 -19 -31 -10 -10 -59 -103 -59 -114 0 -6 -11 -24
-25 -40 -14 -16 -25 -34 -25 -39 0 -18 -33 -87 -42 -87 -4 0 -8 -4 -8 -10 0
-5 -11 -34 -25 -65 -13 -30 -24 -56 -23 -58 1 -1 -10 -22 -24 -47 -14 -25 -31
-63 -38 -85 -7 -22 -19 -46 -27 -53 -7 -7 -13 -22 -13 -32 0 -10 -4 -22 -10
-25 -5 -3 -10 -17 -10 -31 0 -13 -4 -24 -10 -24 -5 0 -10 -11 -10 -25 0 -14
-4 -33 -10 -43 -21 -38 -50 -164 -64 -282 -9 -79 -16 -247 -19 -452 -2 -227
-7 -331 -15 -341 -14 -16 -19 -357 -6 -378 5 -8 12 -61 15 -119 8 -135 26
-275 47 -370 13 -57 17 -123 17 -280 -1 -223 -19 -528 -36 -600 -5 -25 -13
-58 -15 -75 -3 -16 -12 -44 -20 -62 -8 -17 -14 -39 -14 -50 0 -10 -7 -31 -15
-47 -8 -15 -15 -34 -15 -40 0 -16 -59 -76 -75 -76 -7 0 -15 -5 -17 -12 -3 -7
-31 -11 -79 -11 -64 -1 -82 3 -128 28 -29 16 -58 40 -64 52 -6 13 -14 23 -18
23 -25 0 -28 160 -4 206 8 16 15 40 15 55 0 14 5 30 11 36 19 19 -7 115 -39
138 -45 33 -162 19 -162 -20 0 -7 -6 -18 -14 -24 -24 -20 -44 -251 -26 -319
26 -103 42 -158 51 -174 5 -10 9 -27 9 -37 0 -11 5 -23 10 -26 6 -3 10 -19 10
-34 0 -15 7 -36 15 -47 22 -29 21 -303 -2 -373 -9 -28 -20 -51 -25 -51 -4 0
-8 -6 -8 -14 0 -30 -94 -110 -160 -136 -36 -15 -154 -19 -203 -8 -49 12 -167
86 -167 106 0 5 -6 12 -13 15 -8 3 -31 40 -53 84 l-39 78 2 134 c1 74 6 137
11 140 5 3 13 22 17 41 7 38 30 113 44 145 5 11 14 43 21 70 57 229 72 315 66
400 -7 111 -24 153 -77 194 -38 29 -48 32 -86 27 -94 -13 -123 -62 -115 -194
4 -76 -11 -172 -26 -157 -3 2 -12 -4 -21 -14 -9 -10 -34 -29 -56 -42 -72 -41
-207 -23 -257 35 -71 82 -114 218 -103 328 3 35 10 108 16 163 6 55 13 222 17
372 5 197 10 275 19 285 7 6 13 26 13 42 0 17 5 48 11 70 10 36 18 75 39 191
5 28 16 100 23 161 8 62 18 118 23 125 21 34 44 338 29 382 -2 7 -9 66 -15
132 -10 116 -16 155 -45 315 -19 105 -30 653 -16 790 17 152 29 248 41 305 5
28 12 127 16 220 7 176 3 204 -41 372 -17 64 -14 151 15 403 15 126 5 356 -20
483 -13 64 -12 827 1 1142 16 388 17 486 8 540 -5 28 -13 95 -19 150 -11 110
-29 195 -42 195 -4 0 -8 12 -8 28 0 15 -7 40 -15 56 -23 43 -22 659 0 702 8
16 15 49 15 74 0 43 35 210 66 312 8 26 14 56 14 67 0 11 4 23 10 26 5 3 18
26 29 51 29 65 56 99 104 131 74 51 143 69 310 84 67 5 127 12 132 14 20 8
701 -3 765 -12z"/>
</g>
</svg>
