<?xml version="1.0" standalone="no"?>
<!DOCTYPE svg PUBLIC "-//W3C//DTD SVG 20010904//EN"
 "http://www.w3.org/TR/2001/REC-SVG-20010904/DTD/svg10.dtd">
<svg version="1.0" xmlns="http://www.w3.org/2000/svg"
 width="1024.000000pt" height="1024.000000pt" viewBox="0 0 1024.000000 1024.000000"
 preserveAspectRatio="xMidYMid meet">
<metadata>
Created by potrace 1.16, written by Peter Selinger 2001-2019
</metadata>
<g transform="translate(0.000000,1024.000000) scale(0.100000,-0.100000)"
fill="#000000" stroke="none">
<path d="M0 5120 l0 -5120 5120 0 5120 0 0 5120 0 5120 -5120 0 -5120 0 0
-5120z m2735 4471 c72 -11 152 -28 178 -40 69 -30 144 -28 226 6 63 26 74 27
241 27 l175 0 65 -31 c36 -17 84 -36 107 -42 23 -6 55 -23 72 -37 16 -13 44
-29 61 -36 48 -16 203 -177 255 -264 83 -140 78 -124 116 -297 22 -100 22
-192 1 -248 -5 -13 -14 -44 -20 -69 -7 -29 -25 -61 -51 -89 -23 -24 -41 -48
-41 -53 0 -13 -184 -98 -213 -98 -28 0 -67 -41 -67 -70 0 -10 -9 -28 -19 -42
-11 -13 -23 -37 -26 -51 -4 -15 -12 -30 -17 -33 -15 -10 2 -155 22 -190 10
-17 25 -64 34 -103 9 -40 27 -89 41 -109 19 -29 26 -60 34 -146 21 -214 8
-367 -42 -483 -36 -82 -54 -336 -39 -548 9 -137 12 -155 36 -189 14 -22 26
-46 26 -55 0 -21 23 -85 36 -102 6 -8 21 -36 34 -64 56 -120 228 -234 385
-256 44 -6 222 -12 395 -12 339 -1 529 14 685 54 151 38 200 48 236 49 20 0
60 13 91 29 30 16 72 33 94 37 58 11 93 28 157 79 36 29 66 63 80 93 13 26 35
68 49 93 19 35 27 68 32 139 4 52 16 138 26 192 26 129 28 482 4 628 -9 59
-18 223 -24 435 -5 187 -14 354 -19 370 -5 17 -21 56 -35 89 -15 32 -33 84
-40 115 -7 32 -28 77 -45 101 -17 24 -31 48 -31 53 0 9 -29 41 -217 233 -40
41 -75 85 -79 98 -3 13 -4 82 -2 154 3 119 5 133 26 154 12 14 22 29 22 34 0
26 48 92 113 155 129 126 331 234 492 264 50 10 113 27 140 38 48 21 65 21
520 22 259 1 513 4 565 9 144 11 379 -7 434 -33 27 -14 87 -27 155 -35 85 -11
127 -22 174 -45 34 -16 76 -35 94 -42 71 -25 267 -248 286 -324 6 -22 23 -56
39 -76 38 -47 52 -162 46 -371 -5 -138 -8 -161 -27 -194 -33 -56 -51 -113 -51
-169 0 -32 -9 -68 -25 -100 -14 -27 -25 -66 -25 -86 0 -19 -10 -71 -22 -115
-32 -116 -33 -365 -1 -476 12 -43 29 -88 37 -100 9 -14 20 -70 26 -141 12
-131 3 -217 -29 -251 -10 -12 -24 -31 -30 -43 -31 -61 -142 -102 -236 -87 -62
9 -152 78 -185 143 -14 27 -34 64 -44 82 -16 28 -21 62 -27 189 -7 177 -21
243 -57 283 -33 35 -49 34 -110 -4 -61 -38 -85 -69 -106 -140 -8 -31 -22 -62
-30 -68 -8 -7 -19 -48 -25 -94 -13 -93 -31 -623 -31 -892 0 -195 -19 -414 -50
-565 -42 -210 -48 -801 -9 -927 10 -34 19 -75 19 -90 0 -15 16 -91 35 -167 19
-76 35 -148 35 -160 0 -11 11 -65 25 -121 45 -184 55 -338 61 -900 3 -286 10
-563 15 -615 21 -198 29 -265 39 -299 5 -20 10 -50 10 -67 0 -95 165 -298 262
-322 24 -6 58 -22 76 -35 23 -18 53 -27 99 -32 108 -11 185 -48 257 -124 96
-100 104 -111 121 -160 9 -27 23 -55 32 -63 37 -31 47 -79 51 -261 5 -198 -3
-247 -49 -316 -16 -25 -29 -52 -29 -61 0 -23 -105 -128 -190 -191 -19 -15 -73
-39 -120 -54 -47 -15 -91 -33 -99 -39 -24 -19 -228 -10 -297 13 -103 35 -180
44 -324 37 -152 -8 -191 -17 -237 -57 -23 -20 -47 -29 -90 -34 -32 -4 -62 -11
-68 -15 -21 -17 -125 -39 -235 -51 -74 -7 -205 -10 -365 -7 -236 5 -254 6
-320 30 -38 14 -106 39 -150 54 -44 16 -96 39 -115 51 -19 11 -55 26 -80 33
-25 6 -54 20 -65 30 -11 10 -48 32 -82 50 -34 17 -65 35 -69 41 -3 5 -22 20
-42 33 -71 46 -150 134 -172 194 -12 32 -30 71 -41 88 -43 70 -34 208 21 319
17 33 30 67 30 76 0 9 14 33 30 54 17 21 30 41 30 45 0 4 23 32 50 61 28 30
65 71 83 92 17 20 44 49 58 65 15 15 37 47 49 72 12 25 31 55 42 66 11 12 28
53 38 90 9 38 23 82 29 97 17 42 13 184 -6 278 -15 71 -18 140 -18 449 l0 365
34 125 c29 111 34 147 43 330 12 259 5 498 -17 561 -9 25 -31 61 -50 79 -19
19 -35 39 -35 46 0 19 -56 62 -92 69 -18 4 -44 14 -57 22 -33 21 -157 23 -196
2 -16 -9 -48 -24 -70 -35 -39 -19 -39 -20 -52 -99 -9 -56 -11 -132 -7 -250 4
-94 4 -197 -1 -230 -6 -52 -12 -64 -55 -109 -49 -51 -49 -51 -113 -51 -58 0
-67 3 -103 34 -21 19 -43 44 -48 55 -4 12 -11 125 -15 251 -7 228 -7 230 -34
272 -15 24 -27 51 -27 61 0 11 -25 42 -56 71 -47 43 -63 51 -95 51 -49 0 -83
-15 -140 -62 -30 -25 -49 -48 -53 -68 -3 -17 -21 -45 -39 -63 -22 -21 -37 -46
-41 -71 -5 -24 -19 -50 -37 -67 -23 -21 -29 -36 -29 -68 0 -32 -5 -44 -24 -56
-13 -8 -38 -38 -57 -66 -27 -41 -47 -57 -99 -82 -59 -29 -74 -31 -167 -32 -87
0 -105 3 -130 21 -15 11 -42 25 -59 31 -17 6 -51 25 -74 42 -25 18 -55 31 -72
31 -16 0 -45 12 -64 26 -29 23 -42 26 -83 22 -42 -4 -58 -13 -115 -63 -38 -34
-69 -70 -72 -85 -3 -14 -12 -50 -20 -80 -31 -114 -33 -140 -34 -335 0 -200 12
-362 31 -400 5 -11 15 -67 23 -125 14 -101 20 -123 52 -182 8 -15 21 -62 29
-105 8 -43 19 -94 25 -113 23 -76 24 -203 2 -291 -12 -50 -20 -121 -21 -176
-1 -82 1 -94 23 -120 13 -15 26 -45 30 -65 4 -24 19 -47 41 -67 19 -17 35 -33
35 -36 0 -4 32 -54 71 -111 40 -58 80 -120 89 -137 52 -96 60 -113 60 -132 0
-11 9 -51 18 -90 21 -78 17 -178 -11 -296 -15 -64 -20 -71 -109 -161 -117
-117 -132 -123 -318 -116 -114 4 -133 7 -153 26 -25 23 -100 42 -195 49 -85 6
-109 -1 -134 -42 -11 -19 -26 -35 -34 -35 -8 0 -48 -32 -89 -72 -49 -47 -88
-76 -117 -86 -24 -7 -55 -25 -69 -38 -18 -17 -60 -33 -143 -54 -103 -26 -136
-30 -257 -30 -194 0 -375 39 -465 101 -23 15 -64 37 -92 47 -56 21 -92 47
-152 105 -22 20 -45 37 -52 37 -14 0 -98 89 -98 104 0 5 -17 34 -37 64 l-37
54 -4 136 c-3 84 0 156 8 191 19 86 88 193 199 310 55 57 102 113 103 125 2
12 2 159 0 328 -5 333 1 405 43 469 13 20 29 56 35 80 6 24 25 63 41 86 16 23
29 47 29 55 0 13 28 63 64 112 10 15 25 56 32 92 8 36 23 78 33 93 25 34 28
51 41 181 6 58 22 148 37 200 27 95 27 96 27 450 1 398 -23 916 -45 965 -7 17
-29 47 -48 68 -28 30 -42 37 -71 37 -38 0 -56 -14 -80 -59 -8 -15 -15 -89 -19
-192 l-6 -168 -35 -36 c-40 -41 -95 -59 -158 -52 -82 9 -162 117 -162 216 0
20 7 72 15 116 8 44 15 127 15 185 0 96 3 112 34 189 19 45 47 97 63 115 15
17 37 47 47 66 11 19 30 49 43 65 63 79 84 111 92 144 48 184 45 135 49 846 2
555 0 697 -13 830 -9 88 -20 261 -26 385 -6 145 -15 239 -24 265 -22 60 -55
195 -55 222 0 13 -12 36 -26 50 -14 14 -34 45 -44 69 -22 50 -38 60 -108 70
-50 6 -53 6 -91 -32 -61 -62 -77 -160 -46 -290 31 -133 35 -181 19 -237 -27
-90 -42 -113 -95 -142 -59 -32 -115 -35 -176 -10 -60 24 -125 126 -131 207 -6
77 15 245 35 283 14 25 17 83 23 365 4 184 11 344 15 355 28 66 223 305 249
305 7 0 21 9 32 21 10 12 40 32 65 45 25 12 59 34 75 47 16 14 48 30 70 36 23
6 49 20 59 31 21 23 60 36 137 45 31 3 67 14 80 24 44 32 79 41 221 52 78 6
144 13 146 15 11 11 231 1 346 -15z"/>
</g>
</svg>
