<?xml version="1.0" standalone="no"?>
<!DOCTYPE svg PUBLIC "-//W3C//DTD SVG 20010904//EN"
 "http://www.w3.org/TR/2001/REC-SVG-20010904/DTD/svg10.dtd">
<svg version="1.0" xmlns="http://www.w3.org/2000/svg"
 width="1024.000000pt" height="1024.000000pt" viewBox="0 0 1024.000000 1024.000000"
 preserveAspectRatio="xMidYMid meet">
<metadata>
Created by potrace 1.16, written by Peter Selinger 2001-2019
</metadata>
<g transform="translate(0.000000,1024.000000) scale(0.100000,-0.100000)"
fill="#000000" stroke="none">
<path d="M0 5120 l0 -5120 5120 0 5120 0 0 5120 0 5120 -5120 0 -5120 0 0
-5120z m5882 4893 c15 -16 32 -48 38 -73 6 -25 22 -56 35 -70 61 -67 163 -240
203 -346 23 -61 42 -116 42 -122 0 -6 26 -40 58 -74 76 -82 117 -160 149 -283
21 -83 25 -121 24 -224 0 -95 -4 -130 -16 -148 -9 -13 -15 -32 -12 -41 6 -28
-30 -109 -72 -163 -23 -28 -38 -56 -34 -64 3 -10 -1 -15 -11 -15 -10 0 -22
-13 -27 -30 -6 -16 -15 -30 -21 -30 -5 0 -7 -4 -4 -9 3 -4 -6 -13 -21 -20 -20
-9 -23 -15 -15 -23 19 -19 14 -26 -15 -30 -23 -2 -28 -8 -25 -26 1 -17 -4 -25
-18 -29 -11 -3 -20 -12 -20 -19 0 -8 -7 -14 -15 -14 -8 0 -17 0 -20 0 -3 0
-14 -9 -25 -20 -11 -11 -29 -20 -40 -20 -11 0 -20 -4 -20 -10 0 -5 5 -10 11
-10 23 0 1 -25 -27 -30 -18 -3 -29 -11 -29 -22 0 -25 -13 -33 -58 -37 -5 -1
-5 -5 -2 -11 3 -5 0 -7 -8 -5 -8 4 -19 -6 -28 -22 -15 -30 -25 -45 -49 -71 -8
-10 -22 -36 -29 -60 -20 -58 -10 -66 117 -92 179 -36 284 -88 408 -204 45 -41
102 -106 128 -143 126 -185 184 -454 152 -698 -23 -173 -33 -221 -57 -293 -16
-46 -27 -88 -24 -92 3 -5 -3 -24 -14 -44 -11 -19 -22 -52 -25 -73 -3 -21 -15
-83 -27 -138 -19 -92 -20 -115 -13 -295 12 -280 9 -718 -5 -840 -6 -58 -14
-144 -17 -190 -3 -47 -6 -98 -8 -115 -2 -16 -9 -83 -15 -149 -6 -65 -13 -121
-15 -125 -11 -16 -17 -334 -17 -791 0 -412 3 -512 17 -595 9 -55 17 -119 19
-143 1 -23 7 -48 13 -55 5 -6 15 -30 22 -52 40 -126 150 -258 280 -335 77 -46
137 -69 285 -110 143 -39 225 -73 305 -126 92 -60 232 -202 275 -278 78 -140
117 -356 81 -446 -9 -23 -14 -51 -11 -62 4 -10 3 -24 -2 -31 -5 -7 -16 -32
-23 -56 -8 -26 -22 -46 -32 -49 -10 -2 -18 -9 -18 -16 0 -6 -14 -29 -30 -50
-17 -22 -30 -45 -30 -52 0 -7 -9 -16 -20 -19 -11 -3 -20 -11 -20 -17 0 -13
-24 -32 -73 -59 -25 -13 -37 -25 -33 -35 4 -10 -2 -14 -23 -14 -20 0 -30 -6
-34 -20 -6 -24 -67 -53 -83 -39 -8 6 -14 4 -17 -5 -3 -8 -2 -16 3 -18 6 -2 6
-9 0 -18 -7 -12 -12 -12 -22 -2 -14 14 -48 16 -48 2 0 -13 -50 -38 -90 -45
-18 -3 -41 -10 -51 -16 -11 -5 -19 -7 -19 -5 0 3 -16 -6 -36 -19 -20 -14 -44
-25 -54 -25 -17 0 -99 -54 -111 -73 -4 -5 -16 -6 -28 -2 -15 4 -23 1 -27 -10
-4 -9 -21 -31 -39 -48 -39 -39 -115 -142 -115 -156 0 -6 -9 -16 -20 -23 -11
-7 -20 -17 -20 -22 0 -17 -32 -45 -46 -39 -8 3 -20 -7 -31 -24 -10 -19 -30
-34 -52 -40 -20 -6 -61 -20 -91 -32 -34 -13 -78 -21 -117 -21 -34 0 -65 -5
-68 -10 -4 -7 -14 -6 -28 2 -12 6 -24 11 -27 11 -3 0 -15 3 -28 8 -13 5 -30 9
-39 9 -21 0 -123 52 -123 62 0 4 -6 8 -14 8 -8 0 -43 19 -78 42 -35 24 -80 52
-101 63 -20 11 -37 23 -37 27 0 5 -6 8 -14 8 -7 0 -44 16 -82 36 -73 38 -162
68 -231 79 -24 4 -43 11 -43 16 0 5 -8 9 -17 9 -35 0 -188 43 -199 57 -7 8
-40 18 -75 24 -35 6 -69 15 -76 21 -19 15 -261 18 -298 3 -16 -6 -36 -10 -42
-8 -7 3 -13 -1 -13 -9 0 -10 -3 -9 -10 2 -6 9 -10 10 -10 3 0 -6 -17 -17 -37
-23 -21 -7 -45 -19 -55 -27 -11 -10 -34 -14 -67 -12 -30 2 -56 -2 -63 -9 -7
-7 -25 -12 -41 -12 -20 0 -30 -6 -34 -19 -3 -11 -12 -18 -21 -16 -10 1 -27 -1
-39 -6 -12 -4 -40 -9 -63 -11 -22 -1 -40 -5 -40 -8 0 -4 -6 -7 -12 -8 -23 -1
-52 -10 -98 -29 -65 -26 -400 -27 -509 0 -41 10 -79 21 -85 25 -6 3 -22 8 -36
10 -14 2 -32 10 -41 18 -9 8 -33 19 -53 25 -20 5 -36 16 -36 23 0 15 -27 29
-40 21 -15 -9 -160 166 -208 253 -16 29 -101 102 -150 130 -13 7 -42 15 -65
19 -22 3 -59 12 -80 19 -22 8 -48 14 -59 14 -11 0 -32 6 -46 13 -15 8 -45 23
-67 33 -48 23 -137 112 -172 171 -40 68 -93 257 -93 332 0 127 93 253 238 322
117 55 137 72 177 151 56 109 88 151 155 201 85 64 143 82 262 81 53 0 111 -7
130 -14 47 -18 96 -39 146 -63 80 -36 185 -4 246 76 40 52 132 253 162 352
l27 90 1 485 c2 368 6 527 19 660 14 144 17 287 16 805 0 455 -4 640 -12 665
-13 39 -45 51 -67 25 -7 -8 -18 -15 -25 -15 -11 0 -27 -25 -39 -62 -2 -9 -17
-18 -33 -20 -20 -2 -29 -9 -31 -26 -4 -25 -31 -39 -88 -46 -108 -14 -258 115
-294 252 -16 60 -14 171 5 286 8 54 12 115 9 135 -8 43 -31 91 -44 91 -5 0
-11 9 -15 19 -3 11 -18 24 -33 30 -91 38 -229 170 -278 267 -28 56 -29 61 -29
213 l0 156 35 70 c69 140 135 215 295 333 6 4 38 22 72 40 104 55 194 73 418
82 217 9 239 14 381 84 109 53 134 99 100 181 -13 29 -57 96 -76 115 -10 10
-65 85 -75 102 -5 10 -31 53 -56 95 -87 145 -108 188 -143 293 -142 429 -84
722 204 1033 104 113 260 214 440 285 41 16 172 62 290 102 316 106 502 183
665 273 96 53 105 60 127 97 12 19 33 47 46 63 l26 27 141 0 c141 0 141 0 167
-27z"/>
</g>
</svg>
