<?xml version="1.0" standalone="no"?>
<!DOCTYPE svg PUBLIC "-//W3C//DTD SVG 20010904//EN"
 "http://www.w3.org/TR/2001/REC-SVG-20010904/DTD/svg10.dtd">
<svg version="1.0" xmlns="http://www.w3.org/2000/svg"
 width="1024.000000pt" height="1024.000000pt" viewBox="0 0 1024.000000 1024.000000"
 preserveAspectRatio="xMidYMid meet">
<metadata>
Created by potrace 1.16, written by Peter Selinger 2001-2019
</metadata>
<g transform="translate(0.000000,1024.000000) scale(0.100000,-0.100000)"
fill="#000000" stroke="none">
<path d="M0 5120 l0 -5120 5120 0 5120 0 0 5120 0 5120 -5120 0 -5120 0 0
-5120z m3180 3849 c51 -6 143 -30 231 -59 171 -58 289 -75 452 -66 127 7 202
22 352 69 176 55 216 62 395 61 143 0 180 -4 275 -27 278 -66 340 -79 485 -98
122 -17 210 -22 415 -23 362 -1 508 18 860 114 107 29 136 32 260 34 105 1
173 -5 271 -22 104 -18 168 -22 312 -22 192 1 215 -3 257 -50 17 -19 20 -36
20 -114 l-1 -91 -77 -173 c-42 -95 -86 -205 -97 -245 -24 -87 -41 -234 -35
-291 40 -339 40 -411 3 -496 -27 -63 -55 -90 -93 -90 -97 0 -136 184 -101 478
14 116 15 159 7 232 -34 275 -154 410 -271 304 -76 -68 -122 -206 -156 -458
-26 -201 -29 -330 -9 -519 16 -150 17 -186 6 -246 -23 -127 -81 -205 -138
-185 -31 11 -67 60 -84 113 -22 70 -22 237 0 391 31 221 34 267 22 370 -15
135 -27 169 -76 217 -39 40 -46 43 -97 43 -42 0 -64 -6 -99 -28 -223 -142
-353 -727 -294 -1322 8 -80 27 -235 44 -345 76 -516 68 -702 -54 -1260 -162
-738 -177 -908 -105 -1187 25 -98 53 -161 135 -303 72 -125 115 -225 148 -343
18 -66 21 -104 21 -272 0 -194 0 -196 -38 -340 -34 -129 -37 -155 -34 -235 5
-111 31 -166 112 -243 69 -66 156 -107 266 -128 237 -44 280 -60 387 -142 33
-26 91 -70 128 -99 70 -55 145 -88 230 -104 28 -4 149 -16 270 -24 335 -24
519 -55 583 -100 33 -24 29 -61 -10 -85 -40 -24 -94 -35 -263 -55 -71 -8 -147
-19 -167 -25 -54 -16 -78 -51 -78 -117 0 -47 -4 -59 -28 -83 -84 -83 -439
-112 -987 -81 -307 17 -506 -4 -787 -85 -204 -58 -275 -69 -473 -69 -209 0
-277 12 -480 83 -200 69 -258 82 -395 89 -116 5 -145 2 -400 -40 -467 -77
-652 -91 -1200 -91 -423 0 -574 7 -810 40 -190 27 -262 65 -262 138 0 43 12
60 71 97 66 43 174 74 417 123 121 24 238 53 260 64 21 11 72 50 112 86 117
106 178 129 407 151 182 18 262 35 353 73 155 65 244 148 315 295 84 173 195
513 248 762 20 94 24 138 24 305 0 296 -18 389 -140 705 -126 329 -163 484
-172 725 -10 261 20 394 172 775 149 375 188 545 188 820 -1 247 -25 374 -121
627 -98 256 -113 340 -110 588 2 165 -6 213 -45 271 -69 102 -161 99 -208 -7
-41 -90 -79 -483 -79 -806 0 -332 -23 -465 -91 -523 -78 -65 -150 7 -180 180
-9 52 -10 120 -3 260 12 252 9 814 -5 1045 -17 274 -40 365 -109 442 -65 73
-163 101 -257 74 -152 -45 -202 -183 -171 -473 34 -317 6 -524 -76 -552 -72
-25 -123 51 -141 210 -9 77 -7 136 6 295 38 438 19 577 -101 763 -23 35 -44
79 -48 98 -8 42 9 103 34 127 32 28 121 54 278 80 223 38 292 42 424 25z"/>
</g>
</svg>
