<?xml version="1.0" standalone="no"?>
<!DOCTYPE svg PUBLIC "-//W3C//DTD SVG 20010904//EN"
 "http://www.w3.org/TR/2001/REC-SVG-20010904/DTD/svg10.dtd">
<svg version="1.0" xmlns="http://www.w3.org/2000/svg"
 width="1024.000000pt" height="1024.000000pt" viewBox="0 0 1024.000000 1024.000000"
 preserveAspectRatio="xMidYMid meet">
<metadata>
Created by potrace 1.16, written by Peter Selinger 2001-2019
</metadata>
<g transform="translate(0.000000,1024.000000) scale(0.100000,-0.100000)"
fill="#000000" stroke="none">
<path d="M0 5120 l0 -5120 5120 0 5120 0 0 5120 0 5120 -5120 0 -5120 0 0
-5120z m7825 4832 c121 -26 262 -74 332 -114 194 -107 269 -216 267 -388 0
-74 -4 -93 -32 -150 -17 -36 -42 -77 -54 -91 -61 -70 -155 -174 -169 -188 -53
-54 -129 -199 -153 -292 -72 -281 -55 -688 45 -1044 72 -253 86 -318 100 -446
9 -85 9 -135 1 -187 -36 -246 -226 -364 -427 -266 -193 95 -243 333 -141 660
44 141 95 354 112 468 25 171 7 438 -37 518 -5 10 -9 24 -9 31 0 21 -60 106
-86 124 -13 8 -32 12 -44 8 -28 -9 -90 -96 -124 -175 -15 -36 -32 -74 -37 -85
-18 -39 -61 -181 -90 -299 -116 -462 -133 -945 -59 -1681 61 -595 74 -866 67
-1295 -11 -579 -64 -1002 -182 -1440 -14 -52 -30 -112 -35 -132 -17 -65 -97
-298 -141 -413 l-43 -110 0 -160 c0 -149 2 -168 32 -280 42 -154 50 -245 28
-311 -30 -89 -93 -141 -182 -150 -110 -11 -202 60 -239 184 -20 67 -36 67
-103 0 -74 -75 -94 -101 -140 -178 -64 -107 -84 -176 -89 -315 -6 -142 8 -232
70 -440 37 -125 41 -151 41 -245 0 -94 -3 -111 -28 -167 -32 -70 -95 -135
-154 -160 -52 -22 -157 -19 -212 5 -145 64 -200 229 -150 452 57 259 29 360
-103 360 -55 0 -100 -22 -135 -66 -33 -42 -48 -97 -51 -189 -4 -139 -56 -221
-147 -231 -69 -7 -116 22 -174 108 -60 90 -81 109 -118 110 -59 2 -88 -44
-100 -159 -11 -100 0 -212 38 -393 16 -80 30 -168 30 -197 0 -130 -52 -240
-137 -290 -41 -24 -58 -28 -123 -28 -57 0 -85 6 -115 22 -71 37 -117 100 -140
190 -21 81 -19 125 12 315 25 153 26 173 16 257 -25 195 -115 292 -274 292
-87 0 -143 -24 -198 -87 -62 -70 -69 -172 -28 -364 35 -158 38 -199 26 -285
-13 -98 -41 -159 -98 -214 -107 -104 -299 -120 -430 -36 -110 70 -170 215
-156 374 3 41 22 136 42 210 63 241 75 314 71 437 -4 97 -8 118 -32 167 -49
95 -123 129 -191 87 -40 -25 -57 -53 -74 -125 -34 -141 -138 -216 -258 -186
-146 36 -202 157 -166 358 9 54 17 145 17 203 1 99 -1 110 -31 170 -35 70 -73
106 -141 133 -54 21 -90 21 -144 0 -84 -34 -108 -85 -108 -234 0 -89 -2 -98
-30 -143 -66 -104 -232 -117 -316 -24 -68 74 -77 163 -39 368 24 128 27 161
22 285 -5 143 -24 249 -67 368 -34 96 -77 275 -95 391 -19 128 -21 378 -5 486
70 456 303 794 674 976 61 30 156 66 211 80 91 25 117 27 290 27 174 1 198 -1
286 -25 370 -100 628 -335 733 -667 90 -285 35 -618 -137 -826 -23 -27 -46
-56 -52 -63 -13 -17 -144 -116 -172 -131 -13 -6 -23 -19 -23 -28 0 -34 67
-132 139 -203 112 -109 227 -168 386 -196 257 -46 523 48 713 251 60 63 96
113 169 230 92 147 189 448 233 725 64 404 56 700 -45 1610 -14 124 -29 266
-35 315 -97 885 -85 1494 45 2136 18 91 41 193 49 226 9 34 14 68 10 76 -15
39 -135 58 -211 33 -81 -27 -108 -68 -123 -188 -19 -153 -48 -205 -126 -227
-68 -19 -125 18 -203 131 -60 87 -117 99 -165 35 -30 -40 -34 -184 -10 -304
11 -50 19 -131 19 -188 0 -88 -3 -107 -26 -150 -37 -73 -94 -109 -182 -113
-57 -4 -75 0 -122 22 -127 63 -158 203 -94 441 74 278 77 398 14 540 -92 208
-335 252 -484 89 -74 -81 -95 -154 -87 -298 5 -95 25 -198 49 -256 4 -8 16
-51 28 -95 40 -149 12 -286 -73 -360 -55 -46 -96 -58 -182 -53 -118 8 -192 70
-222 190 -20 75 -15 161 17 323 28 142 30 277 7 326 -23 48 -47 62 -146 87
-143 36 -218 94 -300 227 -90 148 -129 379 -97 587 60 400 314 694 714 827
338 112 689 83 1061 -86 707 -323 1130 -329 1870 -29 446 181 667 251 925 290
157 24 158 24 385 21 167 -3 235 -8 305 -23z"/>
</g>
</svg>
