<?xml version="1.0" standalone="no"?>
<!DOCTYPE svg PUBLIC "-//W3C//DTD SVG 20010904//EN"
 "http://www.w3.org/TR/2001/REC-SVG-20010904/DTD/svg10.dtd">
<svg version="1.0" xmlns="http://www.w3.org/2000/svg"
 width="1024.000000pt" height="1024.000000pt" viewBox="0 0 1024.000000 1024.000000"
 preserveAspectRatio="xMidYMid meet">
<metadata>
Created by potrace 1.16, written by Peter Selinger 2001-2019
</metadata>
<g transform="translate(0.000000,1024.000000) scale(0.100000,-0.100000)"
fill="#000000" stroke="none">
<path d="M0 5120 l0 -5120 5120 0 5120 0 0 5120 0 5120 -5120 0 -5120 0 0
-5120z m6450 4866 c84 -49 109 -73 169 -162 64 -96 126 -235 187 -425 66 -205
103 -306 178 -490 31 -75 68 -180 82 -235 22 -87 25 -114 21 -224 -3 -95 -10
-140 -27 -188 -24 -69 -101 -192 -146 -234 -51 -47 -136 -97 -193 -113 -146
-43 -154 -51 -149 -159 4 -81 15 -92 92 -100 410 -38 618 -69 753 -111 148
-46 254 -139 284 -248 16 -60 6 -172 -21 -234 -28 -65 -81 -114 -166 -155 -81
-39 -124 -86 -157 -174 -94 -248 -120 -693 -132 -2259 -9 -1227 -26 -1463
-127 -1775 -68 -211 -115 -301 -391 -746 -267 -432 -298 -544 -246 -882 25
-163 21 -248 -15 -327 -55 -121 -201 -151 -302 -62 -73 63 -85 110 -84 330 0
194 -7 240 -46 287 -46 54 -102 38 -183 -52 -44 -50 -139 -95 -226 -108 -139
-21 -192 -51 -220 -125 -18 -46 -18 -67 1 -301 11 -129 -27 -237 -96 -278 -42
-24 -127 -23 -178 3 -89 46 -123 147 -104 315 17 142 15 197 -8 259 -20 52
-63 103 -107 126 -54 28 -147 6 -194 -45 -38 -41 -50 -85 -59 -199 -8 -115
-28 -168 -74 -196 -77 -47 -175 -1 -209 96 -8 22 -17 61 -21 87 -8 56 -34 92
-58 83 -32 -13 -43 -64 -38 -180 10 -233 5 -325 -19 -389 -43 -110 -130 -176
-232 -176 -57 0 -154 54 -190 106 -77 112 -93 242 -59 464 27 177 29 354 5
471 -22 109 -71 234 -106 273 -25 28 -29 29 -43 16 -9 -9 -24 -47 -34 -86 -28
-113 -73 -155 -169 -157 -87 -3 -156 52 -184 144 -5 19 -14 113 -19 209 -11
210 -20 244 -115 460 -114 257 -132 328 -122 489 8 136 45 233 133 350 119
159 387 305 627 342 105 16 256 6 330 -21 175 -66 236 -164 237 -380 1 -196
45 -316 152 -416 74 -68 134 -99 257 -132 84 -22 116 -25 256 -25 180 0 269
17 382 74 88 45 133 87 212 198 201 281 266 508 291 1006 13 257 13 1652 0
1985 -12 314 -23 433 -61 670 -36 228 -77 362 -126 419 -44 52 -81 71 -249
126 -74 25 -158 57 -186 71 -162 82 -240 257 -193 431 23 86 80 145 186 196
115 56 239 79 534 102 339 26 558 43 618 49 52 6 67 21 67 69 0 62 -38 192
-64 216 -13 12 -52 27 -96 36 -168 34 -288 126 -358 273 -30 63 -36 87 -40
165 -9 186 61 350 260 607 246 317 317 468 321 675 1 103 -29 232 -69 291 -13
19 -24 37 -24 39 0 14 33 1 100 -39z"/>
</g>
</svg>
