<?xml version="1.0" standalone="no"?>
<!DOCTYPE svg PUBLIC "-//W3C//DTD SVG 20010904//EN"
 "http://www.w3.org/TR/2001/REC-SVG-20010904/DTD/svg10.dtd">
<svg version="1.0" xmlns="http://www.w3.org/2000/svg"
 width="1024.000000pt" height="1024.000000pt" viewBox="0 0 1024.000000 1024.000000"
 preserveAspectRatio="xMidYMid meet">
<metadata>
Created by potrace 1.16, written by Peter Selinger 2001-2019
</metadata>
<g transform="translate(0.000000,1024.000000) scale(0.100000,-0.100000)"
fill="#000000" stroke="none">
<path d="M0 5120 l0 -5120 5120 0 5120 0 0 5120 0 5120 -5120 0 -5120 0 0
-5120z m3410 4551 c474 -65 804 -193 1022 -399 155 -146 228 -278 236 -422 6
-114 -13 -176 -88 -283 -67 -97 -103 -165 -119 -223 -6 -22 -15 -164 -20 -315
-10 -292 -15 -327 -90 -621 l-29 -117 -3 -582 -3 -582 28 -23 c34 -30 84 -31
120 -3 42 33 288 345 383 486 47 70 115 189 151 263 35 74 77 162 93 195 45
96 121 179 232 252 62 41 111 82 133 111 59 81 181 340 240 512 72 211 118
306 206 421 l69 93 -4 65 c-2 36 -23 145 -46 241 -48 195 -54 272 -27 363 45
155 209 311 418 399 173 73 352 107 599 115 288 9 547 -23 817 -102 411 -120
714 -287 944 -521 135 -138 190 -214 261 -362 35 -73 40 -93 45 -175 4 -75 0
-107 -18 -172 -31 -112 -47 -139 -145 -246 -93 -101 -136 -169 -184 -292 l-31
-78 0 -240 c1 -217 -1 -243 -19 -284 -27 -61 -70 -87 -136 -82 -63 4 -104 33
-155 107 -39 59 -60 124 -60 190 0 55 -34 90 -86 90 -34 0 -47 -10 -146 -107
-119 -117 -150 -161 -179 -254 -32 -101 -21 -229 38 -454 49 -189 32 -359 -46
-446 -67 -75 -166 -65 -249 25 -81 89 -87 109 -87 274 0 139 -1 144 -24 163
-29 23 -78 25 -111 2 -126 -84 -518 -402 -588 -477 -94 -102 -201 -271 -232
-371 -8 -25 -15 -133 -19 -285 -6 -226 -8 -248 -28 -290 -39 -78 -106 -100
-188 -60 -65 32 -155 150 -181 239 -35 116 -90 130 -205 50 -96 -67 -129 -98
-195 -187 -134 -176 -134 -189 -14 -320 216 -236 581 -533 770 -627 41 -20 98
-54 125 -74 160 -118 364 -240 635 -380 207 -107 232 -122 310 -196 168 -159
281 -237 427 -296 81 -33 115 -52 165 -98 51 -47 102 -77 268 -158 309 -152
379 -204 504 -372 147 -196 145 -393 -7 -696 -49 -99 -142 -233 -178 -258 -10
-8 -66 -65 -124 -128 -140 -151 -172 -212 -181 -340 -5 -78 -2 -109 16 -184
48 -197 -5 -310 -145 -310 -75 0 -112 21 -167 94 -76 100 -81 171 -27 350 17
54 29 117 29 148 0 47 -4 59 -29 84 -48 47 -134 31 -175 -33 -17 -27 -40 -114
-56 -213 -21 -131 -64 -185 -148 -187 -57 -2 -106 25 -152 83 -53 67 -62 91
-89 224 -53 269 -113 384 -258 494 -32 25 -107 98 -168 162 -112 121 -140 139
-206 139 -53 0 -66 -7 -98 -54 -16 -22 -50 -63 -75 -91 -26 -29 -52 -69 -60
-95 -28 -89 -39 -307 -33 -608 7 -298 3 -342 -35 -417 -36 -69 -100 -97 -174
-76 -43 12 -75 38 -115 91 -69 93 -81 166 -54 345 20 134 17 314 -10 475 -22
136 -39 179 -110 285 -75 112 -115 226 -115 325 0 84 -20 162 -71 269 -54 115
-74 139 -192 228 -145 109 -250 203 -343 307 -95 107 -169 176 -275 257 -93
71 -224 191 -303 279 -32 36 -78 85 -102 109 -24 24 -44 48 -44 53 0 16 -65
48 -98 48 -51 0 -65 -12 -120 -107 -83 -144 -87 -189 -43 -459 17 -98 35 -229
41 -291 21 -225 66 -420 108 -467 10 -12 54 -61 99 -111 91 -102 205 -252 234
-307 59 -115 71 -244 31 -333 -27 -59 -82 -119 -137 -148 -34 -18 -56 -21
-150 -21 -73 1 -132 7 -175 19 -36 10 -97 20 -135 22 -62 4 -74 2 -99 -18 -53
-42 -65 -88 -66 -244 -1 -193 -28 -280 -102 -325 -77 -47 -175 -14 -239 79
-46 66 -59 121 -59 249 0 72 -4 103 -16 120 -36 52 -125 68 -192 33 -20 -11
-81 -68 -136 -127 -184 -200 -203 -299 -111 -579 47 -143 61 -245 47 -331 -29
-175 -121 -251 -256 -212 -53 15 -154 116 -190 189 -57 117 -56 223 2 444 22
84 26 122 27 235 0 157 -11 189 -83 228 -36 20 -61 24 -160 28 -149 7 -202 18
-280 61 -227 125 -376 400 -328 606 22 93 54 144 162 256 50 53 96 105 101
116 19 36 62 247 75 370 15 151 15 515 -1 660 -22 202 -52 388 -98 620 -52
257 -58 351 -29 450 10 32 24 68 32 79 24 35 16 120 -40 433 -74 407 -75 419
-42 516 21 62 26 97 26 171 0 98 -16 368 -26 445 -7 54 -41 91 -83 91 -46 0
-60 -9 -95 -65 -36 -55 -98 -95 -147 -95 -48 0 -111 42 -153 103 -59 85 -61
141 -7 357 22 91 45 197 51 235 14 101 12 282 -5 442 -25 239 -24 255 13 297
17 20 34 46 37 59 10 39 -24 624 -39 666 -22 64 -66 133 -121 186 -71 69 -164
206 -192 282 -102 281 114 559 559 722 205 75 382 112 738 155 90 11 522 -4
660 -23z"/>
</g>
</svg>
