<?xml version="1.0" standalone="no"?>
<!DOCTYPE svg PUBLIC "-//W3C//DTD SVG 20010904//EN"
 "http://www.w3.org/TR/2001/REC-SVG-20010904/DTD/svg10.dtd">
<svg version="1.0" xmlns="http://www.w3.org/2000/svg"
 width="1024.000000pt" height="1024.000000pt" viewBox="0 0 1024.000000 1024.000000"
 preserveAspectRatio="xMidYMid meet">
<metadata>
Created by potrace 1.16, written by Peter Selinger 2001-2019
</metadata>
<g transform="translate(0.000000,1024.000000) scale(0.100000,-0.100000)"
fill="#000000" stroke="none">
<path d="M0 5120 l0 -5120 5120 0 5120 0 0 5120 0 5120 -5120 0 -5120 0 0
-5120z m3429 4600 c254 -31 507 -120 655 -234 19 -14 37 -26 39 -26 22 0 244
-224 297 -300 14 -19 27 -37 30 -40 28 -28 98 -144 142 -235 16 -33 33 -68 38
-77 25 -45 77 -219 105 -353 56 -266 67 -700 26 -1005 -15 -111 -50 -420 -61
-535 -5 -55 -18 -165 -29 -245 -11 -80 -22 -188 -26 -240 -3 -52 -8 -117 -10
-145 -2 -27 -7 -113 -10 -190 -7 -134 -6 -142 17 -183 23 -45 53 -61 131 -76
68 -12 382 91 443 145 11 11 26 19 32 19 7 0 12 3 12 8 0 4 13 13 28 20 48 21
231 202 283 279 27 40 49 74 49 77 0 3 20 48 45 101 70 148 92 200 100 236 4
19 13 41 20 49 7 8 16 29 19 45 4 17 40 98 80 180 106 217 214 365 378 515 51
47 109 97 128 110 19 13 50 37 69 53 46 40 237 130 351 166 169 54 391 74 525
48 44 -9 105 -19 135 -23 30 -3 66 -12 80 -19 14 -7 41 -16 60 -20 32 -6 125
-44 160 -66 8 -5 41 -21 73 -36 31 -14 57 -30 57 -35 0 -4 5 -8 11 -8 6 0 24
-10 39 -22 16 -13 47 -34 70 -48 24 -14 93 -75 154 -136 142 -143 147 -149
182 -214 16 -30 31 -57 34 -60 16 -16 71 -104 100 -160 18 -36 41 -78 50 -95
9 -16 20 -43 23 -60 4 -16 16 -61 27 -100 15 -49 23 -112 27 -211 7 -178 -4
-264 -63 -504 -14 -58 -30 -124 -36 -148 -12 -52 -6 -159 14 -233 16 -59 16
-70 3 -131 -5 -26 -20 -48 -49 -73 -60 -52 -62 -54 -90 -61 -61 -15 -94 -120
-97 -306 -2 -112 -1 -118 24 -157 36 -54 67 -134 67 -172 0 -17 -10 -52 -21
-79 -28 -64 -86 -105 -164 -114 -56 -6 -114 9 -129 33 -4 6 -12 8 -18 5 -7 -4
-8 -2 -4 4 4 7 3 12 -2 12 -4 0 -23 20 -42 45 -19 25 -39 45 -44 45 -10 0 -26
21 -69 92 -23 37 -21 125 3 213 30 109 27 211 -12 338 -13 43 -43 50 -73 17
-10 -11 -24 -20 -30 -20 -14 0 -95 -85 -95 -99 0 -5 -6 -16 -13 -23 -7 -7 -33
-40 -59 -73 -25 -34 -54 -67 -64 -75 -9 -8 -41 -44 -69 -80 -63 -77 -203 -222
-239 -246 -14 -9 -26 -20 -26 -25 0 -12 -46 -56 -94 -91 -85 -61 -208 -183
-231 -229 -20 -39 -22 -52 -14 -88 16 -70 58 -139 174 -282 25 -31 45 -60 45
-65 0 -15 208 -234 321 -338 35 -33 109 -102 164 -155 55 -53 139 -129 185
-169 171 -148 470 -459 470 -488 0 -5 16 -31 35 -58 19 -27 35 -55 35 -62 0
-7 11 -26 25 -42 14 -17 25 -33 25 -36 0 -4 11 -23 24 -44 36 -54 74 -177 80
-258 11 -128 -24 -345 -60 -375 -8 -6 -14 -17 -14 -25 0 -33 -88 -163 -169
-249 -38 -41 -100 -127 -142 -200 -58 -99 -97 -372 -71 -500 13 -66 33 -145
43 -170 25 -63 33 -157 18 -202 -19 -58 -55 -99 -113 -127 -100 -49 -225 -28
-297 51 -15 15 -38 40 -51 54 -35 38 -83 118 -103 172 -16 41 -16 56 -6 125 7
42 18 100 26 127 7 28 16 93 20 146 8 120 3 126 -87 110 -35 -6 -76 -12 -93
-13 -16 -2 -36 -11 -44 -21 -17 -24 -18 -149 -1 -245 15 -84 2 -168 -30 -197
-24 -22 -104 -43 -137 -37 -34 6 -172 135 -201 187 -19 35 -21 146 -3 212 19
69 -15 250 -56 295 -21 23 -45 23 -60 -1 -41 -66 -198 -68 -245 -3 -24 34 -87
69 -116 65 -145 -20 -206 -2 -312 92 -82 73 -240 241 -240 256 0 4 -11 16 -25
27 -14 11 -25 27 -25 35 0 8 -10 21 -23 29 -12 9 -29 28 -37 44 -8 16 -23 36
-32 46 -10 10 -18 25 -18 35 0 9 -7 23 -16 32 -48 49 -161 258 -206 381 -11
30 -24 60 -28 65 -4 6 -13 28 -20 50 -13 40 -44 115 -61 147 -5 10 -9 22 -9
27 0 25 -148 333 -183 381 -45 62 -108 130 -120 130 -5 0 -15 7 -23 15 -20 19
-73 33 -164 41 -108 9 -175 -18 -234 -93 -63 -79 -78 -145 -73 -309 4 -145 19
-260 42 -341 9 -30 14 -57 12 -59 -2 -3 2 -30 9 -62 18 -74 18 -225 0 -283
-28 -92 -78 -166 -137 -204 -96 -61 -102 -72 -87 -158 16 -84 6 -151 -29 -200
-25 -34 -43 -47 -99 -67 -38 -14 -74 -28 -79 -31 -6 -3 -23 -9 -39 -13 -46
-11 -97 -72 -129 -156 -28 -70 -30 -83 -29 -215 0 -106 6 -176 26 -290 48
-268 48 -284 14 -415 -22 -85 -114 -160 -211 -173 -57 -8 -127 9 -161 38 -16
13 -37 27 -47 30 -11 4 -19 14 -19 23 0 9 -26 44 -56 77 -89 95 -124 180 -124
303 0 80 29 262 60 376 46 168 74 450 56 569 -10 64 -48 104 -106 110 -25 3
-54 8 -66 12 -15 4 -30 -1 -51 -19 -17 -14 -38 -26 -47 -26 -9 0 -21 -11 -25
-23 -5 -13 -15 -30 -23 -38 -8 -8 -26 -40 -41 -71 -23 -51 -26 -69 -25 -150 0
-51 1 -131 2 -178 1 -99 -15 -131 -75 -149 -49 -15 -65 -14 -107 6 -51 23 -72
43 -72 68 0 14 -11 26 -34 38 -75 35 -113 126 -98 234 8 59 2 93 -17 93 -5 0
-11 -10 -14 -23 -45 -179 -47 -285 -9 -397 33 -98 36 -215 8 -278 -29 -63 -90
-97 -176 -97 -59 1 -123 21 -140 45 -3 4 -34 40 -70 79 -72 81 -79 91 -97 141
-17 46 -16 94 1 133 48 111 51 128 51 292 0 151 -1 162 -24 198 -27 44 -66 58
-85 31 -22 -29 -92 -45 -148 -33 -50 11 -69 26 -154 122 -70 80 -89 130 -87
222 3 82 -1 96 -49 175 -41 69 -68 205 -72 375 -7 221 24 418 123 795 48 186
77 286 87 301 3 6 14 41 24 78 10 36 39 125 64 196 26 72 56 162 67 200 35
123 100 359 109 395 5 19 14 53 19 75 6 22 20 90 31 150 67 364 83 542 81 879
-1 149 -4 272 -5 275 -2 3 -9 56 -15 116 -6 61 -16 133 -21 160 -5 28 -19 104
-31 170 -12 66 -28 147 -36 180 -8 33 -23 94 -33 136 -9 42 -24 96 -33 120 -8
24 -20 64 -27 89 -14 51 -29 97 -109 335 -32 94 -63 188 -69 210 -6 22 -17 65
-26 95 -8 30 -18 73 -22 95 -3 22 -13 65 -21 95 -42 153 -56 266 -59 465 -3
191 4 288 36 450 20 104 80 273 121 343 55 93 143 228 155 237 7 6 26 26 41
46 26 33 156 149 168 149 3 0 32 20 65 44 85 63 218 127 330 160 52 15 118 34
146 42 122 36 371 52 523 34z"/>
</g>
</svg>
