<?xml version="1.0" standalone="no"?>
<!DOCTYPE svg PUBLIC "-//W3C//DTD SVG 20010904//EN"
 "http://www.w3.org/TR/2001/REC-SVG-20010904/DTD/svg10.dtd">
<svg version="1.0" xmlns="http://www.w3.org/2000/svg"
 width="1024.000000pt" height="1024.000000pt" viewBox="0 0 1024.000000 1024.000000"
 preserveAspectRatio="xMidYMid meet">
<metadata>
Created by potrace 1.16, written by Peter Selinger 2001-2019
</metadata>
<g transform="translate(0.000000,1024.000000) scale(0.100000,-0.100000)"
fill="#000000" stroke="none">
<path d="M0 5120 l0 -5120 5120 0 5120 0 0 5120 0 5120 -5120 0 -5120 0 0
-5120z m4775 4690 c39 -5 144 -14 235 -19 600 -38 933 -80 1057 -134 31 -14
125 -68 133 -77 3 -3 25 -21 50 -40 64 -50 72 -58 128 -132 99 -131 134 -290
106 -478 -8 -52 -28 -151 -45 -220 -43 -176 -48 -287 -19 -487 22 -154 22
-162 6 -261 -9 -57 -16 -125 -16 -153 0 -58 -24 -111 -78 -171 -43 -48 -85
-68 -143 -68 -84 0 -138 46 -205 173 -20 37 -42 71 -50 74 -8 3 -14 10 -14 17
0 6 -11 21 -24 33 l-23 22 -10 -22 c-11 -25 -11 -33 9 -227 16 -160 16 -232
-1 -530 -14 -257 -10 -554 10 -778 12 -128 8 -305 -11 -477 -5 -55 -11 -176
-12 -270 -1 -147 3 -188 25 -300 95 -469 111 -575 113 -745 1 -91 -4 -217 -11
-280 -16 -144 -12 -343 9 -435 10 -38 30 -142 47 -230 42 -227 66 -294 156
-428 42 -62 95 -154 119 -204 24 -51 48 -93 53 -93 6 0 11 -6 11 -12 1 -18 71
-64 117 -78 21 -6 83 -13 138 -17 140 -8 192 8 279 87 36 32 80 67 97 75 70
36 192 11 286 -60 117 -89 144 -124 184 -242 16 -49 42 -115 58 -148 84 -172
116 -296 116 -450 0 -117 -1 -122 -37 -201 -20 -44 -61 -175 -92 -290 -66
-244 -88 -307 -134 -389 -100 -178 -229 -286 -517 -432 -82 -42 -166 -88 -185
-102 -19 -14 -42 -30 -51 -36 -9 -5 -52 -36 -95 -67 -150 -109 -269 -148 -461
-150 -181 -2 -275 32 -537 195 -81 50 -237 161 -271 194 -94 87 -199 147 -335
190 -93 29 -183 34 -280 14 -103 -20 -166 -23 -223 -8 -97 26 -151 85 -193
215 -32 100 -50 116 -147 133 -96 16 -185 59 -254 122 -58 54 -143 162 -143
183 0 7 -4 14 -9 16 -7 2 -83 142 -86 158 0 3 -9 20 -19 39 -56 106 -69 160
-74 320 -3 116 0 186 13 280 l18 126 -28 55 c-15 30 -35 64 -45 75 -49 56
-114 162 -137 225 -37 98 -38 109 -48 485 -9 312 -5 342 78 520 82 175 137
343 176 533 27 128 30 161 26 257 -5 105 -20 223 -32 255 -3 8 -7 20 -9 25 -2
6 -19 55 -38 110 -42 118 -72 231 -81 300 -16 118 32 471 80 599 29 77 32 120
13 201 -8 35 -14 113 -13 190 0 122 2 134 31 200 16 39 55 107 86 153 66 97
78 134 52 163 -21 23 -38 22 -129 -11 -46 -17 -74 -21 -120 -17 -92 7 -144 39
-201 126 -26 41 -29 53 -32 151 -5 132 6 187 62 310 65 142 70 175 61 374 -4
94 -9 267 -10 385 -3 248 2 236 -103 246 -92 9 -153 32 -215 81 -243 190 -259
675 -34 969 87 112 157 174 259 226 81 41 159 59 258 59 79 0 147 -3 630 -30
201 -12 209 -11 355 43 58 22 87 26 170 26 55 0 132 -4 170 -9z"/>
</g>
</svg>
