<?xml version="1.0" standalone="no"?>
<!DOCTYPE svg PUBLIC "-//W3C//DTD SVG 20010904//EN"
 "http://www.w3.org/TR/2001/REC-SVG-20010904/DTD/svg10.dtd">
<svg version="1.0" xmlns="http://www.w3.org/2000/svg"
 width="1024.000000pt" height="1024.000000pt" viewBox="0 0 1024.000000 1024.000000"
 preserveAspectRatio="xMidYMid meet">
<metadata>
Created by potrace 1.16, written by Peter Selinger 2001-2019
</metadata>
<g transform="translate(0.000000,1024.000000) scale(0.100000,-0.100000)"
fill="#000000" stroke="none">
<path d="M0 5120 l0 -5120 5120 0 5120 0 0 5120 0 5120 -5120 0 -5120 0 0
-5120z m2921 4040 c55 -11 152 -34 217 -51 355 -92 479 -96 678 -24 244 88
390 86 644 -10 248 -95 288 -96 583 -21 304 78 407 96 545 96 174 0 273 -33
356 -117 110 -111 133 -273 60 -430 -60 -131 -66 -184 -39 -348 21 -127 19
-193 -5 -233 -47 -77 -152 -65 -197 22 -13 24 -14 50 -7 155 15 210 9 234 -56
237 -37 1 -64 -20 -91 -73 -22 -45 -24 -59 -24 -200 0 -146 -1 -152 -24 -177
-34 -37 -98 -36 -134 0 -32 32 -42 76 -32 149 l6 55 -40 0 c-58 0 -114 -52
-158 -147 -44 -96 -62 -176 -69 -313 -8 -141 5 -249 50 -428 76 -300 72 -465
-15 -712 -17 -47 -34 -94 -39 -105 -38 -84 -103 -277 -121 -355 -36 -158 -27
-386 25 -600 81 -336 85 -550 22 -1105 -59 -523 -61 -545 -61 -875 1 -334 11
-449 56 -612 38 -136 117 -252 206 -305 85 -50 161 -64 364 -70 273 -8 435 15
616 87 225 90 410 254 577 512 118 185 180 338 305 760 78 263 173 432 298
532 112 88 213 122 342 113 94 -6 155 -31 221 -93 99 -92 130 -181 130 -369 0
-155 -11 -244 -62 -490 -70 -343 -69 -325 -74 -695 -5 -375 -14 -481 -51 -580
-30 -80 -124 -252 -153 -280 -6 -6 -45 -66 -89 -136 -40 -65 -104 -214 -120
-279 -8 -31 -11 -101 -10 -185 7 -289 5 -323 -25 -383 -53 -109 -159 -137
-242 -65 -77 68 -105 168 -97 350 6 132 -3 182 -47 251 -66 105 -182 90 -241
-30 -36 -74 -33 -237 8 -443 51 -255 52 -332 2 -402 -66 -92 -208 -88 -287 8
-58 70 -63 141 -31 388 23 174 21 259 -6 338 -36 102 -130 139 -197 79 l-33
-30 3 -180 c2 -148 0 -186 -13 -211 -30 -58 -112 -77 -172 -40 -64 38 -76 90
-61 252 9 98 9 136 -1 167 -16 53 -89 124 -171 164 -62 31 -69 32 -190 32
-138 0 -185 -12 -348 -86 -115 -53 -193 -76 -310 -89 -167 -20 -243 -4 -508
103 -136 56 -235 77 -360 77 -153 0 -262 -36 -356 -119 -29 -26 -53 -59 -64
-87 -17 -45 -17 -53 5 -236 39 -315 18 -388 -110 -388 -57 0 -94 23 -118 73
-25 51 -26 90 -6 252 17 144 18 217 4 267 -30 109 -148 137 -195 46 -13 -26
-15 -49 -9 -135 8 -121 -1 -152 -50 -183 -39 -24 -66 -25 -109 -5 -58 28 -71
64 -71 197 0 115 -1 118 -28 145 -25 25 -35 28 -110 31 -109 5 -126 -8 -138
-99 -7 -53 -14 -69 -39 -91 -67 -61 -141 -19 -163 92 -12 63 -14 66 -57 86
-160 76 -183 90 -217 128 -95 109 -127 264 -84 406 19 62 31 82 79 130 90 89
138 106 364 129 113 11 169 33 232 91 137 126 216 378 275 875 69 580 85 886
56 1080 -18 122 -41 194 -110 350 -77 174 -96 259 -102 446 -8 230 23 451 102
729 106 373 99 331 98 570 0 231 -1 238 -79 560 -30 124 -32 174 -23 675 3
173 2 184 -25 270 -35 116 -69 177 -133 241 -60 60 -104 78 -178 72 -69 -6
-111 -38 -152 -115 -64 -120 -65 -199 -7 -542 38 -228 40 -263 20 -339 -26
-97 -88 -152 -171 -152 -76 0 -136 46 -177 135 -31 71 -29 167 11 405 26 148
34 227 35 330 1 156 -8 199 -72 350 -71 167 -83 208 -89 310 -6 107 8 177 55
263 49 92 167 181 282 213 70 19 209 17 321 -6z"/>
</g>
</svg>
