<?xml version="1.0" standalone="no"?>
<!DOCTYPE svg PUBLIC "-//W3C//DTD SVG 20010904//EN"
 "http://www.w3.org/TR/2001/REC-SVG-20010904/DTD/svg10.dtd">
<svg version="1.0" xmlns="http://www.w3.org/2000/svg"
 width="1024.000000pt" height="1024.000000pt" viewBox="0 0 1024.000000 1024.000000"
 preserveAspectRatio="xMidYMid meet">
<metadata>
Created by potrace 1.16, written by Peter Selinger 2001-2019
</metadata>
<g transform="translate(0.000000,1024.000000) scale(0.100000,-0.100000)"
fill="#000000" stroke="none">
<path d="M0 5120 l0 -5120 5120 0 5120 0 0 5120 0 5120 -5120 0 -5120 0 0
-5120z m2490 3446 c143 -31 274 -117 334 -220 31 -53 65 -185 77 -299 15 -149
51 -183 189 -181 141 2 299 63 620 239 413 227 605 288 910 289 218 1 364 -31
535 -116 136 -69 210 -131 356 -299 85 -98 123 -134 162 -154 95 -47 119 -38
386 138 235 156 286 186 446 267 253 128 512 196 795 206 290 12 527 -21 801
-110 195 -63 419 -180 514 -267 219 -201 307 -336 394 -604 78 -237 142 -581
156 -830 9 -150 -9 -435 -35 -580 -23 -124 -72 -330 -130 -545 -54 -199 -67
-265 -85 -437 -41 -385 -6 -743 115 -1168 53 -187 63 -257 57 -400 -11 -214
-53 -347 -162 -510 -118 -175 -216 -257 -378 -314 -110 -38 -122 -47 -144 -95
-15 -33 -18 -65 -17 -176 1 -117 25 -338 40 -361 3 -5 5 -46 5 -91 1 -103 -26
-193 -81 -276 -72 -108 -156 -152 -288 -152 -109 0 -163 21 -233 89 -72 71
-99 139 -106 267 -5 88 -4 97 36 212 55 161 81 279 81 380 0 79 -2 85 -29 113
-27 27 -35 29 -105 29 -136 0 -239 34 -334 109 -62 50 -115 126 -182 266 -75
157 -84 195 -84 380 l-1 160 44 110 c86 217 146 472 171 730 12 125 12 597 0
855 -5 107 -14 355 -20 550 -5 195 -15 393 -21 440 -21 171 -112 364 -216 460
-94 86 -265 160 -367 160 -195 -2 -356 -103 -438 -276 -52 -110 -62 -182 -62
-454 -1 -279 13 -394 69 -595 54 -192 58 -227 52 -431 -5 -175 -6 -188 -32
-240 -39 -80 -87 -109 -180 -109 -91 0 -142 22 -179 78 l-28 42 6 162 c6 131
4 168 -8 197 -16 37 -36 46 -55 23 -21 -26 -29 -192 -25 -522 3 -344 5 -403
29 -855 21 -382 35 -583 46 -649 13 -80 11 -120 -7 -181 -54 -181 -299 -205
-385 -38 -25 49 -34 133 -20 186 22 79 -5 134 -57 118 -33 -11 -41 -45 -58
-247 -19 -234 -10 -431 26 -554 32 -111 27 -236 -13 -349 -29 -83 -36 -93 -82
-125 -47 -34 -54 -36 -130 -36 -73 0 -87 3 -131 30 -56 35 -84 73 -115 153
-34 91 -36 172 -5 291 30 118 33 177 9 203 -14 15 -32 18 -122 18 -121 0 -196
18 -286 70 -130 74 -219 204 -246 357 -15 87 -7 450 15 713 41 479 49 683 50
1275 1 670 -16 1023 -57 1182 -30 115 -138 247 -240 293 -125 56 -307 82 -422
61 -112 -20 -253 -142 -320 -275 -44 -89 -126 -316 -146 -405 -34 -154 -43
-341 -30 -576 7 -115 21 -280 31 -365 11 -85 29 -292 40 -460 11 -168 27 -375
36 -460 42 -400 -19 -679 -201 -933 -19 -27 -40 -67 -46 -90 -10 -37 -8 -51
17 -126 54 -156 34 -292 -56 -395 -53 -60 -102 -80 -195 -80 -67 0 -88 4 -131
27 -106 54 -153 159 -139 304 15 154 12 229 -11 260 -27 36 -61 48 -110 39
-115 -22 -239 -275 -251 -513 -6 -104 12 -245 42 -343 69 -221 82 -363 44
-486 -43 -138 -84 -198 -172 -245 -55 -30 -71 -34 -137 -34 -96 0 -147 16
-207 64 -36 28 -57 55 -78 102 -39 87 -43 181 -16 369 58 404 62 521 22 648
-39 126 -85 177 -214 235 -37 17 -81 50 -121 89 -52 52 -68 77 -93 143 -81
212 -83 405 -9 720 81 347 114 630 146 1260 13 255 13 1003 0 1201 -20 307
-31 440 -45 549 -8 61 -22 165 -30 231 -8 67 -31 184 -50 260 -19 75 -42 184
-50 240 -42 264 54 515 274 722 118 111 230 169 398 207 296 66 551 89 683 61z"/>
</g>
</svg>
