<?xml version="1.0" standalone="no"?>
<!DOCTYPE svg PUBLIC "-//W3C//DTD SVG 20010904//EN"
 "http://www.w3.org/TR/2001/REC-SVG-20010904/DTD/svg10.dtd">
<svg version="1.0" xmlns="http://www.w3.org/2000/svg"
 width="1024.000000pt" height="1024.000000pt" viewBox="0 0 1024.000000 1024.000000"
 preserveAspectRatio="xMidYMid meet">
<metadata>
Created by potrace 1.16, written by Peter Selinger 2001-2019
</metadata>
<g transform="translate(0.000000,1024.000000) scale(0.100000,-0.100000)"
fill="#000000" stroke="none">
<path d="M0 5120 l0 -5120 5120 0 5120 0 0 5120 0 5120 -5120 0 -5120 0 0
-5120z m7734 3785 c265 -53 417 -122 578 -260 131 -112 176 -233 165 -450 -3
-60 -13 -137 -21 -170 -30 -118 -56 -295 -56 -383 0 -89 4 -115 40 -282 11
-47 22 -103 26 -125 4 -22 10 -44 14 -50 12 -16 22 -140 22 -264 -1 -110 -2
-118 -34 -180 -33 -66 -74 -99 -122 -101 -76 -1 -160 98 -198 236 -30 109 -29
300 2 474 24 137 40 319 28 326 -5 3 -8 15 -8 27 -1 22 -1 22 -15 3 -8 -11
-15 -16 -15 -10 -1 19 -29 -56 -34 -93 -4 -21 -15 -81 -26 -133 -20 -99 -55
-320 -90 -570 -11 -80 -25 -172 -30 -205 -9 -53 -39 -310 -70 -590 -6 -49 -12
-130 -15 -180 -3 -49 -10 -146 -15 -215 -5 -69 -14 -210 -20 -315 -6 -104 -15
-244 -20 -310 -5 -66 -12 -219 -15 -341 -4 -122 -8 -234 -10 -250 -3 -16 -5
-239 -6 -495 -1 -329 2 -472 10 -487 6 -11 11 -47 11 -79 1 -57 3 -72 34 -203
9 -36 20 -87 27 -115 14 -67 47 -151 78 -200 32 -51 69 -93 200 -231 169 -176
218 -288 209 -471 -6 -125 -41 -184 -173 -291 -21 -18 -198 -122 -250 -147
-22 -11 -44 -25 -50 -31 -15 -17 -75 -46 -170 -83 -194 -75 -272 -132 -296
-219 -17 -63 -15 -101 10 -150 25 -49 27 -102 5 -147 -20 -44 -54 -65 -112
-71 -38 -5 -53 -2 -81 18 -58 39 -71 72 -73 185 -1 84 2 109 22 156 40 95 15
117 -190 172 -151 40 -175 45 -277 60 -112 16 -155 25 -168 35 -5 4 -25 10
-44 14 -62 11 -216 97 -275 151 -31 29 -56 58 -56 64 0 6 -4 11 -9 11 -13 0
-44 57 -65 120 -26 80 -32 240 -13 317 32 121 95 218 194 293 17 13 29 29 26
34 -3 5 -1 6 4 3 10 -6 83 77 83 95 0 20 105 159 170 226 39 39 69 76 65 81
-3 5 0 13 6 17 8 4 9 3 5 -4 -4 -7 -4 -12 -1 -12 3 0 22 35 42 77 58 127 59
136 88 1028 8 251 6 576 -3 610 -9 32 -26 41 -103 50 -70 9 -122 52 -149 125
-21 57 -22 70 -17 268 3 114 13 281 21 372 21 222 21 493 1 551 -22 62 -41 79
-89 79 -85 0 -153 -65 -225 -215 -39 -81 -80 -182 -85 -206 -3 -17 -24 -94
-37 -134 -5 -16 -20 -66 -33 -110 -31 -103 -92 -256 -116 -295 -102 -159 -116
-230 -80 -400 79 -377 103 -550 98 -716 -4 -156 -15 -189 -85 -256 -81 -77
-180 -56 -273 58 -22 26 -60 106 -60 126 0 9 -4 19 -9 22 -12 8 -38 162 -46
271 -16 231 -51 299 -138 266 -91 -35 -111 -359 -46 -739 54 -314 57 -345 55
-447 -5 -176 -77 -316 -181 -356 -73 -28 -127 -25 -195 12 -117 62 -175 157
-192 315 -13 114 -8 157 35 319 45 163 59 278 59 455 0 140 -4 184 -26 285
-32 147 -39 175 -61 245 -16 54 -20 65 -44 123 -6 15 -11 37 -11 48 0 11 -7
22 -15 25 -8 4 -15 12 -15 20 0 8 -10 14 -24 14 -34 0 -46 -42 -46 -162 0
-190 -29 -308 -84 -346 -59 -40 -141 -19 -171 45 -44 92 -55 313 -25 518 26
174 -7 458 -66 580 -13 28 -24 55 -24 60 -1 20 -62 77 -92 86 -67 19 -110 -27
-140 -150 -44 -183 -50 -740 -9 -916 5 -22 17 -101 26 -175 9 -74 20 -160 26
-190 59 -320 46 -440 -54 -516 -52 -39 -91 -48 -172 -39 -155 16 -227 160
-211 422 17 294 19 469 6 582 -7 64 -16 121 -20 126 -4 6 -12 32 -19 58 -18
73 -81 167 -111 167 -9 0 -27 -11 -39 -24 l-23 -25 11 -208 c7 -114 19 -282
27 -373 9 -91 19 -241 24 -335 17 -305 63 -804 97 -1035 4 -25 7 -56 8 -70 5
-58 27 -135 52 -181 29 -54 69 -93 218 -214 268 -218 347 -339 347 -535 0
-124 -43 -223 -134 -310 -75 -71 -119 -98 -230 -144 -114 -48 -141 -62 -165
-88 -32 -36 -53 -114 -53 -201 0 -73 3 -86 45 -173 30 -64 46 -112 49 -149 11
-130 -80 -235 -204 -235 -135 0 -200 88 -200 274 0 43 6 104 14 135 40 157 6
278 -94 329 -43 21 -54 22 -330 22 -368 0 -506 23 -690 112 -158 78 -242 192
-261 355 -12 110 -4 177 31 250 28 60 114 163 155 185 43 24 160 106 192 134
41 38 113 132 113 149 0 7 6 18 14 25 14 10 46 90 74 180 6 19 16 63 21 98 6
34 15 88 21 120 5 31 17 161 26 287 18 248 15 699 -5 930 -6 66 -18 210 -26
320 -9 110 -20 247 -26 305 -5 58 -12 130 -14 160 -5 61 -23 242 -30 305 -2
22 -9 101 -15 175 -15 190 -56 550 -91 800 -11 80 -26 199 -34 265 -8 66 -26
188 -40 270 -14 83 -27 161 -29 175 -3 14 -7 50 -11 80 -4 30 -11 73 -16 95
-6 22 -17 83 -25 135 -8 52 -19 106 -24 120 -4 14 -11 37 -14 51 -4 18 -16 30
-38 39 -204 76 -308 156 -364 280 -27 61 -29 72 -29 200 0 157 12 192 95 284
64 69 107 98 228 151 143 63 323 109 534 137 131 17 611 17 713 0 91 -16 266
-62 340 -90 89 -34 94 -37 182 -94 23 -16 46 -28 51 -28 6 0 12 -3 14 -7 2 -5
25 -26 53 -48 166 -134 294 -302 418 -550 75 -151 89 -187 272 -680 182 -493
268 -688 333 -758 43 -45 105 -70 162 -64 62 7 73 13 144 82 22 23 51 55 63
72 47 66 182 351 198 418 1 6 11 30 22 55 11 25 26 63 33 85 7 22 18 54 25 70
7 17 18 44 23 60 6 17 25 68 42 115 17 47 40 111 50 142 85 247 220 546 311
690 181 285 340 423 640 557 270 121 682 160 1003 96z"/>
</g>
</svg>
