<?xml version="1.0" standalone="no"?>
<!DOCTYPE svg PUBLIC "-//W3C//DTD SVG 20010904//EN"
 "http://www.w3.org/TR/2001/REC-SVG-20010904/DTD/svg10.dtd">
<svg version="1.0" xmlns="http://www.w3.org/2000/svg"
 width="1024.000000pt" height="1024.000000pt" viewBox="0 0 1024.000000 1024.000000"
 preserveAspectRatio="xMidYMid meet">
<metadata>
Created by potrace 1.16, written by Peter Selinger 2001-2019
</metadata>
<g transform="translate(0.000000,1024.000000) scale(0.100000,-0.100000)"
fill="#000000" stroke="none">
<path d="M0 5120 l0 -5120 5120 0 5120 0 0 5120 0 5120 -5120 0 -5120 0 0
-5120z m3763 4015 c294 -77 501 -323 549 -655 9 -65 47 -181 93 -285 21 -48
43 -124 60 -210 25 -125 52 -206 86 -260 52 -81 78 -100 263 -183 103 -47 180
-109 237 -193 66 -97 121 -237 148 -379 30 -148 43 -204 69 -281 45 -130 98
-200 227 -299 138 -105 306 -316 394 -495 85 -172 118 -291 146 -532 25 -217
44 -314 70 -359 24 -41 74 -91 155 -154 149 -117 283 -275 355 -418 56 -114
71 -158 100 -315 42 -221 64 -280 173 -477 80 -144 94 -160 143 -160 32 0 41
5 58 33 19 32 20 43 14 208 -7 192 -5 206 54 399 30 97 36 130 36 215 1 106
-5 127 -65 226 -20 33 -31 70 -39 130 -12 84 -8 151 22 444 13 117 -5 283 -43
400 -32 103 -30 199 6 298 24 65 28 87 23 138 -3 39 -12 69 -24 82 -65 75 -95
192 -82 317 17 163 11 283 -22 427 -29 127 -31 143 -25 267 19 404 19 419 1
506 -18 93 -81 234 -121 271 -16 15 -24 18 -24 9 0 -9 -5 -7 -15 6 -20 26 -32
6 -33 -54 -3 -129 -58 -197 -155 -191 -49 3 -113 47 -129 88 -5 14 -11 104
-13 200 -4 185 -9 223 -32 258 -13 20 -107 71 -161 88 -50 15 -140 85 -170
132 -51 79 -62 116 -62 201 0 85 18 153 57 214 12 21 23 40 23 43 0 12 137
135 150 135 5 0 30 11 57 25 27 13 90 31 139 40 123 22 217 13 368 -36 182
-59 270 -73 382 -60 116 14 347 14 411 1 209 -44 323 -50 444 -24 44 9 79 21
79 25 0 5 9 9 21 9 11 0 33 8 47 18 15 10 42 24 60 31 17 8 32 16 32 20 0 4
28 19 63 34 162 70 400 77 534 16 24 -10 45 -19 48 -19 11 0 112 -75 140 -104
67 -71 79 -90 119 -190 24 -59 21 -202 -5 -263 -26 -63 -79 -139 -104 -152
-11 -6 -29 -17 -40 -23 -64 -41 -126 -78 -131 -78 -18 0 -68 -48 -86 -83 -19
-37 -22 -61 -25 -207 -2 -91 -9 -182 -15 -203 -14 -46 -54 -82 -108 -98 -103
-31 -208 65 -201 183 3 54 -61 77 -107 38 -12 -10 -37 -49 -54 -87 l-32 -68
-7 -235 c-8 -253 -12 -281 -64 -405 -60 -145 -62 -255 -10 -520 20 -102 21
-234 2 -305 -9 -30 -32 -98 -52 -150 -47 -119 -55 -219 -32 -366 48 -292 59
-391 53 -464 -7 -82 -35 -211 -49 -221 -5 -3 -8 -9 -8 -13 1 -3 -6 -23 -14
-44 -41 -97 -43 -163 -6 -330 59 -272 55 -370 -30 -767 -11 -56 -11 -272 2
-320 49 -193 79 -420 78 -590 0 -134 -34 -382 -69 -516 -16 -59 -14 -179 3
-237 9 -29 43 -107 77 -174 82 -165 93 -207 88 -332 -7 -154 -33 -208 -177
-370 -51 -57 -121 -185 -121 -220 0 -29 -64 -161 -102 -209 -21 -27 -38 -53
-38 -58 0 -5 -5 -9 -11 -9 -6 0 -25 -11 -41 -26 -64 -53 -125 -75 -223 -81
-72 -5 -103 -2 -146 12 -58 19 -123 61 -152 98 -67 85 -91 112 -126 142 -55
45 -98 50 -230 29 -104 -16 -112 -16 -173 0 -34 10 -84 32 -110 49 -77 52
-102 113 -119 287 -16 166 -57 293 -116 356 -13 14 -23 29 -23 35 0 5 -4 9
-10 9 -5 0 -10 5 -10 10 0 12 -60 80 -70 80 -4 0 -27 18 -51 41 -24 22 -56 47
-71 55 -16 8 -28 19 -28 24 0 6 -5 10 -12 10 -15 0 -23 7 -153 136 -112 110
-135 145 -208 314 -18 43 -62 182 -72 230 -19 95 -87 252 -120 280 -8 7 -15
16 -15 21 0 5 -15 31 -33 57 -48 68 -91 147 -122 222 -48 117 -117 249 -144
275 -89 84 -115 99 -141 85 -20 -11 -36 -52 -26 -68 12 -19 -27 -114 -60 -148
-30 -29 -41 -34 -83 -34 -52 0 -99 25 -133 70 -17 23 -19 52 -23 310 -5 312
-14 412 -46 504 -31 86 -37 95 -204 270 -89 93 -150 179 -187 262 -53 117 -56
166 -28 432 16 145 9 190 -35 235 -19 19 -47 42 -62 49 -59 30 -129 72 -168
99 -70 48 -183 166 -209 216 -21 41 -54 50 -109 29 -24 -9 -62 -16 -85 -16
-37 0 -50 6 -90 44 l-47 44 -1 159 c-1 111 -8 192 -22 273 -23 126 -42 176
-73 185 -24 8 -69 -2 -69 -14 0 -5 -6 -16 -13 -23 -33 -34 -37 -93 -37 -504 0
-225 -5 -519 -9 -654 -8 -210 -12 -254 -30 -305 -50 -141 -61 -207 -61 -374 0
-142 11 -194 74 -350 85 -207 113 -355 101 -526 -6 -85 -16 -139 -67 -380 -28
-131 -30 -386 -5 -485 54 -210 69 -306 77 -515 5 -115 13 -226 18 -245 24 -96
83 -165 176 -209 71 -34 118 -45 281 -67 232 -32 348 -88 438 -212 114 -156
97 -363 -40 -507 -51 -53 -100 -95 -113 -95 -5 0 -10 -4 -10 -10 0 -5 -7 -10
-15 -10 -9 0 -32 -8 -53 -19 -77 -39 -251 -51 -389 -28 -32 5 -62 13 -68 18
-5 5 -15 9 -22 9 -13 0 -96 34 -123 51 -17 11 -60 30 -75 33 -5 2 -17 5 -25 8
-44 16 -124 26 -176 23 -100 -6 -169 -35 -332 -138 -105 -66 -160 -66 -357 -2
-128 42 -287 42 -329 0 -8 -8 -20 -15 -26 -15 -14 0 -132 -69 -141 -83 -4 -5
-13 -7 -20 -5 -8 3 -27 -2 -44 -10 -48 -24 -185 -21 -272 7 -40 13 -84 31 -97
42 -13 10 -28 19 -33 19 -18 1 -103 88 -132 137 -41 67 -71 172 -71 248 0 88
52 240 94 274 9 8 16 17 16 21 0 31 200 160 246 160 9 0 39 9 67 21 146 59
137 54 245 154 65 61 118 131 127 168 4 15 11 27 16 27 5 0 18 32 30 71 21 68
21 77 9 188 -19 161 -20 353 -4 501 7 69 18 181 24 250 25 290 46 434 84 585
37 142 13 295 -65 422 -62 102 -103 191 -124 273 -29 111 -19 346 19 448 62
165 71 213 71 362 0 104 -6 173 -20 245 -17 86 -20 145 -20 425 -1 236 -6 354
-17 431 -21 146 -11 253 36 378 43 113 46 171 15 353 -21 126 -22 185 -3 455
7 102 -2 153 -42 243 -28 61 -133 169 -168 172 -61 4 -86 -14 -86 -64 0 -55
-58 -113 -128 -129 -37 -8 -92 10 -134 44 -28 22 -48 81 -48 139 0 57 -12 89
-25 68 -6 -9 -9 -9 -15 1 -13 20 -35 -3 -49 -51 -17 -57 -30 -266 -31 -483 0
-223 -11 -279 -65 -326 -71 -62 -156 -62 -223 -1 -64 59 -72 115 -53 360 16
195 14 468 -4 575 -26 158 -16 406 20 510 52 152 179 301 307 359 109 51 153
59 281 54 93 -4 128 -10 207 -38 52 -18 100 -36 105 -40 11 -8 190 -98 220
-111 11 -5 58 -16 105 -25 124 -24 292 -14 409 25 107 36 171 63 171 73 0 5 9
8 20 8 11 0 20 5 20 10 0 6 7 10 17 10 9 0 31 11 49 25 18 14 37 25 43 25 6 0
11 5 11 10 0 6 4 10 10 10 5 0 48 22 95 49 89 51 188 87 277 101 72 12 240 4
311 -15z"/>
</g>
</svg>
