<?xml version="1.0" standalone="no"?>
<!DOCTYPE svg PUBLIC "-//W3C//DTD SVG 20010904//EN"
 "http://www.w3.org/TR/2001/REC-SVG-20010904/DTD/svg10.dtd">
<svg version="1.0" xmlns="http://www.w3.org/2000/svg"
 width="1024.000000pt" height="1024.000000pt" viewBox="0 0 1024.000000 1024.000000"
 preserveAspectRatio="xMidYMid meet">
<metadata>
Created by potrace 1.16, written by Peter Selinger 2001-2019
</metadata>
<g transform="translate(0.000000,1024.000000) scale(0.100000,-0.100000)"
fill="#000000" stroke="none">
<path d="M0 5120 l0 -5120 5120 0 5120 0 0 5120 0 5120 -5120 0 -5120 0 0
-5120z m6127 3769 c253 -28 532 -151 708 -311 240 -218 361 -461 429 -864 52
-307 47 -525 -38 -1499 -61 -693 -70 -1006 -41 -1441 53 -794 185 -1031 535
-957 101 21 225 16 280 -12 57 -28 109 -85 130 -142 52 -140 -1 -300 -166
-503 -127 -156 -207 -268 -235 -328 -52 -110 -59 -156 -61 -417 -3 -235 -4
-241 -28 -285 -14 -24 -41 -55 -60 -68 -30 -20 -43 -23 -92 -19 -71 6 -108 33
-144 105 -24 47 -27 67 -30 168 -3 130 -16 164 -60 164 -33 0 -49 -17 -75 -77
-38 -88 -53 -189 -53 -343 -1 -133 2 -156 33 -275 28 -106 35 -149 35 -235 1
-94 -2 -111 -26 -163 -56 -119 -165 -189 -297 -191 -106 -1 -162 17 -225 75
-99 90 -133 208 -115 398 5 57 12 107 14 111 2 3 11 73 21 156 17 153 14 355
-6 379 -5 7 -7 15 -4 18 10 10 -38 96 -57 102 -27 9 -70 -2 -84 -21 -6 -10
-22 -48 -34 -85 -34 -106 -103 -163 -196 -163 -98 0 -180 70 -216 185 -34 108
-27 207 49 694 15 95 17 199 17 775 1 366 5 960 9 1320 9 670 3 908 -29 1251
-56 590 -151 885 -349 1083 -69 69 -182 126 -290 146 -94 18 -261 8 -351 -20
-194 -61 -387 -205 -499 -375 -151 -227 -190 -390 -217 -900 -15 -283 -6
-1375 16 -1830 43 -911 62 -1046 224 -1512 74 -214 91 -295 91 -437 0 -131
-20 -217 -71 -302 -64 -108 -160 -140 -281 -94 -67 25 -102 25 -143 0 -40 -25
-55 -47 -84 -125 -57 -152 -65 -313 -26 -514 44 -223 30 -331 -53 -423 -59
-66 -103 -83 -208 -83 -83 0 -94 2 -140 30 -55 34 -119 112 -135 165 -21 68
-22 192 -3 306 26 149 26 475 0 619 -25 143 -66 274 -91 295 -7 6 -30 13 -50
15 -33 3 -37 0 -55 -36 -24 -45 -24 -68 -5 -174 31 -169 35 -213 24 -265 -25
-118 -142 -176 -231 -115 -74 50 -105 135 -134 365 -12 99 -27 167 -57 255
-39 113 -41 126 -40 230 1 106 3 115 47 229 26 65 60 147 76 181 17 35 30 66
30 70 0 3 11 30 23 58 65 143 116 382 136 637 51 654 69 1434 42 1905 -19 340
-82 963 -106 1045 -2 8 -7 38 -10 65 -3 28 -13 75 -22 105 -9 30 -18 61 -19
69 -1 7 -14 25 -28 40 -34 35 -95 36 -129 3 -33 -33 -36 -181 -8 -330 47 -246
14 -388 -97 -413 -76 -17 -149 34 -173 121 -17 63 -13 203 8 302 12 56 18 126
18 218 0 123 -2 139 -24 180 -28 54 -35 60 -84 60 -35 0 -39 -3 -57 -42 -15
-35 -18 -57 -13 -119 5 -63 2 -83 -15 -122 -49 -112 -196 -118 -250 -10 -15
29 -21 66 -24 158 -3 76 -9 129 -18 145 -8 14 -15 30 -16 35 -1 6 -12 35 -25
65 -19 46 -23 73 -23 165 -1 95 3 118 24 165 36 83 86 145 247 308 173 174
193 196 259 282 27 36 51 67 54 70 18 16 100 130 100 139 0 5 6 14 13 18 7 4
37 42 67 83 64 89 144 175 182 198 15 8 24 20 21 26 -3 6 -3 8 2 4 4 -4 26 3
49 17 75 43 148 58 265 53 175 -8 336 -79 478 -212 119 -110 172 -208 274
-495 32 -90 63 -169 68 -174 5 -5 22 -6 37 -3 27 7 46 25 138 127 94 104 180
191 250 252 39 34 73 64 76 67 17 17 130 97 215 152 208 136 409 219 656 273
159 34 379 44 556 24z"/>
</g>
</svg>
