<?xml version="1.0" standalone="no"?>
<!DOCTYPE svg PUBLIC "-//W3C//DTD SVG 20010904//EN"
 "http://www.w3.org/TR/2001/REC-SVG-20010904/DTD/svg10.dtd">
<svg version="1.0" xmlns="http://www.w3.org/2000/svg"
 width="1024.000000pt" height="1024.000000pt" viewBox="0 0 1024.000000 1024.000000"
 preserveAspectRatio="xMidYMid meet">
<metadata>
Created by potrace 1.16, written by Peter Selinger 2001-2019
</metadata>
<g transform="translate(0.000000,1024.000000) scale(0.100000,-0.100000)"
fill="#000000" stroke="none">
<path d="M0 5120 l0 -5120 5120 0 5120 0 0 5120 0 5120 -5120 0 -5120 0 0
-5120z m5405 4735 c535 -59 1041 -257 1448 -568 16 -12 52 -40 80 -62 250
-190 534 -500 710 -772 59 -92 77 -121 126 -207 133 -228 283 -562 364 -811
134 -414 201 -723 263 -1220 27 -208 28 -242 28 -640 1 -379 -1 -438 -22 -605
-67 -545 -184 -1009 -337 -1344 -14 -30 -25 -57 -25 -60 0 -15 -56 -134 -178
-380 -207 -415 -224 -473 -242 -786 -10 -180 -25 -249 -71 -320 -34 -54 -70
-83 -140 -110 -47 -19 -70 -20 -288 -18 -226 3 -239 2 -296 -20 -127 -49 -215
-133 -274 -264 -35 -77 -61 -174 -95 -363 -38 -210 -81 -317 -153 -387 -78
-76 -179 -92 -277 -44 -79 39 -120 91 -196 250 -96 201 -130 236 -233 236 -47
0 -58 -4 -96 -36 -48 -42 -70 -81 -100 -179 -34 -110 -37 -224 -11 -405 33
-230 16 -334 -65 -389 -28 -19 -44 -23 -83 -19 -63 6 -98 31 -129 92 -34 66
-35 152 -3 376 20 143 22 176 12 246 -28 213 -120 334 -252 334 -94 0 -163
-55 -237 -188 -53 -97 -91 -142 -137 -163 -76 -34 -149 -21 -219 40 -48 43
-74 115 -87 248 -15 144 -36 234 -73 313 -63 134 -142 216 -266 278 -74 36
-77 37 -190 37 -97 -1 -126 -5 -174 -24 -121 -48 -223 -164 -267 -303 -32
-102 -31 -232 5 -393 14 -66 38 -174 52 -240 22 -99 27 -146 27 -270 1 -145 0
-152 -28 -210 -50 -106 -97 -148 -181 -165 -38 -8 -63 -7 -102 4 -201 54 -266
232 -213 586 11 80 27 170 35 200 63 253 86 686 51 977 -24 204 -77 427 -123
518 -62 123 -160 157 -236 81 -36 -36 -69 -76 -62 -76 6 0 -49 -150 -81 -220
-27 -60 -82 -123 -128 -146 -16 -8 -57 -14 -91 -14 -54 0 -69 4 -111 33 -97
64 -130 180 -120 412 6 134 13 196 71 580 32 216 42 413 26 525 -7 47 -30 175
-51 286 -87 445 -109 667 -117 1134 -11 679 41 1266 163 1830 169 781 530
1453 1079 2006 259 261 460 414 711 541 273 139 556 221 889 257 77 9 154 18
170 20 54 8 417 -5 550 -19z"/>
<path d="M4808 8597 c-125 -43 -249 -151 -306 -267 -24 -49 -27 -66 -27 -160
0 -95 4 -114 35 -200 29 -78 35 -109 34 -170 -1 -157 -71 -218 -284 -249 -41
-7 -86 -20 -100 -29 -40 -28 -67 -97 -94 -232 -101 -521 -163 -1451 -153
-2325 6 -470 11 -590 42 -925 57 -611 166 -1043 323 -1285 134 -207 306 -339
518 -399 269 -75 495 -58 724 57 290 144 517 463 659 923 123 403 161 827 161
1819 0 563 -6 712 -46 1083 -52 490 -134 964 -238 1372 -69 271 -121 374 -203
401 -75 24 -157 -13 -195 -89 -21 -42 -23 -61 -23 -187 0 -105 6 -172 24 -270
17 -89 25 -168 25 -250 l1 -121 -33 -41 c-78 -100 -243 -79 -302 37 -34 66
-34 127 -1 390 64 508 50 765 -51 934 -42 68 -54 82 -116 128 -108 80 -242
100 -374 55z"/>
</g>
</svg>
