<?xml version="1.0" standalone="no"?>
<!DOCTYPE svg PUBLIC "-//W3C//DTD SVG 20010904//EN"
 "http://www.w3.org/TR/2001/REC-SVG-20010904/DTD/svg10.dtd">
<svg version="1.0" xmlns="http://www.w3.org/2000/svg"
 width="1024.000000pt" height="1024.000000pt" viewBox="0 0 1024.000000 1024.000000"
 preserveAspectRatio="xMidYMid meet">
<metadata>
Created by potrace 1.16, written by Peter Selinger 2001-2019
</metadata>
<g transform="translate(0.000000,1024.000000) scale(0.100000,-0.100000)"
fill="#000000" stroke="none">
<path d="M0 5120 l0 -5120 5120 0 5120 0 0 5120 0 5120 -5120 0 -5120 0 0
-5120z m5783 3589 c136 -27 231 -69 359 -155 134 -91 188 -117 413 -193 314
-108 433 -173 633 -349 119 -106 192 -206 294 -407 l92 -180 132 -130 c72 -71
146 -150 163 -175 43 -63 70 -145 87 -269 26 -190 35 -225 75 -307 22 -45 61
-106 87 -137 56 -66 137 -200 164 -269 24 -63 48 -178 48 -227 0 -20 11 -80
25 -132 31 -120 33 -254 5 -389 -27 -130 -34 -216 -22 -275 53 -255 56 -278
41 -340 -12 -53 -18 -62 -50 -79 -35 -19 -38 -19 -64 -2 -54 35 -66 124 -46
335 14 139 -18 241 -74 241 -49 0 -93 -84 -126 -243 -22 -102 -23 -158 -15
-587 1 -25 -5 -157 -13 -295 -15 -278 -10 -350 35 -516 44 -165 50 -218 31
-295 -27 -108 -85 -164 -170 -164 -42 0 -96 22 -119 47 -69 75 -64 240 12 483
81 260 73 350 -33 350 -124 0 -197 -90 -264 -325 -38 -132 -81 -226 -141 -307
-47 -64 -87 -100 -191 -173 -120 -84 -143 -122 -180 -304 -45 -214 -40 -363
21 -661 41 -195 44 -337 9 -412 -83 -180 -260 -176 -322 9 -33 101 -24 206 36
393 39 122 47 162 52 251 3 58 2 131 -1 163 -9 72 -31 88 -119 88 -106 1 -160
-42 -229 -179 -68 -136 -128 -180 -229 -171 -27 3 -75 19 -106 35 -200 105
-237 122 -279 129 -63 9 -144 -16 -177 -56 -49 -58 -62 -120 -60 -285 1 -153
11 -225 68 -495 53 -247 7 -390 -124 -390 -58 0 -97 30 -130 99 -23 50 -26 67
-25 166 1 88 8 137 34 245 41 170 53 381 26 473 -32 111 -119 138 -313 98
-244 -51 -268 -84 -227 -316 37 -208 -16 -314 -162 -323 -139 -9 -203 56 -204
205 0 46 9 108 25 169 31 121 33 192 4 228 -11 14 -68 53 -127 87 -148 83
-218 125 -277 164 -27 18 -88 54 -135 80 -110 62 -121 72 -193 190 -34 55 -87
126 -117 158 -52 53 -59 57 -102 57 -56 0 -84 -21 -120 -87 -44 -80 -61 -201
-61 -423 0 -415 42 -645 175 -969 108 -264 102 -242 102 -386 0 -111 -3 -138
-22 -186 -31 -79 -88 -139 -165 -177 -98 -48 -181 -39 -250 26 -117 111 -135
327 -63 739 41 233 66 455 66 580 -1 214 -54 867 -86 1042 -24 131 -54 178
-131 205 -37 13 -50 13 -110 -1 -154 -34 -232 -26 -302 33 -41 34 -82 41 -104
17 -24 -27 -37 -108 -37 -228 0 -132 20 -226 85 -400 82 -219 94 -332 46 -441
-27 -59 -54 -90 -103 -115 -104 -53 -227 13 -278 149 -33 88 -28 201 20 411
84 363 104 588 97 1053 -6 384 -12 422 -101 611 -20 43 -52 125 -72 182 -49
142 -90 173 -113 88 -16 -58 -13 -108 15 -270 29 -161 34 -297 15 -355 -14
-43 -63 -88 -95 -88 -13 0 -38 10 -57 23 -44 29 -68 97 -68 192 0 69 5 97 50
285 21 88 23 121 26 430 4 414 4 496 1 663 -2 125 -1 138 31 242 56 188 60
206 76 360 28 258 73 358 251 546 86 91 106 129 172 325 60 180 139 351 212
460 74 110 235 268 339 332 47 28 150 79 230 112 285 118 366 162 536 288 129
95 203 136 325 178 176 62 279 77 490 74 480 -8 516 -7 670 23 276 52 357 56
503 26z"/>
<path d="M4978 7389 c-227 -9 -247 -17 -320 -130 -41 -61 -70 -92 -140 -145
-142 -107 -185 -170 -195 -283 -4 -46 0 -69 25 -131 38 -96 47 -154 32 -211
-20 -73 -68 -110 -146 -111 -50 -1 -86 19 -115 65 -18 29 -20 43 -15 134 5 84
3 105 -10 117 -21 22 -46 20 -78 -5 -66 -52 -115 -218 -136 -464 -14 -161 -2
-266 50 -435 87 -282 61 -458 -84 -552 -23 -16 -71 -38 -107 -51 l-64 -23 1
-215 c1 -225 16 -369 55 -523 105 -422 287 -700 583 -894 229 -150 531 -234
891 -249 423 -18 820 108 1137 359 272 216 456 539 552 971 44 198 82 524 65
559 -5 9 -25 26 -44 38 -46 28 -88 91 -115 171 -19 56 -21 80 -18 184 3 72 16
175 33 260 23 117 26 157 22 240 -10 187 -68 421 -147 592 -39 85 -51 96 -111
107 -61 11 -86 54 -94 164 -3 37 -11 69 -18 74 -23 15 -89 8 -123 -13 -75 -46
-120 -220 -111 -434 6 -149 22 -208 105 -396 62 -139 74 -209 47 -288 -33
-101 -105 -154 -210 -155 -100 -2 -182 62 -215 168 -21 64 -7 158 39 279 70
182 82 238 88 388 4 104 2 155 -11 219 -31 149 -73 202 -202 251 -45 17 -97
43 -116 59 -47 39 -85 114 -98 195 -13 82 -26 99 -85 114 -48 12 -314 12 -597
0z"/>
</g>
</svg>
