<?xml version="1.0" standalone="no"?>
<!DOCTYPE svg PUBLIC "-//W3C//DTD SVG 20010904//EN"
 "http://www.w3.org/TR/2001/REC-SVG-20010904/DTD/svg10.dtd">
<svg version="1.0" xmlns="http://www.w3.org/2000/svg"
 width="1024.000000pt" height="1024.000000pt" viewBox="0 0 1024.000000 1024.000000"
 preserveAspectRatio="xMidYMid meet">
<metadata>
Created by potrace 1.16, written by Peter Selinger 2001-2019
</metadata>
<g transform="translate(0.000000,1024.000000) scale(0.100000,-0.100000)"
fill="#000000" stroke="none">
<path d="M0 5120 l0 -5120 5115 0 5115 0 0 5120 0 5120 -5115 0 -5115 0 0
-5120z m5825 4570 c275 -26 335 -32 410 -45 44 -7 130 -21 190 -30 61 -8 133
-22 160 -29 28 -8 68 -18 90 -22 22 -4 42 -8 45 -9 3 -1 19 -5 35 -9 103 -27
275 -82 365 -116 30 -12 66 -25 80 -29 55 -18 296 -134 385 -186 33 -19 71
-40 85 -47 30 -15 83 -50 90 -59 3 -3 34 -26 70 -50 36 -24 67 -46 70 -49 3
-3 23 -18 45 -35 133 -98 324 -303 468 -502 39 -53 170 -309 207 -403 12 -30
27 -77 35 -105 8 -27 27 -97 44 -154 44 -151 67 -273 101 -546 34 -265 53
-934 29 -1020 -22 -79 -100 -126 -183 -111 -33 6 -116 76 -116 98 0 5 -9 18
-20 30 -18 20 -20 20 -44 4 -74 -48 -102 -208 -130 -741 -9 -159 -18 -339 -22
-400 -9 -177 -41 -257 -118 -294 -52 -26 -79 -26 -131 -2 -46 21 -68 43 -86
86 -18 44 -20 57 -23 197 -1 70 -5 131 -9 135 -14 13 -61 -13 -189 -104 -171
-122 -176 -126 -188 -159 -13 -34 -29 -292 -30 -479 -1 -180 -24 -229 -123
-256 -67 -18 -139 18 -173 85 -8 17 -17 67 -20 111 -7 121 -24 184 -66 252
-66 105 -164 151 -264 123 -57 -16 -90 -42 -111 -88 -14 -31 -17 -87 -21 -357
-3 -289 -6 -324 -23 -366 -20 -46 -83 -98 -121 -100 -85 -5 -121 6 -158 45
-51 54 -61 83 -72 219 -6 70 -14 127 -18 127 -4 0 -13 -43 -20 -96 -19 -154
-53 -211 -143 -235 -32 -8 -48 -7 -83 6 -99 38 -125 81 -133 219 -6 106 -17
126 -46 82 -13 -20 -18 -58 -22 -168 -5 -173 -18 -217 -76 -259 -97 -70 -246
-13 -268 103 -4 24 -11 95 -14 158 -23 450 -38 518 -115 550 -63 26 -156 -11
-178 -70 -5 -14 -10 -65 -11 -115 -1 -49 -4 -92 -7 -97 -6 -9 -5 -885 0 -948
3 -25 6 -106 7 -180 2 -147 -10 -195 -61 -249 -28 -29 -96 -61 -130 -61 -40 0
-121 51 -156 97 -42 55 -50 117 -36 276 11 132 19 535 14 822 -2 174 -3 182
-30 235 -57 113 -73 71 -77 -196 -3 -223 -9 -249 -71 -303 -46 -41 -97 -54
-148 -39 -47 14 -136 98 -136 127 0 11 -5 23 -11 27 -8 5 -9 46 -4 143 6 132
1 196 -15 186 -24 -15 -30 -222 -30 -1014 0 -321 3 -588 8 -595 9 -12 28 -60
102 -261 75 -199 136 -322 185 -368 22 -21 74 -56 115 -79 243 -131 334 -224
390 -401 73 -227 -6 -481 -195 -624 -213 -162 -544 -261 -1030 -309 -271 -26
-929 -12 -1205 27 -145 20 -369 74 -455 109 -283 117 -400 241 -454 483 -16
71 -13 159 8 240 36 130 68 186 157 267 167 152 241 245 289 362 14 35 30 72
34 83 5 11 21 63 36 115 15 52 31 106 36 120 4 14 19 81 31 150 l23 125 0
2580 0 2580 -32 87 c-52 139 -126 279 -182 341 -29 32 -66 35 -81 8 -11 -22
-12 -356 -1 -606 9 -230 -9 -292 -102 -339 -38 -20 -58 -24 -95 -19 -57 6
-123 42 -152 82 -26 38 -43 130 -36 195 26 236 33 585 20 1046 -9 328 13 434
121 585 70 98 156 165 277 217 137 58 316 72 603 49 318 -27 390 -32 560 -41
99 -6 290 -13 425 -16 l245 -6 145 36 c80 21 163 41 185 46 22 5 60 13 85 19
25 5 65 14 90 20 81 17 392 59 530 71 74 6 144 13 155 14 54 8 524 5 620 -4z"/>
<path d="M5512 8433 c-5 -10 -12 -52 -16 -93 -12 -131 -66 -200 -159 -200 -42
0 -106 29 -137 62 -19 21 -36 69 -46 128 -8 43 -13 50 -39 50 -37 0 -153 -66
-297 -170 -77 -54 -272 -248 -313 -310 -16 -25 -33 -47 -36 -50 -3 -3 -27 -41
-52 -85 l-47 -80 0 -897 0 -898 21 -18 c12 -9 26 -22 33 -28 25 -24 233 -95
348 -119 68 -14 146 -31 173 -37 89 -19 354 -33 495 -26 218 12 430 60 579
131 101 48 303 228 345 306 5 9 14 21 20 26 37 33 168 270 191 345 4 14 13 39
20 55 36 86 99 386 114 545 6 58 13 157 15 221 4 107 3 121 -20 169 -35 76
-48 62 -55 -58 -5 -83 -11 -108 -32 -145 -32 -54 -63 -75 -120 -83 -94 -13
-185 43 -208 128 -7 28 -12 169 -13 413 -1 460 17 407 -191 547 -106 71 -237
130 -362 162 -122 31 -198 34 -211 9z"/>
</g>
</svg>
