<?xml version="1.0" standalone="no"?>
<!DOCTYPE svg PUBLIC "-//W3C//DTD SVG 20010904//EN"
 "http://www.w3.org/TR/2001/REC-SVG-20010904/DTD/svg10.dtd">
<svg version="1.0" xmlns="http://www.w3.org/2000/svg"
 width="1024.000000pt" height="1024.000000pt" viewBox="0 0 1024.000000 1024.000000"
 preserveAspectRatio="xMidYMid meet">
<metadata>
Created by potrace 1.16, written by Peter Selinger 2001-2019
</metadata>
<g transform="translate(0.000000,1024.000000) scale(0.100000,-0.100000)"
fill="#000000" stroke="none">
<path d="M0 5120 l0 -5120 5120 0 5120 0 0 5120 0 5120 -5120 0 -5120 0 0
-5120z m3813 4096 c18 -8 55 -22 82 -31 65 -21 116 -45 137 -63 10 -8 29 -16
44 -18 32 -3 83 -38 152 -104 29 -27 57 -50 62 -50 6 0 10 -5 10 -11 0 -13
130 -139 143 -139 5 0 16 -9 25 -20 24 -29 153 -39 202 -16 51 23 100 54 145
91 59 48 333 195 363 195 4 0 54 20 111 45 64 28 118 45 143 45 21 0 49 7 63
16 13 8 50 18 82 20 32 3 69 10 83 14 25 9 73 15 210 26 94 8 411 -20 545 -47
101 -20 332 -86 415 -119 60 -23 112 -41 128 -44 7 -1 18 -8 24 -14 7 -7 16
-12 21 -12 6 0 42 -16 82 -35 40 -19 83 -39 96 -45 13 -6 40 -20 59 -31 64
-39 105 -59 119 -59 8 0 11 -3 8 -6 -6 -7 23 -26 88 -58 17 -8 45 -28 63 -45
18 -17 39 -31 47 -31 7 0 15 -3 17 -8 2 -4 23 -23 48 -42 25 -19 50 -39 56
-45 6 -5 35 -30 64 -55 125 -105 274 -267 380 -413 19 -27 45 -61 58 -77 12
-15 22 -33 22 -40 0 -6 14 -25 30 -42 17 -16 30 -38 30 -48 0 -11 7 -23 14
-27 14 -8 92 -165 151 -303 15 -36 31 -74 36 -85 51 -115 122 -397 154 -614
18 -124 20 -464 4 -627 -13 -137 -55 -367 -79 -434 -4 -14 -16 -52 -25 -85
-34 -118 -58 -191 -83 -255 -32 -80 -149 -309 -168 -331 -8 -8 -14 -18 -14
-22 0 -4 -51 -82 -113 -174 -62 -92 -118 -182 -125 -199 -8 -19 -14 -96 -16
-210 -3 -167 -5 -184 -30 -254 -68 -184 -66 -174 -64 -319 4 -276 2 -313 -22
-363 -29 -63 -75 -96 -142 -104 -44 -5 -69 -1 -139 24 -100 34 -102 33 -114
-58 -24 -189 -61 -251 -167 -280 -99 -28 -224 66 -233 175 0 6 -3 15 -6 20
-24 41 -31 114 -24 233 13 227 9 250 -45 272 -58 24 -122 -19 -176 -118 -36
-65 -134 -172 -158 -172 -20 0 -66 -54 -76 -88 -19 -69 -32 -234 -30 -372 6
-258 4 -284 -21 -335 -13 -26 -31 -51 -40 -56 -10 -5 -24 -16 -32 -24 -8 -8
-35 -20 -60 -26 -54 -15 -124 1 -168 38 -31 26 -79 122 -79 158 0 13 -5 25
-11 27 -7 2 -11 43 -10 118 4 385 5 367 -24 427 -33 67 -79 92 -167 93 -50 0
-280 22 -366 35 -129 19 -331 78 -409 119 -16 8 -46 17 -66 21 -46 9 -99 -16
-118 -54 -16 -34 -24 -429 -11 -526 6 -38 20 -140 31 -225 33 -250 41 -291 69
-375 14 -44 27 -85 28 -91 2 -10 16 -35 83 -139 14 -22 40 -58 58 -80 17 -22
37 -52 43 -65 15 -33 34 -66 51 -87 16 -20 47 -84 77 -158 62 -155 57 -385
-11 -520 -24 -46 -145 -168 -191 -190 -63 -33 -172 -75 -217 -84 -64 -14 -292
-31 -420 -31 -181 0 -399 -54 -462 -114 -38 -36 -87 -100 -87 -114 0 -16 -99
-112 -126 -122 -43 -17 -131 -12 -172 9 -52 27 -114 89 -148 149 -33 58 -85
96 -164 118 -30 9 -89 27 -130 40 -62 21 -106 27 -250 35 -180 9 -288 28 -351
59 -59 30 -138 109 -160 159 -11 25 -24 55 -30 66 -39 82 -41 413 -3 495 12
25 24 52 28 60 3 8 10 22 15 30 5 8 12 22 16 30 3 8 11 24 18 35 36 59 107
188 107 195 0 4 9 15 19 24 11 10 22 29 26 44 3 14 20 44 36 66 16 22 29 48
29 57 0 10 8 32 17 51 37 73 41 85 48 128 4 25 13 54 19 65 8 12 16 79 20 170
3 83 10 186 15 230 10 85 8 213 -9 550 -6 116 -13 266 -15 335 -10 227 -23
503 -30 610 -4 58 -11 209 -15 335 -17 441 -30 731 -45 955 -9 124 -20 320
-26 435 -31 634 -43 794 -64 840 -7 17 -16 47 -20 67 -14 90 -116 130 -169 68
-35 -43 -40 -90 -32 -354 10 -325 8 -373 -15 -426 -40 -91 -110 -136 -197
-127 -80 8 -153 70 -177 148 -4 13 -17 44 -28 69 -25 53 -26 94 -13 466 l9
252 -33 68 c-18 38 -40 78 -50 89 -10 11 -27 38 -38 60 -12 22 -27 51 -34 65
-7 14 -15 27 -18 30 -3 3 -11 21 -19 40 -7 19 -20 53 -29 75 -8 22 -19 67 -23
100 -5 33 -15 103 -22 155 -27 179 -19 318 28 495 30 116 125 272 192 315 21
14 40 27 43 30 3 3 21 17 40 30 19 13 37 27 40 30 6 7 18 14 183 99 65 34 125
61 132 61 8 0 38 11 67 24 104 48 207 86 235 86 16 0 39 7 51 16 12 8 41 15
65 16 23 0 52 6 64 14 13 8 48 14 86 14 37 0 68 5 75 13 19 18 173 25 435 21
172 -3 236 -7 260 -18z"/>
<path d="M5275 7529 c-98 -33 -179 -91 -241 -174 -41 -53 -83 -131 -99 -180
-7 -22 -23 -65 -34 -95 -42 -108 -72 -261 -82 -415 -14 -225 -10 -1044 6
-1130 28 -154 66 -259 120 -329 43 -57 153 -138 198 -148 118 -24 163 -28 212
-17 98 22 159 41 179 55 11 8 28 14 37 14 19 0 172 144 212 200 38 53 105 183
122 237 9 26 20 57 25 68 21 48 50 167 50 203 0 23 5 53 10 67 44 115 60 821
20 894 -5 11 -10 40 -10 65 0 25 -4 47 -9 51 -5 3 -19 37 -31 75 -12 39 -26
70 -31 70 -5 0 -9 9 -9 20 0 28 -94 206 -135 256 -19 23 -39 52 -45 65 -14 31
-118 107 -184 136 -42 18 -69 22 -151 22 -55 0 -113 -5 -130 -10z"/>
</g>
</svg>
