<?xml version="1.0" standalone="no"?>
<!DOCTYPE svg PUBLIC "-//W3C//DTD SVG 20010904//EN"
 "http://www.w3.org/TR/2001/REC-SVG-20010904/DTD/svg10.dtd">
<svg version="1.0" xmlns="http://www.w3.org/2000/svg"
 width="1024.000000pt" height="1024.000000pt" viewBox="0 0 1024.000000 1024.000000"
 preserveAspectRatio="xMidYMid meet">
<metadata>
Created by potrace 1.16, written by Peter Selinger 2001-2019
</metadata>
<g transform="translate(0.000000,1024.000000) scale(0.100000,-0.100000)"
fill="#000000" stroke="none">
<path d="M0 5120 l0 -5120 5120 0 5120 0 0 5120 0 5120 -5120 0 -5120 0 0
-5120z m5420 4075 c339 -36 547 -114 945 -355 255 -155 277 -165 355 -165 87
0 172 45 239 124 87 105 166 176 231 208 108 54 228 83 372 90 121 6 130 5
203 -22 187 -68 289 -180 347 -380 20 -71 23 -100 22 -265 0 -171 -3 -192 -27
-272 -39 -127 -98 -215 -249 -374 -192 -201 -226 -259 -248 -420 -13 -97 -2
-266 41 -614 49 -396 51 -811 5 -1082 -70 -412 -117 -583 -334 -1200 -43 -120
-89 -289 -109 -398 -26 -143 -24 -499 5 -680 25 -159 84 -347 191 -604 93
-224 141 -512 120 -723 -40 -400 -199 -769 -423 -980 -108 -102 -153 -133
-269 -188 -189 -88 -348 -121 -537 -111 -316 16 -580 162 -724 403 -152 255
-214 511 -187 775 18 181 47 300 152 638 70 226 100 550 63 678 -23 80 -65
159 -113 213 -52 60 -159 129 -209 136 -71 10 -130 -38 -163 -132 -18 -52 -20
-77 -17 -254 3 -167 0 -204 -15 -246 -35 -103 -114 -164 -210 -165 -57 0 -90
16 -138 67 -71 74 -91 145 -82 288 13 213 -37 391 -124 442 -52 30 -116 32
-199 6 -77 -24 -103 -63 -143 -214 -34 -130 -44 -228 -43 -424 1 -215 17 -371
62 -595 89 -445 19 -781 -185 -880 -46 -22 -163 -27 -226 -10 -46 13 -122 79
-155 136 -45 76 -75 189 -81 299 -5 83 0 131 26 282 28 163 31 202 31 387 0
219 -16 381 -51 526 -28 112 -131 401 -185 518 -137 296 -274 420 -372 337
-39 -33 -45 -75 -33 -247 18 -245 -13 -376 -106 -441 -82 -58 -198 -45 -257
30 -38 48 -72 141 -81 223 -8 78 12 207 56 358 106 366 99 604 -27 799 -90
141 -118 192 -174 318 -64 145 -113 288 -165 487 -47 180 -60 244 -89 450 -23
158 -26 208 -26 471 0 300 15 531 46 697 20 110 102 378 154 505 47 117 66
148 213 358 201 288 295 386 545 573 170 127 166 124 297 201 230 135 525 270
708 323 122 36 360 77 547 95 190 18 633 18 800 0z"/>
<path d="M4870 8023 c-127 -14 -310 -68 -395 -118 -132 -77 -218 -171 -291
-316 -86 -171 -131 -327 -190 -654 -26 -142 -31 -790 -9 -1090 15 -203 21
-244 52 -349 45 -158 72 -222 140 -336 65 -109 193 -245 288 -305 146 -93 267
-120 535 -120 l195 0 119 43 c325 118 454 237 563 521 82 216 114 380 134 681
11 170 7 649 -7 780 -35 339 -50 421 -100 575 -46 139 -82 210 -154 305 -69
90 -118 137 -226 213 -101 70 -182 107 -299 135 -152 37 -248 47 -355 35z"/>
</g>
</svg>
