<?xml version="1.0" standalone="no"?>
<!DOCTYPE svg PUBLIC "-//W3C//DTD SVG 20010904//EN"
 "http://www.w3.org/TR/2001/REC-SVG-20010904/DTD/svg10.dtd">
<svg version="1.0" xmlns="http://www.w3.org/2000/svg"
 width="1024.000000pt" height="1024.000000pt" viewBox="0 0 1024.000000 1024.000000"
 preserveAspectRatio="xMidYMid meet">
<metadata>
Created by potrace 1.16, written by Peter Selinger 2001-2019
</metadata>
<g transform="translate(0.000000,1024.000000) scale(0.100000,-0.100000)"
fill="#000000" stroke="none">
<path d="M0 5120 l0 -5120 5120 0 5120 0 0 5120 0 5120 -5120 0 -5120 0 0
-5120z m5737 4436 c700 -84 1206 -262 1632 -574 380 -279 731 -720 963 -1211
297 -630 491 -1476 476 -2074 -4 -136 -8 -171 -26 -218 -34 -85 -89 -129 -162
-129 -57 0 -93 22 -140 84 -49 68 -55 71 -84 52 -68 -44 -93 -192 -77 -451 14
-222 14 -441 1 -542 -14 -100 -38 -174 -117 -350 -34 -79 -63 -156 -63 -171 1
-15 7 -54 15 -87 22 -92 19 -191 -8 -244 -51 -101 -197 -121 -285 -38 -33 31
-77 113 -96 180 -14 49 -20 57 -40 57 -15 0 -39 -16 -65 -42 -89 -94 -142
-190 -160 -288 l-9 -55 48 -46 c100 -94 271 -196 427 -255 38 -14 164 -50 281
-80 237 -60 301 -87 380 -158 80 -73 104 -128 111 -254 7 -120 7 -121 132
-189 152 -84 227 -215 199 -350 -14 -67 -24 -86 -70 -136 -50 -55 -98 -77
-168 -77 -45 0 -66 5 -86 21 -41 32 -76 101 -84 165 l-7 59 -38 -1 c-29 -1
-48 -12 -93 -50 -30 -27 -106 -83 -167 -124 -62 -41 -122 -90 -134 -108 -34
-51 -42 -112 -48 -373 -4 -134 -11 -269 -17 -299 -28 -149 -137 -250 -270
-250 -105 0 -176 48 -224 152 -25 55 -29 74 -28 153 0 50 4 138 8 196 8 98 7
110 -12 150 -35 71 -113 115 -317 179 -132 40 -144 52 -233 217 -43 82 -116
218 -160 303 -86 166 -167 314 -192 350 l-16 23 -44 -23 c-69 -35 -144 -113
-175 -181 -37 -84 -37 -179 0 -363 32 -161 30 -234 -6 -292 -31 -51 -94 -78
-160 -69 -67 9 -106 39 -154 115 l-40 64 -2 134 c-1 74 -4 144 -7 156 -12 47
-111 61 -175 25 -84 -47 -117 -145 -107 -319 3 -63 13 -146 21 -185 9 -38 18
-147 22 -241 6 -189 -5 -271 -51 -371 -63 -134 -208 -207 -338 -169 -71 20
-126 69 -165 147 -60 118 -55 203 27 519 67 261 62 377 -24 547 -39 78 -86
124 -160 159 -148 69 -279 -15 -344 -220 -14 -42 -16 -88 -14 -250 3 -222 -5
-272 -57 -343 -37 -51 -136 -103 -195 -103 -55 0 -138 40 -169 81 -41 56 -69
119 -70 163 0 22 5 106 13 185 14 149 7 248 -23 310 -20 41 -138 116 -232 146
-135 44 -223 26 -261 -53 -23 -50 -20 -112 10 -218 19 -64 26 -112 26 -174 0
-77 -4 -94 -30 -148 -138 -275 -542 -207 -634 107 -26 89 -21 191 19 353 42
175 54 268 44 353 -12 93 -28 118 -101 154 -72 35 -179 51 -349 51 -238 0
-338 50 -418 207 -12 25 -32 104 -46 190 -27 160 -52 248 -91 325 -44 88 -163
123 -263 78 -51 -24 -101 -26 -139 -6 -128 68 -326 431 -407 746 -57 224 -59
579 -5 980 29 213 41 387 50 700 19 649 58 917 185 1257 63 169 155 363 247
521 28 48 75 130 106 182 231 399 586 809 902 1041 129 94 299 196 420 252 30
14 89 41 130 60 359 166 881 286 1390 321 143 9 741 -3 867 -18z"/>
<path d="M4865 8460 c-19 -8 -19 -9 2 -9 12 -1 25 4 28 9 7 12 -2 12 -30 0z"/>
<path d="M4918 8463 c7 -3 16 -2 19 1 4 3 -2 6 -13 5 -11 0 -14 -3 -6 -6z"/>
<path d="M4820 8424 c-131 -35 -227 -111 -249 -199 -14 -56 -14 -109 1 -322
18 -268 -3 -372 -99 -474 -57 -61 -108 -89 -178 -96 -96 -10 -174 35 -222 131
-31 61 -33 122 -8 216 13 50 16 86 11 155 -10 159 -31 195 -114 195 -106 0
-210 -106 -282 -289 -34 -88 -66 -230 -110 -491 -67 -400 -93 -498 -181 -688
-96 -209 -128 -463 -99 -792 31 -343 157 -887 273 -1188 218 -560 632 -899
1195 -976 242 -34 506 -16 752 51 118 32 340 112 340 123 0 8 -101 84 -175
131 -60 37 -173 85 -236 99 -78 17 -197 8 -293 -24 -85 -28 -165 -33 -230 -15
-77 21 -156 135 -156 226 0 217 237 531 498 661 l95 47 121 0 c101 0 132 -4
186 -23 81 -29 213 -92 299 -143 36 -22 73 -44 81 -48 8 -5 76 -46 150 -92
313 -191 362 -220 379 -222 38 -5 194 209 294 404 121 237 183 441 208 688 9
95 9 126 -2 171 -18 70 -49 92 -165 113 -101 19 -149 46 -194 112 -53 77 -72
146 -71 260 0 106 12 160 87 405 36 120 38 131 38 270 0 138 -1 149 -32 239
-58 167 -161 350 -236 420 l-26 24 -82 -38 c-148 -67 -257 -57 -322 28 -61 80
-67 133 -36 297 29 144 19 194 -56 287 -44 53 -144 129 -212 159 -33 15 -72
24 -104 24 l-51 0 -91 -94 c-110 -113 -161 -141 -256 -141 -92 0 -145 32 -191
117 l-34 63 3 121 c3 119 2 122 -20 128 -40 10 -141 5 -198 -10z"/>
<path d="M5585 8260 c-3 -5 3 -10 15 -10 12 0 18 5 15 10 -3 6 -10 10 -15 10
-5 0 -12 -4 -15 -10z"/>
<path d="M3953 8053 c9 -2 23 -2 30 0 6 3 -1 5 -18 5 -16 0 -22 -2 -12 -5z"/>
<path d="M3865 8040 c-3 -5 -15 -10 -26 -10 -10 0 -19 -4 -19 -10 0 -5 5 -10
10 -10 13 0 70 29 70 35 0 9 -29 5 -35 -5z"/>
<path d="M5335 8040 c-3 -5 -2 -10 4 -10 5 0 13 5 16 10 3 6 2 10 -4 10 -5 0
-13 -4 -16 -10z"/>
<path d="M3765 7950 c-3 -5 -1 -10 4 -10 6 0 11 5 11 10 0 6 -2 10 -4 10 -3 0
-8 -4 -11 -10z"/>
<path d="M6253 7423 c9 -2 23 -2 30 0 6 3 -1 5 -18 5 -16 0 -22 -2 -12 -5z"/>
<path d="M8374 5516 c-37 -37 -38 -50 -3 -25 19 13 36 25 38 27 3 1 0 6 -5 11
-5 5 -18 0 -30 -13z"/>
<path d="M8143 4095 c-3 -9 -3 -18 -1 -21 3 -3 8 4 11 16 6 23 -1 27 -10 5z"/>
<path d="M5293 4043 c9 -2 23 -2 30 0 6 3 -1 5 -18 5 -16 0 -22 -2 -12 -5z"/>
<path d="M7654 3849 c-19 -22 -19 -22 6 -14 14 4 32 13 40 21 12 12 12 14 -6
14 -12 0 -29 -10 -40 -21z"/>
<path d="M7580 3745 c-7 -9 -11 -17 -9 -20 3 -2 10 5 17 15 14 24 10 26 -8 5z"/>
<path d="M2025 3560 l-20 -9 20 1 c11 0 31 4 45 8 l25 8 -25 0 c-14 0 -34 -3
-45 -8z"/>
<path d="M6665 2690 c-3 -5 3 -10 14 -10 12 0 21 5 21 10 0 6 -6 10 -14 10 -8
0 -18 -4 -21 -10z"/>
<path d="M6635 2670 c-3 -5 -1 -10 4 -10 6 0 11 5 11 10 0 6 -2 10 -4 10 -3 0
-8 -4 -11 -10z"/>
<path d="M6530 2590 c-13 -8 -12 -10 3 -10 9 0 17 5 17 10 0 12 -1 12 -20 0z"/>
<path d="M5045 2370 l-30 -8 33 -1 c17 0 32 4 32 9 0 6 -1 9 -2 9 -2 -1 -16
-5 -33 -9z"/>
<path d="M4940 2340 c0 -5 7 -7 15 -4 8 4 15 8 15 10 0 2 -7 4 -15 4 -8 0 -15
-4 -15 -10z"/>
<path d="M3820 2305 c-16 -19 0 -19 26 0 16 12 16 14 3 15 -9 0 -22 -7 -29
-15z"/>
<path d="M5980 2279 c0 -5 5 -7 10 -4 6 3 10 8 10 11 0 2 -4 4 -10 4 -5 0 -10
-5 -10 -11z"/>
<path d="M5903 2245 c0 -8 4 -12 9 -9 4 3 8 9 8 15 0 5 -4 9 -8 9 -5 0 -9 -7
-9 -15z"/>
<path d="M8566 2181 c-13 -5 -16 -10 -8 -15 6 -4 24 0 39 8 23 13 24 15 8 15
-11 0 -29 -4 -39 -8z"/>
<path d="M4680 1480 c0 -5 7 -7 15 -4 8 4 15 8 15 10 0 2 -7 4 -15 4 -8 0 -15
-4 -15 -10z"/>
</g>
</svg>
