<?xml version="1.0" standalone="no"?>
<!DOCTYPE svg PUBLIC "-//W3C//DTD SVG 20010904//EN"
 "http://www.w3.org/TR/2001/REC-SVG-20010904/DTD/svg10.dtd">
<svg version="1.0" xmlns="http://www.w3.org/2000/svg"
 width="1024.000000pt" height="1024.000000pt" viewBox="0 0 1024.000000 1024.000000"
 preserveAspectRatio="xMidYMid meet">
<metadata>
Created by potrace 1.16, written by Peter Selinger 2001-2019
</metadata>
<g transform="translate(0.000000,1024.000000) scale(0.100000,-0.100000)"
fill="#000000" stroke="none">
<path d="M0 5120 l0 -5120 5120 0 5120 0 0 5120 0 5120 -5120 0 -5120 0 0
-5120z m3450 4367 c69 -19 166 -49 215 -65 152 -51 163 -53 395 -62 138 -5
260 -15 315 -26 66 -13 141 -17 285 -18 206 0 311 12 540 60 438 93 568 115
805 135 166 13 322 2 490 -35 153 -34 184 -46 405 -151 188 -90 282 -126 420
-160 127 -31 168 -46 295 -106 71 -33 202 -129 262 -191 86 -89 185 -235 248
-363 115 -235 178 -466 215 -795 19 -161 8 -590 -19 -750 -104 -634 -418
-1131 -908 -1443 -118 -74 -138 -93 -169 -160 -28 -61 -31 -136 -12 -288 9
-77 9 -109 -1 -153 -30 -135 -170 -180 -258 -83 -44 48 -53 87 -53 224 0 120
-1 125 -26 150 -23 23 -31 25 -76 20 -27 -4 -64 -11 -81 -16 -18 -6 -108 -27
-202 -46 -93 -20 -188 -45 -210 -56 -67 -31 -96 -108 -72 -190 11 -37 124
-247 235 -439 11 -19 44 -78 74 -130 345 -603 401 -671 594 -716 184 -43 263
-80 332 -159 68 -77 128 -227 165 -415 51 -252 62 -292 107 -388 26 -54 86
-146 177 -265 75 -100 176 -234 224 -297 223 -295 322 -357 644 -405 353 -53
559 -112 688 -199 186 -125 161 -297 -58 -401 -70 -32 -145 -53 -280 -77 -65
-11 -136 -31 -173 -49 -56 -25 -78 -40 -139 -89 -72 -59 -232 -130 -369 -164
-370 -93 -767 -69 -1159 71 -327 116 -356 122 -710 142 -194 11 -325 34 -440
78 -166 63 -238 134 -237 232 1 127 85 195 355 285 129 43 178 72 214 128 24
35 29 54 31 123 6 124 -37 237 -154 414 -24 35 -97 171 -164 302 -111 219
-191 371 -249 474 -39 68 -152 238 -191 285 -133 163 -242 343 -274 454 -9 28
-29 119 -46 201 -53 255 -74 291 -334 575 -47 51 -169 213 -211 279 -15 25
-31 49 -36 55 -5 6 -25 32 -44 57 -19 26 -54 58 -79 73 -74 43 -140 31 -183
-33 -30 -44 -31 -139 -4 -301 32 -194 34 -220 17 -297 -26 -125 -90 -193 -181
-193 -73 0 -129 52 -160 147 -21 66 -16 196 14 338 34 164 27 254 -24 277 -50
23 -102 -32 -131 -137 -14 -53 -16 -157 -20 -880 -3 -819 2 -1037 32 -1300 62
-549 167 -839 348 -959 58 -38 143 -70 231 -86 199 -37 346 -130 411 -257 37
-75 41 -175 7 -238 -55 -104 -165 -177 -349 -230 -237 -69 -650 -74 -904 -10
-36 9 -82 21 -102 26 -20 5 -99 27 -174 49 -143 42 -292 70 -370 70 -79 0
-248 -29 -495 -85 -290 -66 -376 -81 -549 -96 -392 -33 -748 72 -828 245 -33
70 -35 105 -11 166 38 96 95 153 229 228 73 41 289 121 395 146 58 14 212 86
280 131 45 30 105 88 159 156 31 37 92 156 125 244 34 87 97 330 106 410 4 28
12 88 20 135 59 364 92 1278 61 1690 -10 118 -21 256 -26 305 -47 478 -50 528
-50 965 0 363 -17 829 -35 970 -23 181 -67 897 -71 1160 -5 322 -12 395 -47
499 -49 143 -154 175 -209 62 -22 -43 -23 -58 -23 -241 -1 -181 -2 -198 -22
-234 -57 -101 -169 -102 -228 -2 -29 50 -34 120 -16 241 14 91 14 220 0 268
-16 57 -56 97 -105 104 -35 4 -45 1 -76 -26 -113 -99 -130 -480 -38 -886 40
-178 50 -336 26 -448 -52 -254 -214 -359 -346 -227 -125 125 -154 373 -77 650
58 207 70 286 71 469 1 189 -3 217 -75 445 -87 275 -104 403 -75 559 29 151
73 238 168 328 62 59 123 92 223 121 73 21 97 22 280 20 316 -3 465 10 845 76
227 40 231 40 395 37 124 -3 154 -7 265 -38z"/>
<path d="M4291 8435 c-69 -63 -111 -172 -136 -353 -12 -91 -15 -228 -15 -710
0 -549 -4 -666 -30 -967 -26 -293 -43 -606 -34 -615 7 -7 34 -7 81 2 93 16
151 0 338 -92 87 -43 163 -73 199 -79 83 -15 218 -13 371 4 72 9 186 20 255
25 639 49 1053 297 1199 720 13 36 27 74 32 85 5 11 18 67 30 125 18 88 21
139 20 320 0 184 -4 235 -25 355 -33 182 -40 215 -69 305 -72 220 -146 348
-277 481 -85 86 -107 102 -200 148 -142 70 -256 95 -555 121 -132 12 -261 24
-286 27 -93 10 -163 -26 -203 -105 -59 -116 -86 -284 -86 -535 -1 -150 -14
-233 -46 -283 -37 -58 -65 -74 -126 -74 -86 0 -149 67 -188 196 -25 85 -25
152 0 434 29 322 -31 500 -168 500 -34 0 -49 -7 -81 -35z"/>
</g>
</svg>
