<?xml version="1.0" standalone="no"?>
<!DOCTYPE svg PUBLIC "-//W3C//DTD SVG 20010904//EN"
 "http://www.w3.org/TR/2001/REC-SVG-20010904/DTD/svg10.dtd">
<svg version="1.0" xmlns="http://www.w3.org/2000/svg"
 width="1024.000000pt" height="1024.000000pt" viewBox="0 0 1024.000000 1024.000000"
 preserveAspectRatio="xMidYMid meet">
<metadata>
Created by potrace 1.16, written by Peter Selinger 2001-2019
</metadata>
<g transform="translate(0.000000,1024.000000) scale(0.100000,-0.100000)"
fill="#000000" stroke="none">
<path d="M0 5120 l0 -5120 5120 0 5120 0 0 5120 0 5120 -5120 0 -5120 0 0
-5120z m4343 3138 c105 -31 153 -65 202 -143 40 -63 57 -102 66 -155 27 -147
28 -186 14 -325 -8 -77 -19 -194 -26 -260 -6 -66 -15 -154 -19 -195 -5 -41 -9
-119 -9 -172 -1 -85 2 -101 19 -118 44 -44 71 -20 153 141 36 70 74 140 85
155 10 16 44 67 75 114 53 81 242 316 297 370 15 14 50 45 80 70 29 25 72 61
94 81 96 84 383 269 418 269 5 0 22 6 36 14 62 34 263 106 294 106 10 0 37 7
61 15 49 17 295 45 390 45 77 0 269 -19 322 -31 175 -42 221 -58 338 -115 120
-59 210 -121 283 -191 64 -63 144 -163 144 -180 0 -6 6 -16 14 -22 8 -7 17
-24 21 -39 4 -15 13 -40 20 -57 20 -41 37 -143 42 -248 14 -246 -96 -492 -322
-721 -70 -71 -86 -94 -104 -147 -24 -73 -27 -142 -7 -213 50 -180 48 -222 -13
-273 -41 -35 -95 -31 -137 11 -31 31 -34 39 -34 94 0 33 9 88 21 123 14 45 19
83 17 129 -4 78 -25 112 -83 134 -36 14 -45 14 -89 1 -60 -18 -70 -26 -110
-90 -33 -51 -56 -137 -56 -209 0 -61 20 -202 41 -288 11 -43 19 -113 19 -156
0 -94 -26 -151 -87 -192 -32 -22 -48 -25 -118 -25 -77 1 -84 3 -122 33 -64 50
-77 87 -70 206 2 56 11 119 19 141 46 126 63 228 63 380 -1 116 -5 158 -17
185 -9 19 -21 49 -26 67 -6 17 -32 64 -59 104 -26 39 -52 79 -58 87 -5 9 -16
22 -23 30 -6 7 -17 23 -23 35 -14 25 -16 27 -76 96 -58 65 -151 132 -218 157
-39 15 -75 19 -165 18 -101 0 -124 -4 -185 -28 -107 -42 -191 -92 -290 -171
-130 -105 -262 -265 -353 -430 -42 -77 -118 -233 -136 -282 -8 -21 -24 -63
-36 -93 -35 -90 -80 -229 -80 -251 0 -11 -6 -32 -14 -47 -8 -15 -17 -50 -21
-77 -4 -28 -12 -58 -16 -67 -10 -19 -29 -106 -59 -273 -11 -60 -24 -125 -30
-145 -5 -19 -12 -73 -15 -120 -4 -47 -13 -128 -21 -180 -28 -194 -38 -578 -25
-903 7 -166 17 -324 22 -352 5 -27 15 -93 23 -145 9 -52 20 -113 25 -135 6
-22 22 -94 37 -160 26 -120 32 -141 76 -290 19 -65 23 -103 23 -205 0 -157
-13 -186 -140 -320 -79 -83 -93 -103 -109 -157 -18 -60 -18 -65 -1 -145 9 -46
26 -110 36 -143 25 -79 24 -130 -2 -172 -54 -87 -197 -64 -215 34 -7 37 3 103
31 203 18 64 22 193 6 232 -12 31 -57 58 -98 58 -56 0 -105 -40 -143 -114 -34
-69 -35 -71 -34 -195 1 -112 6 -143 41 -286 65 -257 68 -277 52 -342 -15 -65
-46 -106 -100 -133 -79 -41 -178 -11 -234 71 -47 69 -43 150 22 434 9 39 18
132 21 207 4 127 3 140 -18 183 -42 88 -81 115 -163 115 -46 0 -59 -4 -91 -32
-30 -27 -38 -43 -47 -90 -11 -64 2 -222 26 -318 16 -63 11 -117 -16 -172 -24
-47 -45 -58 -113 -58 -112 0 -147 72 -106 217 12 43 28 92 35 108 39 89 44
248 11 317 -22 46 -75 102 -146 155 -100 73 -168 157 -214 263 -31 70 -29 250
3 350 13 41 27 80 31 85 16 22 199 496 230 595 54 176 59 192 74 283 8 48 17
91 20 96 22 36 39 1361 21 1641 -16 253 -64 584 -105 735 -10 39 -22 87 -26
108 -3 20 -10 40 -15 43 -5 3 -9 12 -9 20 0 22 -55 144 -95 212 -71 121 -192
212 -281 212 -52 0 -121 -24 -151 -52 -41 -38 -73 -123 -79 -212 -7 -92 2
-164 42 -352 28 -130 28 -132 11 -187 -32 -103 -111 -148 -231 -133 -45 6 -59
13 -97 52 l-44 45 1 112 c0 74 6 131 17 167 23 76 47 215 47 275 0 61 -19 122
-59 195 -69 126 -81 155 -81 205 0 87 71 196 180 276 69 51 200 139 207 139 3
0 15 7 25 17 10 9 26 21 37 27 10 6 36 21 57 34 22 12 53 31 69 42 17 11 41
25 55 32 14 7 30 17 35 21 10 9 30 20 273 164 73 43 140 83 150 88 9 6 45 27
80 48 35 20 68 37 74 37 6 0 19 6 27 14 9 7 50 28 91 46 41 17 89 37 105 44
202 87 373 108 518 64z"/>
</g>
</svg>
