<?xml version="1.0" standalone="no"?>
<!DOCTYPE svg PUBLIC "-//W3C//DTD SVG 20010904//EN"
 "http://www.w3.org/TR/2001/REC-SVG-20010904/DTD/svg10.dtd">
<svg version="1.0" xmlns="http://www.w3.org/2000/svg"
 width="1024.000000pt" height="1024.000000pt" viewBox="0 0 1024.000000 1024.000000"
 preserveAspectRatio="xMidYMid meet">
<metadata>
Created by potrace 1.16, written by Peter Selinger 2001-2019
</metadata>
<g transform="translate(0.000000,1024.000000) scale(0.100000,-0.100000)"
fill="#000000" stroke="none">
<path d="M0 5120 l0 -5120 5120 0 5120 0 0 5120 0 5120 -5120 0 -5120 0 0
-5120z m5685 4221 c33 -5 114 -17 180 -26 100 -14 318 -54 375 -70 8 -2 56
-13 105 -25 93 -22 341 -100 455 -143 89 -33 296 -134 347 -169 23 -15 46 -28
52 -28 6 0 16 -9 23 -20 7 -11 17 -20 23 -20 6 0 23 -13 38 -30 16 -16 33 -30
39 -30 20 0 143 -144 170 -200 6 -14 17 -32 24 -40 22 -28 64 -165 75 -245 20
-144 -1 -280 -63 -414 -24 -52 -52 -87 -130 -163 -54 -53 -103 -109 -109 -125
-7 -21 -5 -55 7 -124 23 -131 30 -301 13 -342 -34 -84 -92 -127 -170 -127 -80
0 -153 47 -179 115 -16 41 -14 151 5 230 8 37 15 95 15 129 0 81 -13 93 -129
117 -104 21 -207 65 -265 113 -96 78 -145 77 -228 -6 -10 -10 -18 -21 -18 -25
-1 -19 -123 -135 -171 -164 -75 -44 -163 -51 -237 -19 -82 36 -140 108 -208
261 -74 168 -134 251 -223 308 -148 96 -324 94 -422 -3 -56 -55 -90 -123 -129
-256 -17 -58 -38 -118 -47 -135 -52 -99 -140 -137 -231 -100 -66 28 -95 82
-112 207 -21 153 -56 218 -118 218 -48 0 -87 -24 -108 -67 -28 -56 -24 -261 6
-398 32 -138 37 -259 13 -305 -47 -90 -185 -96 -236 -10 -9 15 -22 60 -28 101
-6 40 -15 84 -20 96 -12 33 -52 39 -89 13 -145 -103 -191 -453 -88 -677 15
-34 28 -64 28 -68 0 -10 62 -99 72 -103 4 -2 8 -8 8 -14 0 -6 29 -38 64 -72
100 -95 140 -126 211 -161 22 -11 42 -22 45 -25 8 -9 116 -60 126 -60 5 0 26
-9 46 -20 46 -24 385 -126 498 -149 25 -5 58 -15 74 -21 16 -6 41 -12 55 -15
14 -2 53 -11 86 -20 33 -9 71 -19 85 -21 52 -11 295 -77 430 -119 47 -15 110
-33 140 -41 30 -8 64 -18 75 -23 18 -8 60 -23 60 -22 0 1 154 -54 274 -99 47
-17 89 -34 95 -39 6 -5 45 -23 86 -40 93 -40 205 -96 220 -111 9 -9 44 -30 66
-39 55 -24 218 -139 281 -198 19 -18 38 -33 43 -33 11 0 99 -83 177 -167 78
-84 117 -132 141 -176 13 -23 34 -53 46 -67 30 -33 84 -124 136 -230 22 -47
45 -92 50 -101 15 -28 61 -147 65 -168 2 -12 6 -25 9 -30 8 -12 76 -280 74
-289 -1 -4 1 -16 5 -27 3 -11 16 -78 27 -150 43 -273 77 -443 109 -550 53
-174 62 -219 62 -296 0 -128 -54 -199 -151 -199 -54 0 -82 17 -116 71 -28 45
-59 51 -88 18 -30 -35 -66 -109 -94 -194 -24 -73 -27 -93 -26 -230 0 -90 7
-191 18 -252 46 -284 10 -420 -128 -480 -73 -32 -181 10 -221 87 -8 15 -19 67
-25 115 -16 128 -34 155 -102 155 -36 0 -101 -44 -116 -79 -6 -15 -12 -82 -14
-151 -4 -130 -14 -165 -56 -203 -45 -41 -147 -24 -176 29 -6 10 -22 34 -35 53
-23 32 -26 33 -73 29 -40 -4 -56 -12 -89 -44 -47 -46 -106 -157 -144 -274 -43
-130 -66 -193 -76 -212 -5 -10 -9 -25 -9 -33 0 -14 -18 -53 -30 -65 -3 -3 -16
-22 -30 -42 -31 -46 -118 -99 -178 -109 -125 -19 -228 31 -390 187 -166 161
-254 201 -405 183 -106 -13 -178 -65 -263 -190 -55 -82 -123 -151 -168 -173
-73 -35 -181 -10 -225 52 -11 16 -29 60 -39 98 -28 99 -39 121 -61 133 -54 29
-95 4 -140 -86 -35 -70 -63 -103 -106 -126 -137 -70 -258 7 -330 208 -53 149
-94 208 -173 249 -58 29 -153 36 -210 15 -68 -26 -103 -62 -148 -153 -45 -91
-89 -142 -131 -152 -71 -18 -158 45 -168 121 -26 209 -36 257 -64 314 -45 89
-97 115 -141 71 -27 -27 -25 -56 10 -160 46 -137 40 -228 -19 -290 -70 -74
-177 -78 -254 -10 -70 62 -81 147 -53 415 13 122 10 205 -9 265 -4 13 -33 63
-65 111 -63 95 -115 217 -132 308 -15 80 -4 265 19 321 38 91 121 219 157 242
6 3 22 15 35 27 13 11 43 30 67 42 24 11 44 25 44 30 0 5 11 9 23 9 13 0 37 7
54 15 50 25 196 30 291 11 78 -16 173 -52 180 -68 2 -5 8 -8 14 -8 33 0 146
-102 258 -231 69 -80 98 -109 109 -109 5 0 16 -8 23 -18 7 -10 42 -38 78 -62
36 -24 67 -46 70 -50 9 -13 215 -108 270 -125 30 -10 69 -23 85 -30 50 -22
203 -56 330 -73 145 -19 496 -22 605 -4 41 7 91 14 110 17 103 14 238 45 325
76 116 40 240 91 285 117 25 14 64 36 88 49 47 25 54 30 121 91 27 23 53 42
59 42 6 0 12 4 14 9 2 6 32 41 68 79 67 70 94 104 120 151 8 14 17 28 20 31 3
3 17 28 32 55 75 142 126 393 112 558 -11 137 -70 303 -114 327 -12 6 -33 10
-48 8 -35 -4 -56 -49 -70 -149 -16 -127 -72 -208 -144 -211 -73 -3 -91 3 -128
40 -25 25 -41 51 -46 77 -4 23 0 124 9 235 27 302 21 374 -38 474 -86 147
-425 329 -650 349 -96 9 -140 -8 -219 -84 -104 -100 -141 -126 -197 -139 -62
-15 -128 -6 -194 27 -91 45 -154 123 -255 318 -116 224 -195 319 -306 370 -49
23 -70 26 -125 23 -78 -4 -116 -26 -169 -96 -80 -105 -160 -151 -277 -159
-120 -9 -219 41 -287 144 -35 54 -73 176 -81 258 -10 113 -33 240 -56 307 -23
66 -69 161 -81 166 -5 2 -8 8 -8 12 0 5 -25 51 -55 102 -52 87 -112 204 -141
273 -6 17 -17 41 -23 55 -42 98 -95 302 -110 428 -6 46 -13 87 -16 92 -3 5 -6
105 -6 222 -1 203 14 379 41 478 5 19 23 90 40 158 30 121 89 277 149 399 17
34 31 65 31 69 0 4 10 21 23 38 12 17 29 43 36 58 8 15 22 37 33 47 10 11 18
23 18 26 0 8 53 88 66 100 6 6 22 26 35 45 60 90 263 289 389 381 74 54 140
99 147 99 3 0 14 6 22 14 9 7 50 31 91 52 41 21 77 41 80 44 9 11 78 40 93 40
9 0 19 5 22 10 25 41 493 188 695 220 36 5 76 12 90 14 91 16 167 26 250 32
52 3 97 9 100 11 8 9 621 -6 685 -16z"/>
</g>
</svg>
