<?xml version="1.0" standalone="no"?>
<!DOCTYPE svg PUBLIC "-//W3C//DTD SVG 20010904//EN"
 "http://www.w3.org/TR/2001/REC-SVG-20010904/DTD/svg10.dtd">
<svg version="1.0" xmlns="http://www.w3.org/2000/svg"
 width="1024.000000pt" height="1024.000000pt" viewBox="0 0 1024.000000 1024.000000"
 preserveAspectRatio="xMidYMid meet">
<metadata>
Created by potrace 1.16, written by Peter Selinger 2001-2019
</metadata>
<g transform="translate(0.000000,1024.000000) scale(0.100000,-0.100000)"
fill="#000000" stroke="none">
<path d="M0 5120 l0 -5120 5120 0 5120 0 0 5120 0 5120 -5120 0 -5120 0 0
-5120z m5642 4651 c163 -45 295 -123 449 -267 51 -48 108 -93 126 -100 41 -18
92 -17 218 1 258 38 456 1 648 -118 87 -55 153 -116 232 -215 32 -40 66 -77
77 -83 10 -6 61 -16 113 -24 174 -26 309 -83 455 -193 279 -209 430 -490 430
-801 0 -152 -27 -260 -102 -404 -40 -77 -111 -157 -246 -277 -37 -33 -54 -57
-63 -90 -15 -54 -17 -200 -5 -371 8 -116 7 -128 -12 -172 -50 -113 -194 -126
-260 -23 -27 41 -27 41 -27 238 0 184 -1 198 -21 225 -45 60 -118 68 -249 28
-101 -31 -180 -86 -230 -160 -43 -65 -91 -100 -157 -114 -88 -20 -178 16 -241
95 -29 38 -33 116 -12 260 27 188 6 342 -70 499 -62 127 -128 194 -220 220
-95 28 -185 -14 -232 -110 -38 -76 -45 -208 -18 -345 43 -217 42 -267 -8 -341
-69 -104 -244 -104 -314 0 -48 70 -53 140 -23 271 59 249 63 279 57 420 -6
150 -24 220 -82 325 -42 76 -89 123 -157 160 -44 24 -68 30 -139 33 -118 6
-176 -14 -245 -83 -82 -81 -99 -164 -69 -322 21 -112 20 -200 -5 -240 -36 -60
-123 -78 -185 -37 -43 28 -56 66 -64 191 l-8 117 -34 28 c-48 40 -102 53 -159
39 -64 -16 -91 -39 -125 -106 -30 -58 -30 -60 -29 -219 1 -155 2 -167 42 -321
62 -235 55 -315 -29 -373 -29 -20 -44 -23 -101 -20 -77 4 -108 25 -139 93 -23
49 -23 100 -4 240 24 166 2 251 -72 281 -84 36 -150 -26 -186 -176 -73 -301
-25 -547 140 -716 156 -159 327 -243 673 -329 252 -63 268 -66 1005 -181 536
-85 557 -88 835 -156 409 -99 705 -217 915 -363 297 -207 505 -469 664 -837
166 -384 248 -847 221 -1245 -23 -344 -107 -590 -286 -843 -145 -206 -172
-251 -205 -340 -43 -119 -50 -261 -20 -454 41 -269 26 -392 -59 -476 -71 -72
-158 -95 -252 -67 -54 17 -92 49 -123 102 -27 48 -31 64 -45 185 -18 161 -62
225 -176 256 -55 15 -74 15 -136 5 -282 -46 -391 -271 -290 -591 42 -129 56
-210 49 -279 -12 -140 -115 -241 -246 -241 -108 0 -185 45 -230 134 -26 54
-31 149 -11 257 7 35 12 101 12 146 1 71 -3 90 -28 140 -33 66 -92 116 -157
134 -110 30 -269 -24 -378 -127 -105 -101 -156 -198 -190 -362 -24 -112 -48
-162 -99 -197 -67 -46 -149 -23 -194 55 -17 30 -21 60 -26 196 -6 183 -14 205
-79 225 -46 14 -74 8 -122 -23 -86 -58 -110 -215 -68 -463 12 -77 23 -183 23
-235 1 -85 -3 -102 -27 -153 -61 -123 -203 -172 -326 -111 -127 64 -171 226
-116 424 73 264 77 285 82 415 5 116 3 136 -17 188 -41 108 -105 157 -207 157
-126 -1 -223 -91 -223 -209 0 -57 -25 -114 -59 -134 -23 -13 -42 -16 -89 -11
-128 14 -138 -6 -97 -206 35 -167 31 -243 -15 -337 -49 -99 -135 -147 -262
-146 -115 0 -212 64 -262 172 -33 73 -29 215 12 351 78 264 81 404 13 555 -55
121 -137 185 -249 193 -103 7 -171 -32 -221 -126 -29 -54 -33 -142 -15 -319
14 -142 15 -182 5 -225 -28 -121 -99 -189 -206 -196 -84 -6 -131 11 -182 65
-78 81 -87 171 -53 541 26 285 -40 522 -178 634 -60 49 -122 64 -199 48 -50
-10 -65 -19 -108 -64 -81 -83 -86 -108 -95 -411 -6 -236 -9 -264 -29 -309 -31
-69 -57 -103 -105 -134 -36 -24 -51 -27 -121 -27 -96 0 -140 20 -202 89 -88
99 -98 216 -40 496 49 236 57 300 57 454 0 134 -7 183 -55 391 -44 190 -38
374 16 523 85 235 244 408 479 523 153 75 297 103 495 96 209 -8 326 -40 489
-136 91 -53 173 -130 275 -256 98 -120 258 -276 360 -350 281 -205 656 -338
1101 -390 231 -27 565 -14 759 30 456 105 790 388 877 745 20 84 15 240 -10
310 -48 132 -153 204 -225 154 -26 -19 -51 -71 -51 -108 0 -41 -32 -124 -56
-147 -56 -53 -167 -30 -199 41 -18 40 -18 93 1 287 7 72 -7 143 -38 186 -42
59 -166 87 -228 51 -51 -31 -63 -66 -65 -195 -3 -144 -18 -183 -85 -216 -58
-29 -113 -19 -152 28 -45 53 -52 108 -32 250 28 206 11 291 -73 371 -105 100
-261 125 -366 58 -35 -22 -52 -43 -78 -96 l-34 -69 0 -155 c1 -123 6 -179 25
-270 14 -71 24 -152 24 -210 1 -84 -2 -100 -24 -140 -63 -113 -248 -127 -325
-25 -61 80 -68 156 -29 355 63 322 15 519 -171 705 -157 157 -346 214 -462
139 -35 -22 -60 -82 -67 -164 -8 -89 -23 -150 -37 -150 -6 0 -8 -4 -4 -9 8
-13 -41 -60 -70 -67 -60 -15 -129 18 -161 79 -15 27 -18 61 -18 202 -1 179 -6
202 -50 237 -12 11 -38 18 -64 18 -52 0 -92 -35 -93 -84 -4 -190 -6 -212 -28
-254 -58 -113 -195 -109 -257 8 -15 29 -19 68 -25 235 -7 231 -22 293 -94 410
-67 108 -155 175 -232 175 -71 0 -97 -37 -109 -153 -4 -37 -16 -81 -28 -103
-59 -104 -206 -92 -257 20 -24 54 -24 136 1 306 42 291 24 422 -92 655 -86
174 -145 351 -182 549 -95 508 -35 1041 169 1496 64 144 175 336 241 419 7 9
42 54 79 101 308 392 778 669 1265 746 135 21 391 21 605 0 258 -26 288 -24
381 25 293 155 332 172 476 204 92 21 318 13 420 -14z"/>
</g>
</svg>
