<?xml version="1.0" standalone="no"?>
<!DOCTYPE svg PUBLIC "-//W3C//DTD SVG 20010904//EN"
 "http://www.w3.org/TR/2001/REC-SVG-20010904/DTD/svg10.dtd">
<svg version="1.0" xmlns="http://www.w3.org/2000/svg"
 width="1024.000000pt" height="1024.000000pt" viewBox="0 0 1024.000000 1024.000000"
 preserveAspectRatio="xMidYMid meet">
<metadata>
Created by potrace 1.16, written by Peter Selinger 2001-2019
</metadata>
<g transform="translate(0.000000,1024.000000) scale(0.100000,-0.100000)"
fill="#000000" stroke="none">
<path d="M0 5120 l0 -5120 5120 0 5120 0 0 5120 0 5120 -5120 0 -5120 0 0
-5120z m5455 4120 c11 -5 33 -11 48 -15 15 -3 31 -13 34 -23 4 -9 11 -20 16
-23 5 -3 11 -26 13 -50 2 -24 9 -60 16 -79 9 -26 11 -186 10 -595 -2 -762 8
-908 64 -940 10 -5 27 -18 38 -27 11 -10 36 -20 55 -24 20 -3 50 -10 66 -15
17 -5 320 -9 675 -10 479 -2 650 -5 665 -14 11 -6 32 -15 47 -19 15 -3 32 -15
38 -26 6 -11 16 -20 23 -20 7 0 21 -13 31 -27 15 -21 21 -47 23 -117 2 -50 9
-104 16 -121 8 -21 12 -98 12 -250 -1 -226 -10 -297 -60 -490 -22 -86 -96
-233 -143 -283 -62 -68 -101 -84 -223 -91 -113 -7 -144 -19 -175 -66 -9 -13
-13 -28 -10 -33 3 -5 8 -49 11 -98 3 -49 10 -103 16 -121 11 -35 -1 -124 -23
-171 -7 -14 -32 -39 -56 -55 -77 -52 -171 -41 -242 28 -37 36 -49 66 -56 144
-2 18 -10 41 -19 51 -20 22 -19 61 5 145 24 84 21 106 -20 124 -37 16 -112 7
-130 -14 -7 -8 -16 -15 -20 -15 -10 0 -63 -44 -103 -85 -49 -50 -57 -82 -57
-220 0 -137 -9 -173 -54 -214 -30 -28 -84 -33 -111 -11 -25 20 -68 117 -61
135 3 9 -3 20 -14 27 -18 11 -20 24 -20 118 -1 112 -5 125 -52 149 -55 29
-104 -22 -119 -123 -5 -34 -9 -556 -9 -1171 0 -913 2 -1130 14 -1220 15 -117
55 -238 87 -267 11 -9 19 -23 19 -32 0 -9 5 -16 10 -16 6 0 14 -8 17 -17 9
-23 84 -93 100 -93 7 0 17 -9 23 -20 6 -11 19 -20 29 -20 10 0 24 -7 31 -15 7
-8 22 -15 34 -15 11 0 30 -7 40 -15 11 -8 33 -15 48 -15 16 0 43 -8 61 -17 48
-25 351 -26 390 -1 14 10 40 18 56 18 28 0 55 9 136 46 17 7 42 16 57 20 15 3
32 12 39 20 6 8 17 14 24 14 6 0 22 9 35 20 13 11 27 20 32 20 5 0 16 7 24 15
9 8 24 15 34 15 10 0 20 7 24 15 3 8 12 15 21 15 8 0 15 4 15 9 0 5 21 25 48
44 26 19 57 43 70 53 21 17 209 204 293 292 28 29 36 32 89 32 76 0 85 -4 119
-54 16 -22 41 -54 55 -69 14 -15 26 -35 26 -43 0 -7 4 -14 9 -14 5 0 11 -8 15
-17 6 -19 63 -102 97 -142 14 -17 18 -32 14 -51 -4 -18 0 -34 13 -51 11 -13
22 -34 26 -45 4 -12 18 -34 31 -48 19 -21 25 -38 25 -75 0 -26 4 -51 9 -57 13
-12 16 -80 6 -129 -4 -22 -22 -71 -40 -110 -32 -68 -89 -212 -113 -286 -16
-47 -15 -72 5 -181 10 -51 18 -118 17 -149 -1 -136 -111 -239 -224 -209 -26 7
-62 32 -107 75 -75 71 -105 80 -174 51 -51 -21 -74 -53 -104 -139 -27 -81 -29
-116 -9 -274 10 -84 -29 -183 -82 -208 -18 -8 -50 -15 -73 -15 -54 0 -114 55
-130 120 -6 25 -18 57 -26 72 -8 14 -15 46 -15 70 0 86 -18 104 -82 79 -24
-10 -150 -129 -207 -196 -39 -47 -81 -130 -81 -163 0 -37 -31 -144 -57 -199
-32 -67 -85 -96 -156 -87 -42 6 -51 12 -82 54 -19 26 -35 54 -35 62 0 7 -7 23
-15 35 -17 25 -65 156 -69 189 -1 12 -12 34 -24 49 -12 15 -22 33 -22 40 0 27
-91 85 -135 85 -26 0 -105 -71 -182 -162 -50 -59 -146 -118 -224 -139 -58 -15
-83 -17 -142 -9 -71 10 -137 29 -187 55 -14 7 -43 21 -65 31 -33 16 -116 73
-135 94 -3 3 -27 24 -55 46 -54 44 -74 52 -146 60 -42 5 -50 2 -79 -26 l-32
-31 6 -115 c8 -134 -2 -185 -46 -230 -29 -31 -97 -58 -128 -51 -32 8 -56 22
-81 47 -34 33 -45 56 -54 109 -4 25 -14 52 -23 60 -13 13 -14 44 -9 204 2 105
1 204 -4 221 -6 17 -10 49 -10 71 -2 88 -52 136 -108 102 -31 -19 -40 -48 -45
-149 -7 -142 -72 -207 -198 -199 -44 3 -128 118 -128 177 0 13 -4 24 -8 24
-15 0 -34 117 -28 181 2 35 5 71 6 79 1 8 8 35 17 59 20 56 11 170 -17 216
-12 19 -17 40 -13 54 3 12 -1 36 -10 54 -18 37 -47 129 -47 151 0 8 -6 27 -14
43 -29 58 -45 110 -52 166 -3 31 -10 60 -15 63 -5 3 -9 29 -9 57 0 29 -6 61
-14 72 -8 13 -15 64 -19 137 -4 66 -12 128 -19 140 -19 34 -19 1123 0 1189 11
35 11 59 3 103 -7 40 -8 64 0 77 6 11 13 88 16 172 3 84 11 186 18 227 15 85
11 334 -6 388 -16 48 -15 183 2 362 15 167 18 359 7 401 -9 31 -74 79 -108 79
-32 0 -85 -42 -100 -82 -8 -18 -36 -69 -64 -113 l-51 -80 -3 -121 c-3 -85 0
-129 9 -145 15 -29 41 -220 42 -309 0 -49 -5 -75 -23 -108 -42 -80 -134 -130
-215 -117 -74 11 -163 85 -170 141 -1 15 -8 30 -15 34 -8 5 -10 17 -7 31 4 14
-1 32 -12 48 -25 35 -36 117 -20 137 7 9 16 37 20 62 4 26 11 61 17 77 20 58
34 121 42 193 5 41 11 76 14 79 2 3 0 17 -5 32 -6 14 -12 41 -15 60 -2 19 -11
42 -19 51 -8 9 -15 25 -15 36 0 11 -10 35 -23 54 -13 19 -29 55 -37 80 -7 25
-21 61 -31 80 -9 19 -23 50 -31 68 -7 19 -20 32 -30 32 -10 0 -18 5 -18 10 0
6 -3 10 -7 10 -10 0 -37 -59 -58 -126 -15 -50 -57 -100 -102 -123 -31 -16 -87
-14 -131 4 -38 17 -92 70 -92 93 0 7 -5 23 -12 35 -7 12 -11 34 -9 48 1 14 -5
31 -13 39 -22 18 -23 302 -1 374 20 67 21 276 1 315 -27 52 6 330 47 392 24
36 77 81 123 103 34 17 67 20 250 24 180 3 220 1 275 -14 78 -22 114 -22 204
0 38 9 80 16 91 16 12 0 43 12 68 28 84 49 91 52 109 52 31 0 97 48 97 70 0 6
9 30 21 55 11 24 23 66 26 92 3 26 6 256 7 510 1 506 -4 466 62 518 18 14 37
25 43 25 6 0 11 4 11 8 0 15 81 62 106 62 13 0 24 5 24 10 0 9 26 23 120 64 8
3 29 15 45 26 37 25 72 40 90 40 8 0 17 5 20 10 3 6 18 10 33 10 15 0 41 9 57
20 17 11 39 20 50 20 11 0 29 7 39 15 11 8 31 15 45 15 14 0 39 7 55 15 15 8
41 15 56 15 15 0 33 7 40 15 7 8 28 15 47 15 19 0 55 9 81 19 26 11 77 22 114
25 38 3 77 10 87 16 11 5 50 10 88 10 44 0 76 5 90 15 32 23 346 27 398 5z"/>
</g>
</svg>
