<?xml version="1.0" standalone="no"?>
<!DOCTYPE svg PUBLIC "-//W3C//DTD SVG 20010904//EN"
 "http://www.w3.org/TR/2001/REC-SVG-20010904/DTD/svg10.dtd">
<svg version="1.0" xmlns="http://www.w3.org/2000/svg"
 width="1024.000000pt" height="1024.000000pt" viewBox="0 0 1024.000000 1024.000000"
 preserveAspectRatio="xMidYMid meet">
<metadata>
Created by potrace 1.16, written by Peter Selinger 2001-2019
</metadata>
<g transform="translate(0.000000,1024.000000) scale(0.100000,-0.100000)"
fill="#000000" stroke="none">
<path d="M0 5120 l0 -5120 5120 0 5120 0 0 5120 0 5120 -5120 0 -5120 0 0
-5120z m2100 4545 c14 -7 48 -15 77 -18 28 -3 60 -10 70 -15 10 -6 29 -15 43
-21 14 -7 45 -23 70 -36 25 -14 50 -25 57 -25 6 0 35 -12 65 -26 129 -63 211
-92 273 -97 28 -3 73 -10 100 -17 60 -14 491 -6 564 11 66 15 366 -9 446 -35
22 -8 74 -21 115 -31 41 -9 84 -20 95 -25 11 -4 56 -16 100 -25 44 -10 112
-26 150 -36 114 -29 237 -41 378 -36 151 5 228 17 377 57 58 15 132 33 165 39
33 7 78 17 100 22 138 36 492 60 594 40 31 -6 109 -15 172 -20 63 -5 126 -14
142 -20 15 -6 73 -10 130 -10 56 0 134 -5 172 -12 118 -21 469 -11 740 20 212
25 262 32 285 40 14 5 70 17 125 26 55 9 115 23 133 31 18 8 46 14 63 14 16 0
44 7 62 16 17 9 59 23 94 30 35 7 73 20 85 28 12 9 34 16 48 16 26 0 99 21
158 46 18 8 44 14 58 14 14 0 35 5 47 12 19 10 145 28 212 30 25 0 153 -18
220 -32 28 -6 73 -26 101 -45 28 -19 55 -35 61 -35 12 0 112 -101 126 -127 6
-10 18 -27 27 -38 30 -34 77 -166 90 -255 25 -170 -6 -470 -60 -580 -21 -42
-38 -89 -45 -120 -4 -19 -20 -61 -36 -94 -16 -32 -29 -66 -29 -76 0 -11 -5
-22 -11 -25 -5 -4 -28 -44 -49 -88 -34 -71 -67 -131 -147 -273 -10 -17 -33
-62 -51 -100 -18 -38 -39 -82 -47 -97 -32 -62 -56 -189 -57 -296 0 -108 11
-168 77 -416 12 -45 41 -251 38 -266 -1 -3 -5 -41 -8 -85 -12 -137 -90 -267
-181 -301 -111 -41 -148 -40 -242 4 -109 52 -205 226 -187 342 3 25 10 71 14
101 4 30 15 69 24 85 9 17 17 42 17 57 0 15 4 29 9 32 5 4 23 42 40 87 33 86
41 173 20 226 -6 15 -13 46 -16 67 -6 55 -23 83 -90 147 -63 62 -106 87 -168
102 -87 20 -123 19 -197 -3 -66 -21 -80 -30 -143 -95 -64 -66 -73 -80 -99
-161 -16 -49 -32 -98 -36 -109 -4 -11 -20 -58 -35 -105 -41 -123 -100 -205
-175 -246 -46 -24 -152 -25 -197 -1 -56 30 -100 87 -122 157 -18 56 -21 97
-23 300 -3 200 -6 239 -20 265 -10 17 -24 45 -33 63 -57 121 -243 194 -374
147 -63 -22 -156 -100 -179 -150 -5 -11 -23 -47 -40 -80 -16 -33 -32 -78 -36
-100 -4 -22 -14 -78 -22 -125 -8 -47 -24 -146 -34 -220 -21 -154 -35 -222 -50
-249 -5 -11 -10 -30 -10 -43 0 -13 -9 -41 -20 -63 -11 -22 -20 -47 -20 -57 0
-20 -18 -90 -50 -198 -62 -208 -77 -359 -45 -464 8 -27 15 -67 15 -88 0 -21 4
-46 10 -56 12 -22 39 -96 50 -142 24 -96 43 -156 51 -164 5 -6 9 -28 9 -51 0
-23 6 -47 13 -54 16 -16 17 -260 1 -310 -7 -20 -15 -62 -18 -93 -3 -32 -12
-72 -20 -90 -28 -67 -78 -266 -98 -388 -21 -127 -10 -387 17 -441 8 -15 15
-53 15 -83 0 -30 5 -67 11 -83 20 -49 49 -167 49 -198 0 -17 5 -36 11 -42 23
-23 50 -281 42 -403 -3 -41 -11 -97 -19 -124 -7 -27 -11 -59 -8 -71 3 -12 -2
-40 -11 -61 -36 -87 -61 -426 -34 -476 6 -11 13 -54 16 -96 2 -43 8 -86 12
-97 20 -51 41 -124 47 -163 4 -23 11 -45 15 -48 5 -3 9 -16 9 -30 0 -14 7 -35
15 -47 15 -24 55 -140 55 -162 0 -7 7 -18 15 -25 8 -7 15 -25 15 -41 0 -16 4
-37 9 -47 57 -106 85 -366 56 -523 -9 -50 -21 -99 -25 -108 -5 -9 -17 -38 -25
-66 -24 -75 -88 -165 -175 -249 -87 -83 -158 -124 -310 -176 -94 -32 -97 -33
-227 -27 -103 5 -142 11 -177 27 -25 11 -52 20 -60 20 -8 0 -21 6 -28 13 -7 7
-30 23 -50 35 -38 24 -122 127 -141 172 -5 14 -13 34 -18 45 -4 11 -15 62 -23
114 -9 52 -23 102 -31 111 -8 9 -15 22 -15 29 0 26 -51 118 -82 148 -45 44
-119 73 -182 73 -65 0 -142 -26 -268 -90 -97 -50 -98 -50 -193 -50 -107 0
-187 20 -220 54 -11 12 -35 28 -52 35 -27 11 -73 46 -115 89 -21 20 -57 73
-81 119 -43 80 -71 269 -56 365 13 81 39 179 51 192 9 11 20 29 93 154 20 35
56 91 79 125 24 35 49 81 56 103 7 21 16 44 21 49 4 6 15 53 24 105 22 125 12
255 -35 440 -11 47 -26 112 -31 145 -14 79 -4 266 16 305 8 16 15 44 15 63 0
18 7 42 15 53 8 10 15 25 15 33 0 8 8 32 19 55 10 23 26 68 36 101 9 33 22 71
28 85 46 108 58 176 67 380 5 113 7 221 3 240 -13 81 -68 287 -81 304 -5 6
-14 31 -21 55 -7 25 -21 61 -32 80 -10 20 -19 44 -19 54 0 20 -25 73 -45 97
-7 8 -20 38 -30 65 -9 28 -25 64 -35 80 -24 39 -50 113 -50 145 0 14 -7 46
-14 72 -25 81 -29 175 -12 287 8 58 20 109 26 115 5 5 10 19 10 31 0 11 9 35
20 53 11 18 20 38 20 45 0 6 12 35 25 62 14 28 25 59 25 69 0 18 25 79 51 128
5 10 9 26 9 37 0 10 9 38 20 62 11 24 20 52 20 62 0 11 6 33 14 50 27 60 50
216 50 337 0 108 -19 256 -36 282 -8 13 -20 40 -27 60 -7 20 -19 42 -27 48 -7
7 -14 20 -14 29 0 43 -113 111 -184 111 -57 0 -139 -47 -163 -94 -38 -72 -43
-122 -31 -283 9 -115 9 -161 0 -191 -29 -97 -136 -159 -242 -140 -30 5 -64 17
-75 26 -28 24 -69 82 -83 117 -19 50 -25 137 -11 170 13 32 20 65 43 190 8 44
21 99 30 123 9 26 16 85 18 155 2 100 0 116 -20 152 -12 22 -22 45 -22 52 0 6
-8 18 -18 25 -10 7 -27 27 -39 43 -31 43 -137 94 -219 104 -127 15 -195 -11
-297 -112 -96 -95 -130 -160 -158 -302 -13 -68 -13 -278 2 -393 5 -42 14 -116
19 -165 5 -48 17 -104 25 -123 8 -20 15 -61 15 -90 0 -29 6 -71 14 -91 41
-112 53 -383 23 -483 -17 -56 -101 -190 -119 -190 -5 0 -25 -12 -45 -27 -53
-40 -250 -73 -268 -44 -3 5 -20 13 -37 17 -65 14 -158 94 -158 136 0 8 -11 35
-24 59 -12 25 -26 65 -29 89 -12 92 36 466 72 553 6 16 11 42 11 58 0 17 6 42
14 57 7 15 16 53 19 85 3 32 10 64 15 70 5 7 13 37 17 67 4 30 14 72 21 94 8
22 14 78 14 133 0 83 -3 100 -26 141 -32 58 -52 80 -84 97 -78 39 -179 24
-240 -37 -22 -22 -40 -46 -40 -53 0 -7 -5 -15 -11 -17 -14 -5 -55 -164 -64
-249 -15 -144 -112 -249 -231 -249 -29 0 -55 4 -59 9 -3 5 -19 12 -35 16 -17
4 -30 11 -30 15 0 5 -13 24 -29 42 -66 76 -83 145 -64 253 10 56 13 133 10
255 -4 167 -5 179 -36 265 -18 50 -41 99 -51 110 -10 11 -22 32 -25 48 -4 15
-11 27 -16 27 -5 0 -23 29 -40 65 -17 36 -36 68 -42 72 -18 12 -49 61 -81 128
-15 33 -39 81 -53 107 -13 26 -35 87 -49 135 -13 49 -29 105 -36 125 -6 21
-11 99 -12 175 -1 134 6 177 39 258 7 17 16 41 20 55 11 37 66 150 93 190 18
27 100 121 150 172 77 79 325 208 400 208 16 0 45 7 63 15 27 12 57 14 149 9
63 -3 126 -12 140 -19z"/>
</g>
</svg>
