<?xml version="1.0" standalone="no"?>
<!DOCTYPE svg PUBLIC "-//W3C//DTD SVG 20010904//EN"
 "http://www.w3.org/TR/2001/REC-SVG-20010904/DTD/svg10.dtd">
<svg version="1.0" xmlns="http://www.w3.org/2000/svg"
 width="1024.000000pt" height="1024.000000pt" viewBox="0 0 1024.000000 1024.000000"
 preserveAspectRatio="xMidYMid meet">
<metadata>
Created by potrace 1.16, written by Peter Selinger 2001-2019
</metadata>
<g transform="translate(0.000000,1024.000000) scale(0.100000,-0.100000)"
fill="#000000" stroke="none">
<path d="M0 5120 l0 -5120 5120 0 5120 0 0 5120 0 5120 -5120 0 -5120 0 0
-5120z m7835 4401 c141 -36 261 -108 341 -207 87 -106 91 -114 139 -277 26
-87 12 -256 -31 -362 -42 -104 -62 -139 -177 -299 -44 -59 -86 -124 -95 -145
-15 -32 -17 -106 -17 -736 0 -643 1 -704 18 -748 21 -59 71 -162 97 -202 11
-16 27 -43 36 -60 8 -16 26 -50 39 -75 13 -25 24 -54 24 -66 1 -11 7 -26 14
-32 8 -9 12 -43 12 -100 -1 -132 -40 -201 -149 -262 -31 -18 -63 -44 -70 -59
-23 -44 -25 -154 -27 -1131 -3 -1032 -6 -954 50 -1125 5 -16 17 -55 27 -85 26
-78 26 -244 0 -327 -22 -71 -93 -160 -150 -187 -54 -25 -171 -22 -238 8 -156
69 -202 56 -296 -83 -36 -53 -141 -259 -176 -346 -42 -104 -82 -297 -98 -467
-12 -142 -2 -330 23 -423 33 -125 76 -268 91 -305 40 -99 57 -242 38 -330 -27
-125 -98 -202 -202 -216 -38 -5 -53 -2 -92 21 -55 32 -100 94 -117 159 -18 72
-6 261 25 381 33 133 47 214 53 305 10 162 -52 421 -134 563 -44 73 -86 97
-178 97 -129 0 -211 -80 -335 -325 -47 -94 -62 -114 -105 -144 -43 -31 -57
-35 -106 -34 -66 1 -128 29 -158 71 -11 16 -39 66 -62 111 -58 113 -117 162
-232 193 -107 28 -272 -34 -316 -120 -10 -20 -25 -67 -34 -105 -13 -59 -13
-81 -1 -180 19 -150 18 -300 -1 -365 -18 -58 -58 -110 -113 -144 -60 -37 -194
-26 -246 20 -65 58 -82 127 -92 377 -7 189 -20 242 -82 349 -45 77 -101 133
-187 188 -109 70 -174 91 -280 92 -119 1 -161 -23 -230 -131 -69 -106 -76
-190 -40 -478 34 -278 31 -404 -15 -507 -24 -54 -76 -105 -121 -118 -38 -12
-127 -4 -148 13 -7 6 -23 16 -34 22 -85 42 -134 276 -91 439 23 91 45 168 57
196 36 93 77 314 76 420 -1 245 -151 387 -271 258 -21 -23 -40 -50 -44 -62 -4
-12 -26 -44 -50 -73 -75 -87 -180 -106 -265 -47 -47 32 -74 74 -95 145 -18 61
-21 192 -5 270 69 350 60 412 -102 688 -37 64 -72 132 -78 151 -6 19 -14 44
-19 55 -16 37 -29 90 -35 145 -19 167 -27 201 -60 236 -20 21 -42 34 -57 34
-33 0 -107 49 -139 91 -71 94 -78 259 -19 424 18 50 36 95 41 100 10 14 55
141 90 255 12 37 14 280 14 1412 l0 1368 -33 32 c-65 65 -163 33 -226 -74
l-31 -53 1 -165 c0 -115 6 -194 18 -260 12 -64 18 -145 19 -250 0 -150 -1
-157 -28 -212 -28 -59 -78 -112 -122 -129 -39 -14 -105 -10 -148 10 -54 25
-89 65 -115 131 -19 47 -21 69 -17 145 2 50 9 101 15 115 6 14 31 90 55 170
101 328 117 429 117 726 0 122 -5 246 -10 275 -6 30 -15 106 -21 169 -5 63
-14 140 -19 170 -17 108 -12 321 11 417 50 210 183 367 385 454 l79 34 180 0
c117 0 190 -5 210 -12 32 -13 199 -41 301 -50 36 -3 108 1 170 10 204 31 265
37 347 37 94 0 222 -24 244 -45 8 -8 21 -15 28 -15 18 0 87 -47 98 -66 4 -8
13 -14 20 -14 19 -1 84 -88 116 -155 74 -153 79 -284 19 -450 -14 -37 -83
-179 -108 -221 -30 -51 -78 -214 -96 -325 -25 -162 -30 -434 -9 -571 15 -105
22 -124 91 -265 l75 -151 2 -104 c2 -117 -13 -160 -77 -216 -51 -44 -104 -57
-182 -42 -94 18 -101 13 -111 -78 -4 -42 -8 -475 -8 -962 0 -870 1 -887 22
-995 40 -199 86 -362 131 -465 22 -51 78 -164 95 -195 56 -97 78 -130 132
-200 116 -149 246 -254 430 -347 22 -11 52 -27 67 -34 14 -8 35 -14 45 -14 10
0 27 -6 38 -13 36 -25 156 -48 301 -58 266 -20 487 16 689 112 314 148 551
404 697 754 65 154 96 263 124 433 22 137 24 173 24 518 0 204 -3 386 -6 403
-6 26 -16 35 -64 57 -73 33 -112 75 -133 143 -34 106 -19 183 79 409 29 68 58
150 63 181 12 69 22 1378 11 1400 -5 9 -33 68 -64 131 -30 63 -82 153 -115
200 -152 216 -181 282 -189 443 -6 126 6 195 48 282 74 151 176 219 470 313
148 48 251 97 374 178 96 64 108 71 171 106 165 93 358 122 530 79z"/>
</g>
</svg>
