<?xml version="1.0" standalone="no"?>
<!DOCTYPE svg PUBLIC "-//W3C//DTD SVG 20010904//EN"
 "http://www.w3.org/TR/2001/REC-SVG-20010904/DTD/svg10.dtd">
<svg version="1.0" xmlns="http://www.w3.org/2000/svg"
 width="1024.000000pt" height="1024.000000pt" viewBox="0 0 1024.000000 1024.000000"
 preserveAspectRatio="xMidYMid meet">
<metadata>
Created by potrace 1.16, written by Peter Selinger 2001-2019
</metadata>
<g transform="translate(0.000000,1024.000000) scale(0.100000,-0.100000)"
fill="#000000" stroke="none">
<path d="M0 5120 l0 -5120 5120 0 5120 0 0 5120 0 5120 -5120 0 -5120 0 0
-5120z m7595 3959 c205 -21 450 -81 560 -137 234 -118 355 -347 355 -672 0
-85 -17 -189 -53 -335 -29 -115 -91 -424 -107 -535 -28 -200 -41 -355 -47
-573 -7 -269 6 -458 52 -757 19 -125 61 -423 74 -530 41 -328 47 -671 17 -885
-19 -137 -57 -336 -81 -420 -7 -27 -26 -108 -41 -180 -25 -121 -26 -142 -21
-295 6 -158 15 -216 53 -330 9 -24 19 -49 23 -55 20 -24 46 -166 46 -245 0
-71 -4 -93 -25 -135 -35 -71 -79 -98 -149 -92 -50 4 -58 8 -102 54 -60 63 -76
115 -84 278 -8 155 -24 214 -70 254 -32 28 -42 31 -101 31 -79 0 -121 -17
-189 -75 -62 -53 -177 -203 -228 -297 -51 -94 -106 -231 -125 -308 -23 -98
-27 -358 -7 -473 30 -173 40 -340 26 -409 -34 -164 -177 -260 -327 -218 -60
17 -142 92 -177 162 -44 87 -48 150 -25 333 26 206 22 287 -15 343 -43 65 -94
87 -200 85 -144 -2 -226 -26 -347 -101 -99 -61 -150 -104 -209 -177 -58 -72
-78 -110 -121 -235 -32 -90 -33 -102 -33 -230 0 -75 6 -160 12 -190 6 -30 18
-89 26 -130 9 -41 25 -115 35 -165 39 -180 52 -279 46 -340 -8 -82 -40 -192
-69 -244 -34 -59 -119 -145 -165 -166 -20 -10 -44 -23 -52 -30 -26 -20 -94
-35 -161 -35 -139 1 -232 42 -341 150 -126 126 -179 256 -179 435 0 94 8 163
47 400 9 59 18 185 21 305 6 244 -9 335 -76 468 -56 111 -91 148 -185 193
-102 49 -174 53 -254 13 -89 -44 -129 -108 -156 -249 -39 -203 -48 -234 -76
-277 -61 -91 -176 -136 -267 -103 -146 54 -226 154 -273 340 -52 210 -117 358
-205 475 -58 76 -203 190 -300 236 -74 35 -87 38 -172 39 -86 0 -94 -2 -134
-30 -58 -41 -99 -121 -106 -206 -3 -36 3 -121 13 -194 40 -298 26 -398 -72
-514 -34 -40 -138 -98 -191 -107 -112 -18 -235 39 -325 151 -113 140 -117 279
-15 585 55 167 60 194 65 398 8 355 -38 507 -305 989 -135 246 -184 372 -220
568 -15 81 -18 153 -18 380 0 328 5 383 99 1040 53 371 59 451 53 750 -8 423
-40 636 -178 1190 -36 145 -44 251 -31 392 36 398 265 572 841 639 103 12 186
15 341 10 204 -5 269 -13 450 -55 245 -57 414 -170 532 -357 63 -98 129 -258
151 -362 14 -69 13 -421 -2 -567 -21 -205 -51 -433 -70 -535 -10 -58 -27 -150
-36 -205 -9 -55 -21 -122 -26 -150 -19 -94 -77 -502 -89 -620 -5 -44 -13 -116
-19 -160 -6 -44 -18 -165 -26 -268 -38 -478 3 -783 142 -1042 95 -176 192
-283 370 -408 153 -107 377 -185 601 -208 121 -12 337 -6 422 12 25 5 71 14
103 19 75 14 277 95 364 148 154 94 295 226 386 363 63 95 144 278 170 384 63
254 67 501 17 1036 -28 303 -56 509 -110 814 -51 291 -99 615 -126 859 -22
198 -15 514 14 626 47 182 117 309 236 425 89 87 174 133 331 179 253 74 526
95 820 65z"/>
</g>
</svg>
