<?xml version="1.0" standalone="no"?>
<!DOCTYPE svg PUBLIC "-//W3C//DTD SVG 20010904//EN"
 "http://www.w3.org/TR/2001/REC-SVG-20010904/DTD/svg10.dtd">
<svg version="1.0" xmlns="http://www.w3.org/2000/svg"
 width="1024.000000pt" height="1024.000000pt" viewBox="0 0 1024.000000 1024.000000"
 preserveAspectRatio="xMidYMid meet">
<metadata>
Created by potrace 1.16, written by Peter Selinger 2001-2019
</metadata>
<g transform="translate(0.000000,1024.000000) scale(0.100000,-0.100000)"
fill="#000000" stroke="none">
<path d="M0 5120 l0 -5120 5120 0 5120 0 0 5120 0 5120 -5120 0 -5120 0 0
-5120z m3373 4196 c32 -9 78 -16 103 -16 24 0 70 -8 102 -19 31 -10 72 -21 90
-25 51 -9 182 -76 235 -119 26 -22 59 -61 71 -86 24 -47 45 -148 41 -198 -12
-156 -26 -284 -35 -313 -5 -19 -15 -107 -20 -195 -6 -88 -12 -174 -15 -191
-10 -61 -6 -474 5 -571 7 -54 21 -131 31 -172 10 -41 19 -83 19 -93 0 -19 32
-126 57 -193 9 -22 19 -56 23 -75 5 -19 22 -71 40 -115 17 -44 36 -94 41 -111
5 -16 22 -57 38 -90 15 -32 32 -70 36 -84 4 -14 23 -54 41 -90 19 -35 34 -69
34 -75 0 -5 11 -32 25 -60 13 -27 25 -56 25 -63 0 -7 4 -20 9 -30 4 -9 13 -30
19 -47 8 -26 26 -70 63 -160 11 -27 48 -132 59 -170 19 -65 52 -151 62 -163 6
-7 14 -29 18 -50 4 -20 15 -57 23 -82 8 -25 24 -76 35 -115 12 -38 27 -92 36
-120 8 -27 17 -68 21 -90 3 -22 14 -76 25 -120 17 -75 24 -109 51 -252 5 -32
18 -87 29 -123 10 -36 21 -90 25 -120 3 -30 10 -59 15 -65 4 -5 15 -46 24 -90
20 -99 32 -152 56 -235 11 -36 22 -76 25 -90 3 -14 12 -41 20 -60 7 -19 16
-46 19 -60 8 -39 72 -98 119 -111 31 -8 55 -8 92 0 59 14 95 52 140 146 15 33
33 71 40 85 7 14 25 66 40 115 16 50 32 94 37 100 4 5 8 18 8 30 0 11 7 33 15
48 8 16 20 47 25 70 6 23 19 65 30 92 28 76 60 188 60 207 0 10 6 32 14 50 22
53 37 100 51 155 7 28 16 57 20 63 4 7 15 42 25 79 10 36 22 80 28 96 6 17 30
91 53 165 23 74 50 161 61 193 10 31 18 67 18 80 1 12 9 40 20 62 11 22 19 46
20 54 0 8 9 42 19 75 11 34 29 95 41 136 12 41 28 89 36 107 8 17 14 39 14 49
0 10 11 52 24 94 13 41 32 104 41 140 9 36 23 79 31 95 7 17 18 52 24 78 6 26
15 55 20 65 5 9 16 42 24 72 8 30 19 69 24 85 6 17 18 59 27 95 21 87 39 151
65 235 35 117 60 207 71 260 6 28 17 69 24 91 8 23 17 82 20 130 4 49 11 105
17 124 19 68 21 365 3 495 -53 379 -49 509 20 645 64 126 167 185 470 269 395
108 1057 106 1382 -5 39 -13 80 -24 92 -24 11 0 22 -4 26 -9 3 -5 20 -13 38
-16 45 -10 194 -83 242 -119 113 -84 160 -164 164 -278 6 -155 -76 -286 -224
-358 -36 -17 -68 -36 -71 -41 -3 -6 -16 -15 -27 -20 -122 -53 -272 -200 -351
-343 -15 -27 -52 -86 -81 -132 -30 -45 -63 -99 -74 -120 -11 -21 -24 -40 -29
-43 -8 -6 -96 -154 -142 -239 -50 -94 -103 -238 -140 -382 -12 -47 -31 -110
-41 -140 -10 -30 -25 -84 -34 -120 -40 -158 -55 -210 -111 -377 -13 -40 -40
-128 -60 -195 -19 -68 -41 -141 -49 -163 -7 -22 -23 -76 -35 -120 -12 -44 -36
-118 -52 -165 -16 -47 -49 -141 -73 -210 -38 -111 -100 -279 -124 -335 -24
-56 -51 -129 -51 -138 0 -5 -9 -28 -19 -51 -41 -88 -71 -155 -71 -161 0 -4 -7
-21 -15 -38 -8 -18 -28 -68 -45 -112 -17 -44 -34 -89 -39 -100 -34 -81 -75
-187 -88 -225 -9 -25 -20 -54 -24 -65 -25 -61 -126 -383 -160 -510 -11 -44
-29 -107 -39 -140 -10 -33 -21 -78 -25 -100 -4 -22 -11 -44 -15 -50 -8 -10
-18 -44 -46 -160 -8 -33 -22 -82 -29 -110 -8 -27 -22 -77 -31 -110 -24 -88
-50 -178 -57 -195 -3 -8 -11 -35 -17 -60 -7 -24 -18 -53 -26 -64 -8 -11 -14
-31 -14 -43 0 -33 -81 -210 -135 -293 -19 -30 -44 -70 -56 -87 -12 -18 -25
-33 -30 -33 -5 0 -9 -6 -9 -14 0 -7 -7 -20 -17 -27 -31 -26 -88 -124 -106
-184 -40 -132 -43 -233 -10 -313 10 -24 15 -76 16 -156 2 -114 0 -124 -27
-179 -18 -38 -43 -69 -70 -89 -36 -26 -47 -29 -90 -24 -55 6 -80 24 -107 78
-16 32 -19 60 -19 193 0 178 -7 205 -66 253 -46 38 -96 42 -148 11 -49 -28
-83 -96 -112 -218 -24 -103 -25 -112 -23 -480 2 -366 2 -378 -20 -446 -39
-119 -113 -164 -223 -135 -59 16 -72 31 -109 119 l-32 76 6 205 c3 113 11 223
17 245 15 51 7 286 -14 413 -19 116 -72 219 -158 308 -54 55 -77 70 -197 128
-14 6 -74 11 -140 11 -109 0 -119 -2 -167 -29 -70 -38 -124 -95 -135 -142 -4
-22 -9 -86 -9 -144 -1 -123 -11 -176 -46 -231 -57 -92 -159 -105 -222 -29 -42
50 -41 46 -48 380 -5 272 -9 340 -26 415 -17 76 -21 136 -24 380 -4 318 -17
542 -39 650 -7 39 -16 97 -20 130 -3 33 -12 80 -20 105 -7 25 -18 78 -25 119
-6 41 -15 79 -19 85 -5 6 -12 29 -16 51 -4 22 -22 72 -40 110 -19 39 -40 86
-49 105 -21 49 -85 162 -102 181 -8 8 -14 20 -14 26 0 6 -10 23 -22 39 -13 15
-48 67 -78 115 -30 48 -74 115 -97 149 -24 34 -43 63 -43 66 0 2 -34 73 -75
158 -41 85 -80 178 -86 208 -6 29 -15 62 -20 73 -26 64 -72 300 -89 460 -4 44
-11 147 -15 230 -4 82 -8 152 -10 155 -2 3 -8 64 -14 135 -23 258 -71 505
-126 644 -19 49 -35 95 -35 104 0 9 -5 19 -10 22 -6 4 -25 37 -42 73 -18 37
-40 78 -49 92 -9 14 -38 66 -64 115 -87 164 -96 180 -114 202 -27 32 -97 66
-124 59 -45 -12 -88 -47 -103 -84 -8 -20 -22 -51 -29 -68 -8 -16 -17 -50 -21
-75 -3 -24 -12 -69 -20 -99 -7 -30 -18 -94 -25 -143 -6 -48 -15 -90 -20 -93
-5 -3 -9 -15 -9 -26 0 -56 -93 -138 -157 -138 -46 0 -118 53 -145 108 -22 46
-23 54 -21 287 1 132 7 279 14 327 18 134 6 366 -26 516 -14 68 -30 131 -35
140 -5 10 -25 58 -44 107 -18 50 -48 117 -65 150 -17 33 -31 64 -31 70 0 5
-15 32 -33 59 -73 112 -70 104 -71 216 -1 89 2 112 22 152 12 26 22 51 22 55
0 7 49 56 128 126 84 76 337 172 562 216 288 55 355 60 760 56 267 -3 347 -7
393 -19z"/>
</g>
</svg>
