<?xml version="1.0" standalone="no"?>
<!DOCTYPE svg PUBLIC "-//W3C//DTD SVG 20010904//EN"
 "http://www.w3.org/TR/2001/REC-SVG-20010904/DTD/svg10.dtd">
<svg version="1.0" xmlns="http://www.w3.org/2000/svg"
 width="1024.000000pt" height="1024.000000pt" viewBox="0 0 1024.000000 1024.000000"
 preserveAspectRatio="xMidYMid meet">
<metadata>
Created by potrace 1.16, written by Peter Selinger 2001-2019
</metadata>
<g transform="translate(0.000000,1024.000000) scale(0.100000,-0.100000)"
fill="#000000" stroke="none">
<path d="M0 5120 l0 -5120 5120 0 5120 0 0 5120 0 5120 -5120 0 -5120 0 0
-5120z m7870 4075 c670 -85 1130 -385 1303 -850 46 -123 62 -232 61 -415 -2
-397 -126 -700 -286 -700 -37 0 -78 47 -120 138 -69 149 -96 172 -203 172 -79
0 -104 -12 -172 -82 -53 -55 -96 -132 -129 -228 -20 -60 -23 -186 -14 -570 4
-157 1 -195 -14 -255 -51 -193 -139 -253 -227 -156 -72 79 -87 207 -64 537 9
136 -4 197 -53 256 -55 65 -157 78 -234 29 -113 -72 -184 -239 -209 -492 -23
-238 1 -434 91 -744 118 -406 148 -548 157 -742 14 -296 -70 -542 -215 -634
-80 -51 -142 -36 -185 44 -20 39 -22 56 -23 222 -1 205 -7 227 -75 272 -115
76 -230 20 -318 -157 -96 -190 -145 -438 -181 -915 -34 -436 -73 -620 -188
-865 -61 -132 -146 -240 -320 -411 -87 -85 -181 -187 -209 -227 -90 -128 -145
-292 -183 -542 -26 -173 -50 -266 -93 -360 -149 -326 -460 -506 -841 -487
-131 7 -212 26 -321 76 -123 58 -192 106 -286 201 -97 97 -162 199 -208 324
-46 128 -53 208 -55 576 -2 310 -3 341 -23 412 -43 151 -121 281 -262 432
-237 256 -324 459 -372 871 -28 243 -65 455 -106 600 -32 114 -111 276 -172
352 -134 167 -366 163 -445 -7 -19 -41 -21 -64 -22 -275 -1 -242 -10 -310 -55
-396 -55 -110 -228 -156 -372 -100 -129 50 -246 173 -282 296 -9 31 -21 95
-26 143 -19 150 1 247 141 692 116 369 136 514 127 898 -8 303 -36 480 -106
650 -78 192 -171 282 -291 282 -85 0 -145 -41 -191 -130 -19 -38 -24 -64 -27
-160 -2 -63 1 -149 8 -190 30 -200 33 -244 21 -324 -32 -206 -120 -303 -243
-267 -117 35 -201 200 -215 421 -7 112 3 181 59 425 40 170 42 188 41 330 0
98 -6 174 -16 220 -15 69 -25 97 -125 367 -92 245 -128 427 -111 560 10 85 41
192 70 250 118 232 388 398 799 493 216 50 309 57 744 62 444 5 587 -2 822
-42 501 -85 690 -231 791 -610 67 -254 29 -522 -107 -741 -36 -58 -71 -132
-86 -179 -51 -159 -41 -368 25 -539 40 -104 143 -289 231 -416 238 -342 266
-434 280 -935 5 -170 12 -323 16 -340 3 -16 15 -75 26 -130 32 -165 92 -334
208 -581 27 -58 65 -152 85 -210 49 -145 78 -199 127 -234 33 -24 51 -30 92
-30 92 0 146 55 217 219 22 51 64 124 98 168 70 93 191 290 227 370 56 127 65
189 75 478 9 285 17 364 50 485 38 140 81 220 285 525 99 149 204 397 248 585
48 209 48 438 0 563 -24 62 -77 139 -159 228 -109 120 -150 186 -169 268 -34
148 -9 359 60 510 80 174 255 349 464 463 338 185 872 265 1360 203z"/>
</g>
</svg>
