<?xml version="1.0" standalone="no"?>
<!DOCTYPE svg PUBLIC "-//W3C//DTD SVG 20010904//EN"
 "http://www.w3.org/TR/2001/REC-SVG-20010904/DTD/svg10.dtd">
<svg version="1.0" xmlns="http://www.w3.org/2000/svg"
 width="1024.000000pt" height="1024.000000pt" viewBox="0 0 1024.000000 1024.000000"
 preserveAspectRatio="xMidYMid meet">
<metadata>
Created by potrace 1.16, written by Peter Selinger 2001-2019
</metadata>
<g transform="translate(0.000000,1024.000000) scale(0.100000,-0.100000)"
fill="#000000" stroke="none">
<path d="M0 5120 l0 -5120 5120 0 5120 0 0 5120 0 5120 -5120 0 -5120 0 0
-5120z m2471 3545 c85 -9 181 -23 214 -31 127 -33 278 -105 356 -169 30 -25
59 -49 64 -53 27 -22 101 -117 126 -162 32 -60 82 -193 98 -265 51 -227 58
-648 21 -1195 -32 -470 -36 -1179 -7 -1355 32 -200 73 -298 151 -366 38 -33
42 -34 125 -34 80 0 90 3 140 34 191 116 343 399 512 951 84 275 175 539 220
639 42 92 136 257 177 311 91 117 227 223 352 272 209 83 440 76 627 -18 239
-120 367 -350 418 -748 9 -67 20 -148 25 -181 5 -33 16 -114 25 -180 34 -256
122 -735 156 -850 30 -101 72 -224 90 -262 10 -24 19 -46 19 -51 0 -19 85
-150 124 -191 93 -98 227 -108 299 -22 52 64 97 143 116 203 5 18 24 78 41
133 36 116 51 186 91 420 42 242 79 519 89 670 5 72 16 213 24 315 8 102 19
282 26 400 36 674 54 843 110 1022 16 53 46 122 65 155 19 32 43 74 54 93 66
118 268 241 481 294 119 29 135 31 330 31 190 0 214 -2 325 -29 179 -42 326
-121 412 -223 27 -31 55 -64 63 -73 30 -33 71 -121 91 -192 44 -157 33 -437
-23 -618 -54 -171 -143 -406 -164 -431 -8 -8 -14 -22 -14 -29 0 -7 -11 -36
-24 -64 -65 -138 -130 -297 -170 -418 -56 -169 -92 -399 -82 -529 6 -94 39
-277 54 -306 16 -29 42 -167 42 -221 0 -67 -34 -159 -73 -200 -95 -101 -254
-95 -348 13 -33 38 -63 40 -84 6 -17 -27 -46 -112 -66 -194 -10 -43 -23 -87
-29 -97 -9 -17 -56 -182 -86 -300 -41 -167 -56 -230 -64 -275 -5 -27 -21 -104
-35 -170 -50 -231 -45 -595 10 -800 36 -134 55 -259 55 -358 0 -75 -4 -95 -26
-139 -46 -91 -108 -128 -213 -128 -148 0 -236 87 -248 244 -4 59 1 95 31 218
42 169 44 219 15 267 -19 32 -22 33 -65 27 -25 -3 -60 -16 -77 -28 -36 -24
-187 -181 -224 -231 -13 -18 -39 -54 -59 -80 -115 -157 -188 -443 -171 -671 7
-85 56 -387 83 -509 75 -335 81 -473 24 -592 -49 -103 -135 -162 -249 -172
-204 -17 -341 124 -341 352 0 77 29 221 65 320 34 97 75 260 95 380 19 113 21
157 17 335 -4 211 -15 278 -61 366 -58 112 -220 165 -337 109 -47 -22 -95
-102 -110 -180 -31 -168 -140 -266 -280 -251 -72 7 -117 34 -168 99 -74 97
-79 197 -22 432 59 242 67 321 47 443 -9 56 -31 138 -47 184 -17 46 -44 121
-61 168 -17 47 -36 92 -44 100 -7 9 -20 36 -29 60 -9 25 -27 70 -42 100 -14
30 -32 69 -39 85 -47 110 -246 504 -263 523 -15 15 -33 22 -61 22 -33 0 -46
-7 -80 -42 -22 -23 -40 -45 -40 -50 0 -4 -13 -22 -28 -40 -16 -18 -43 -58 -59
-88 -17 -30 -52 -91 -77 -135 -25 -44 -60 -113 -76 -155 -17 -41 -35 -83 -40
-92 -6 -10 -17 -59 -26 -110 -19 -109 -10 -203 33 -378 34 -136 37 -294 8
-355 -26 -54 -52 -82 -103 -112 -36 -21 -57 -26 -115 -26 -108 -1 -154 29
-206 133 -45 89 -92 111 -161 75 -85 -44 -172 -184 -209 -337 -26 -107 -29
-313 -6 -428 93 -460 105 -540 99 -643 -11 -197 -127 -317 -305 -317 -54 0
-83 5 -109 19 -19 11 -48 27 -65 36 -44 24 -91 92 -110 160 -14 46 -17 83 -13
165 3 59 11 117 17 129 7 12 19 48 27 79 9 31 29 109 45 172 71 270 42 472
-87 605 -27 28 -75 63 -107 79 -52 26 -65 28 -129 24 -40 -3 -74 -11 -76 -17
-2 -6 -9 -11 -15 -11 -18 -1 -60 -41 -85 -81 -18 -30 -22 -51 -22 -120 0 -46
5 -113 10 -149 30 -193 40 -300 34 -360 -10 -103 -53 -169 -136 -216 -72 -39
-158 -40 -239 -3 -62 29 -90 63 -125 148 -40 96 -34 162 50 521 20 85 41 196
48 245 18 135 15 532 -4 625 -20 95 -79 259 -115 318 -16 24 -35 56 -44 71
-11 18 -26 27 -49 29 l-33 3 6 -88 c3 -48 16 -124 27 -168 12 -45 22 -115 23
-160 2 -69 -2 -87 -25 -132 -35 -65 -62 -86 -132 -102 -48 -11 -64 -10 -113 4
-80 23 -126 73 -154 167 l-22 71 22 101 c11 56 39 162 61 236 114 382 122 610
35 970 -14 58 -30 128 -36 155 -5 28 -19 84 -29 125 -10 41 -38 152 -61 245
-87 359 -79 336 -107 319 -42 -26 -22 -269 49 -604 55 -263 58 -332 18 -412
-22 -44 -78 -91 -123 -105 -41 -13 -111 -6 -153 14 -42 20 -92 71 -101 103
-16 55 -6 263 15 345 12 44 32 145 44 225 20 128 22 182 22 450 -1 289 -17
554 -43 688 -11 61 -56 178 -81 213 -10 15 -19 31 -19 36 0 4 -14 23 -30 41
-26 28 -33 31 -51 21 -18 -9 -20 -17 -15 -52 15 -99 29 -316 22 -348 -16 -88
-98 -159 -185 -159 -57 0 -125 34 -163 82 -31 40 -33 47 -36 138 -3 86 -1 105
32 205 64 199 77 263 83 400 4 97 1 154 -11 225 -24 135 -37 330 -31 435 17
258 160 497 370 617 168 97 339 152 526 172 180 18 221 19 400 1z"/>
</g>
</svg>
