<?xml version="1.0" standalone="no"?>
<!DOCTYPE svg PUBLIC "-//W3C//DTD SVG 20010904//EN"
 "http://www.w3.org/TR/2001/REC-SVG-20010904/DTD/svg10.dtd">
<svg version="1.0" xmlns="http://www.w3.org/2000/svg"
 width="1024.000000pt" height="1024.000000pt" viewBox="0 0 1024.000000 1024.000000"
 preserveAspectRatio="xMidYMid meet">
<metadata>
Created by potrace 1.16, written by Peter Selinger 2001-2019
</metadata>
<g transform="translate(0.000000,1024.000000) scale(0.100000,-0.100000)"
fill="#000000" stroke="none">
<path d="M0 5120 l0 -5120 5120 0 5120 0 0 5120 0 5120 -5120 0 -5120 0 0
-5120z m8605 4120 c420 -31 680 -84 849 -173 76 -41 164 -128 200 -200 38 -77
48 -223 21 -308 -41 -128 -122 -227 -301 -368 -124 -98 -216 -224 -270 -368
-28 -76 -29 -82 -29 -273 0 -214 11 -302 71 -568 61 -276 62 -350 8 -432 -36
-54 -67 -72 -138 -77 -95 -7 -174 36 -219 121 -21 39 -22 51 -19 251 1 116 -1
223 -6 239 -19 67 -94 42 -144 -49 -94 -172 -218 -592 -278 -945 -51 -301 -61
-568 -34 -918 30 -384 6 -563 -119 -902 -83 -225 -98 -270 -117 -356 -10 -50
-31 -203 -45 -340 -54 -524 -71 -614 -154 -784 -43 -88 -132 -183 -205 -219
-29 -14 -80 -27 -130 -32 -107 -12 -140 -24 -172 -62 -71 -84 -133 -282 -143
-451 -8 -143 -1 -224 36 -406 35 -170 39 -343 10 -403 -40 -83 -94 -117 -183
-117 -98 0 -178 53 -226 149 -22 43 -23 58 -23 246 0 110 6 254 13 320 19 175
27 611 13 720 -29 241 -111 394 -245 462 -40 20 -60 24 -103 21 -68 -6 -101
-29 -135 -98 -37 -74 -37 -173 -2 -341 20 -92 27 -156 28 -249 1 -115 -1 -129
-24 -175 -16 -32 -41 -61 -68 -80 -39 -27 -51 -30 -120 -30 -60 0 -86 5 -119
23 -130 68 -179 222 -139 435 10 49 21 96 26 105 14 25 97 283 122 376 16 60
21 108 20 187 -1 156 -21 224 -147 499 -102 220 -193 427 -225 507 -16 39 -38
91 -49 115 -11 24 -42 99 -70 166 -107 265 -218 382 -312 332 -47 -26 -62
-127 -39 -265 20 -117 61 -392 81 -545 33 -245 18 -334 -64 -388 -56 -37 -154
-37 -218 0 -83 49 -129 117 -129 193 0 35 36 272 50 330 17 72 23 256 10 305
-18 67 -43 90 -102 90 -60 0 -108 -24 -171 -85 -103 -100 -148 -195 -232 -496
-117 -413 -208 -620 -442 -1007 -61 -100 -125 -249 -151 -350 -38 -143 -27
-275 58 -727 53 -284 62 -455 27 -522 -71 -135 -293 -118 -368 29 -37 72 -39
151 -10 492 24 278 13 359 -54 397 -68 39 -208 13 -298 -55 -99 -75 -116 -266
-72 -784 17 -201 19 -382 4 -437 -16 -56 -43 -91 -94 -121 -114 -67 -271 -28
-340 85 -24 39 -29 60 -33 131 -3 72 3 116 38 285 79 380 92 473 94 665 1 121
-3 189 -13 220 -24 81 -80 184 -137 250 -74 87 -184 234 -217 292 -51 87 -112
276 -131 403 -3 22 -15 157 -26 300 -54 701 -156 1399 -227 1553 -24 50 -57
44 -123 -24 -30 -31 -69 -62 -87 -70 -78 -34 -177 -4 -237 69 -84 104 -82 189
12 567 98 393 107 457 106 770 0 237 -2 264 -28 390 -15 74 -48 197 -73 274
-44 131 -73 195 -249 532 -82 160 -138 289 -178 415 -18 58 -37 96 -58 117
-30 32 -124 82 -226 121 -62 25 -175 85 -217 116 -144 107 -207 284 -153 430
20 53 90 140 149 183 87 64 235 125 369 152 25 5 77 16 115 25 114 25 427 63
625 76 228 14 737 6 935 -16 215 -23 279 -34 424 -71 184 -47 285 -96 364
-176 72 -73 98 -132 98 -225 1 -185 -69 -291 -290 -438 -172 -114 -236 -186
-296 -331 -26 -62 -29 -81 -29 -184 0 -98 4 -127 26 -195 82 -250 81 -243 82
-375 1 -132 -6 -172 -55 -325 -16 -49 -33 -103 -38 -120 -5 -16 -18 -68 -27
-113 -24 -113 -12 -196 71 -492 69 -244 66 -224 75 -560 9 -333 17 -396 61
-486 65 -129 187 -205 302 -187 52 8 119 69 146 135 12 29 26 62 31 73 26 57
62 194 80 300 31 186 58 282 106 380 58 120 114 191 293 373 83 85 151 160
151 168 0 8 4 14 8 14 14 0 89 159 113 240 20 65 23 97 23 235 0 149 -2 171
-38 325 -59 258 -59 405 1 590 23 72 77 179 112 223 69 89 203 197 286 231
129 54 301 70 440 41 235 -49 444 -254 501 -493 16 -68 18 -250 3 -347 -6 -38
-11 -117 -11 -175 -1 -133 16 -182 123 -342 167 -253 221 -408 269 -773 37
-277 104 -450 221 -566 164 -164 369 -197 585 -95 91 43 187 138 231 227 94
192 104 403 37 797 -39 231 -34 345 31 687 29 151 43 366 32 480 -9 89 -51
224 -93 300 -27 47 -123 150 -239 256 -157 143 -238 316 -239 509 0 83 3 102
27 150 103 212 346 323 855 390 87 12 207 24 267 29 162 12 540 12 700 1z"/>
</g>
</svg>
