<?xml version="1.0" standalone="no"?>
<!DOCTYPE svg PUBLIC "-//W3C//DTD SVG 20010904//EN"
 "http://www.w3.org/TR/2001/REC-SVG-20010904/DTD/svg10.dtd">
<svg version="1.0" xmlns="http://www.w3.org/2000/svg"
 width="1024.000000pt" height="1024.000000pt" viewBox="0 0 1024.000000 1024.000000"
 preserveAspectRatio="xMidYMid meet">
<metadata>
Created by potrace 1.16, written by Peter Selinger 2001-2019
</metadata>
<g transform="translate(0.000000,1024.000000) scale(0.100000,-0.100000)"
fill="#000000" stroke="none">
<path d="M0 5120 l0 -5120 5120 0 5120 0 0 5120 0 5120 -5120 0 -5120 0 0
-5120z m3780 4048 c342 -76 569 -266 665 -557 24 -71 28 -102 29 -200 1 -140
-15 -208 -80 -330 -133 -254 -160 -333 -152 -453 6 -95 44 -173 139 -288 39
-46 81 -105 94 -130 12 -25 41 -82 63 -127 23 -45 42 -84 42 -87 0 -7 56 -131
93 -205 66 -131 186 -244 294 -277 60 -19 184 -21 243 -4 98 27 207 104 278
197 21 26 40 50 45 51 4 2 7 10 7 17 0 7 3 15 8 17 4 2 27 35 50 73 61 99 110
173 162 245 136 188 168 241 185 307 30 117 30 217 0 478 -39 342 -25 504 55
670 139 287 353 448 700 527 91 21 121 22 805 25 613 4 727 2 838 -12 157 -20
217 -35 315 -80 232 -108 378 -314 398 -566 11 -133 -31 -263 -150 -469 -27
-47 -58 -103 -69 -125 -11 -22 -23 -42 -27 -45 -4 -3 -14 -18 -23 -35 -23 -45
-64 -80 -142 -121 l-70 -36 -143 6 c-99 5 -154 4 -178 -4 -20 -7 -70 -41 -112
-77 -47 -40 -110 -80 -162 -105 -47 -22 -120 -56 -162 -76 -106 -49 -145 -93
-179 -202 -6 -19 -14 -145 -19 -280 -6 -186 -12 -256 -25 -290 -27 -76 -92
-196 -151 -283 -113 -164 -134 -272 -98 -501 22 -135 15 -231 -21 -292 -73
-125 -203 -191 -324 -164 -31 7 -69 19 -84 27 -48 24 -107 85 -135 137 -25 48
-27 59 -26 176 0 114 3 133 32 218 40 118 62 202 62 240 0 33 -34 80 -60 83
-79 9 -122 -34 -271 -270 -32 -52 -72 -108 -87 -126 -16 -17 -33 -38 -38 -47
-5 -9 -65 -74 -134 -145 -69 -71 -137 -151 -152 -179 -74 -137 -76 -295 -6
-424 17 -30 33 -57 37 -60 10 -7 121 -158 121 -165 0 -2 17 -33 38 -67 34 -57
92 -177 92 -191 0 -4 20 -50 45 -103 25 -53 45 -99 45 -102 0 -14 64 -129 93
-167 39 -51 122 -133 167 -166 51 -38 118 -70 260 -123 328 -125 424 -188 595
-391 37 -44 185 -267 185 -279 0 -6 62 -109 70 -116 3 -3 17 -21 30 -40 78
-110 198 -174 530 -281 220 -71 355 -178 453 -359 59 -109 81 -205 81 -353 0
-84 -4 -131 -12 -139 -7 -7 -12 -23 -12 -38 0 -35 -60 -175 -106 -251 -74
-119 -221 -258 -348 -328 -110 -60 -176 -76 -321 -76 -193 0 -220 10 -434 160
-149 104 -262 79 -388 -88 -107 -141 -161 -192 -257 -238 -71 -34 -99 -42
-165 -46 -97 -7 -147 5 -256 61 -143 73 -292 237 -379 418 -41 86 -59 136 -83
238 -26 112 -23 347 6 510 47 255 46 363 -4 466 -46 94 -106 133 -279 183
-148 43 -209 74 -275 140 -59 59 -100 133 -120 214 -6 26 -16 141 -21 255 -11
225 -19 280 -53 329 -40 59 -119 79 -193 48 -21 -9 -105 -85 -212 -194 -117
-118 -213 -204 -282 -255 -376 -272 -441 -329 -537 -461 -96 -133 -188 -337
-222 -490 -29 -132 -33 -177 -38 -405 -5 -286 -17 -351 -90 -495 -75 -149
-169 -257 -309 -351 -137 -91 -271 -133 -430 -134 -190 0 -278 35 -420 170
-116 111 -152 129 -255 130 -72 0 -81 -3 -175 -51 -167 -85 -215 -100 -339
-106 -129 -6 -188 4 -289 50 -165 77 -303 249 -361 452 -23 80 -31 271 -16
360 17 95 68 227 116 299 37 56 133 160 182 198 107 83 254 143 463 188 129
28 226 66 302 117 48 33 168 153 168 168 0 4 14 26 30 50 17 25 57 95 89 157
144 280 260 464 372 593 54 63 241 247 293 289 22 17 55 45 75 61 20 17 63 51
96 75 259 194 377 299 463 414 80 105 84 112 126 218 22 55 29 156 17 223 -24
131 -103 233 -227 291 -39 18 -141 51 -228 74 -190 49 -263 78 -325 127 -99
79 -138 133 -170 235 -37 119 -35 179 13 463 29 169 17 261 -54 410 -64 137
-218 335 -412 532 -127 129 -191 169 -259 160 -75 -10 -129 -68 -129 -141 0
-21 14 -95 31 -164 37 -150 35 -204 -11 -315 -34 -82 -105 -160 -179 -197 -92
-46 -243 -45 -337 1 -107 54 -191 174 -215 309 -17 97 -1 189 66 368 77 208
89 286 61 402 -24 101 -81 199 -203 348 -81 100 -148 209 -169 277 -22 69 -30
233 -15 303 20 93 83 210 149 280 33 34 64 62 70 62 6 0 15 6 19 13 16 27 119
84 208 116 167 59 184 60 1115 57 745 -2 854 -4 920 -18z"/>
</g>
</svg>
