<?xml version="1.0" standalone="no"?>
<!DOCTYPE svg PUBLIC "-//W3C//DTD SVG 20010904//EN"
 "http://www.w3.org/TR/2001/REC-SVG-20010904/DTD/svg10.dtd">
<svg version="1.0" xmlns="http://www.w3.org/2000/svg"
 width="1024.000000pt" height="1024.000000pt" viewBox="0 0 1024.000000 1024.000000"
 preserveAspectRatio="xMidYMid meet">
<metadata>
Created by potrace 1.16, written by Peter Selinger 2001-2019
</metadata>
<g transform="translate(0.000000,1024.000000) scale(0.100000,-0.100000)"
fill="#000000" stroke="none">
<path d="M0 5120 l0 -5120 5120 0 5120 0 0 5120 0 5120 -5120 0 -5120 0 0
-5120z m3871 4415 c197 -35 302 -103 368 -240 87 -182 63 -314 -84 -462 -81
-80 -88 -91 -95 -139 -20 -131 150 -584 379 -1011 5 -10 71 -142 146 -293 76
-151 141 -279 145 -285 4 -5 24 -41 45 -80 46 -85 77 -134 101 -160 11 -11 38
-43 61 -71 23 -28 62 -61 87 -75 42 -22 48 -23 93 -11 26 7 62 24 80 38 36 27
128 144 188 239 35 55 122 171 224 299 22 28 55 79 74 115 19 36 45 84 57 106
52 90 280 538 280 549 0 3 16 40 36 83 57 125 61 134 92 213 58 146 86 251 87
327 0 68 -2 75 -40 130 -70 100 -80 133 -80 258 0 102 2 114 30 169 75 150
216 241 410 266 205 26 981 32 1303 10 87 -5 195 -13 242 -15 47 -3 104 -8
126 -11 23 -3 165 -9 315 -14 275 -9 366 -22 439 -60 155 -81 239 -287 190
-467 -20 -73 -71 -192 -93 -216 -13 -14 -27 -38 -58 -96 -53 -102 -70 -462
-34 -716 44 -314 48 -401 20 -498 -26 -88 -73 -129 -140 -120 -68 9 -104 55
-126 160 -10 51 -10 90 1 215 22 251 7 472 -36 515 -15 16 -18 16 -34 -5 -13
-16 -20 -48 -24 -119 -9 -132 -22 -198 -48 -246 -31 -54 -67 -79 -125 -84 -70
-6 -131 34 -168 113 -25 52 -27 65 -21 129 3 38 13 93 22 120 31 99 45 159 56
249 10 82 10 95 -7 129 -30 63 -88 59 -144 -10 -128 -158 -203 -278 -251 -399
-58 -146 -89 -193 -204 -309 -113 -114 -189 -210 -266 -333 -38 -62 -160 -247
-217 -332 -10 -14 -51 -70 -93 -124 -41 -54 -99 -133 -129 -175 -30 -42 -57
-78 -61 -81 -3 -3 -60 -86 -127 -186 -220 -331 -257 -406 -262 -534 -2 -66 19
-253 40 -350 17 -82 7 -217 -22 -274 -43 -88 -139 -116 -226 -66 -64 36 -94
109 -94 230 1 93 -8 111 -38 79 -11 -12 -24 -32 -27 -43 -4 -12 -10 -23 -14
-26 -4 -3 -18 -36 -31 -75 -20 -60 -24 -89 -24 -200 l0 -130 39 -79 c22 -44
58 -103 80 -130 43 -53 75 -101 120 -176 15 -25 51 -79 81 -120 31 -41 65 -89
78 -106 19 -27 109 -140 165 -209 10 -11 37 -45 61 -75 24 -30 51 -62 60 -70
9 -8 32 -35 51 -60 19 -25 39 -50 45 -56 52 -57 177 -223 249 -328 26 -39 77
-110 112 -157 35 -48 64 -89 64 -92 0 -3 57 -81 127 -174 70 -92 130 -172 134
-178 4 -5 42 -48 84 -95 151 -170 236 -275 301 -374 37 -56 71 -102 76 -104 4
-2 8 -8 8 -14 0 -17 75 -115 111 -144 19 -16 36 -31 39 -34 19 -22 165 -89
230 -105 128 -33 210 -69 263 -115 14 -12 41 -56 61 -98 20 -42 46 -89 58
-105 38 -46 144 -76 327 -92 157 -14 176 -16 261 -37 157 -38 262 -136 277
-256 7 -61 -8 -107 -48 -150 -42 -45 -92 -65 -229 -92 -210 -41 -232 -72 -88
-130 61 -24 113 -72 124 -115 10 -39 -4 -91 -32 -125 -31 -37 -115 -76 -203
-95 -11 -3 -31 -7 -43 -10 -13 -3 -75 -6 -138 -6 -117 0 -173 11 -320 66 -70
26 -208 46 -275 40 -52 -5 -145 -17 -235 -30 -208 -30 -421 -30 -570 -1 -91
18 -228 55 -254 68 -37 20 -264 59 -371 65 -74 3 -157 0 -255 -12 -80 -10
-176 -21 -215 -26 -114 -13 -333 -10 -407 6 -220 46 -281 160 -157 291 86 92
66 107 -146 109 -170 2 -209 11 -265 62 -45 40 -58 84 -41 136 20 59 57 86
265 192 116 58 151 95 166 173 25 133 -55 445 -177 687 -72 143 -223 402 -243
415 -4 3 -26 33 -49 67 -24 35 -47 65 -52 68 -5 3 -33 38 -63 78 -58 77 -192
211 -241 242 -16 10 -39 26 -50 36 -28 24 -115 71 -115 62 0 -4 -5 -2 -12 5
-15 15 -105 16 -149 0 -102 -35 -298 -203 -371 -318 -63 -98 -103 -164 -118
-195 -8 -16 -18 -32 -21 -35 -3 -3 -19 -30 -36 -60 -35 -63 -148 -259 -218
-375 -102 -172 -224 -431 -255 -542 -35 -128 -40 -168 -29 -229 18 -97 90
-151 327 -246 153 -61 199 -94 238 -173 48 -99 18 -193 -76 -240 -40 -20 -141
-53 -185 -60 -113 -18 -184 -23 -370 -24 -305 -2 -327 -10 -341 -121 -12 -102
-55 -148 -164 -176 -83 -21 -160 -14 -282 28 -82 28 -106 32 -203 32 -145 1
-180 -14 -295 -132 -47 -49 -112 -104 -145 -123 -216 -127 -586 -104 -723 45
-52 57 -60 73 -68 140 -5 44 -2 69 16 118 28 80 57 118 125 165 62 43 74 69
44 98 -19 19 -31 20 -232 17 -117 -2 -243 -5 -282 -6 -136 -5 -347 13 -420 35
-144 43 -227 100 -268 181 -38 75 -39 187 -2 263 51 104 183 224 301 273 36
15 91 25 175 32 289 24 385 44 515 106 134 63 214 156 275 314 35 92 129 196
217 241 58 29 139 89 189 139 59 58 203 247 253 330 44 72 113 168 176 244 75
92 164 212 218 296 27 41 56 86 66 100 20 30 71 123 137 250 27 52 66 121 86
153 20 31 34 57 30 57 -3 0 3 8 13 17 11 10 39 43 64 73 24 30 75 87 112 125
85 89 247 300 315 410 41 65 133 270 148 327 40 153 2 281 -136 457 -156 198
-211 285 -322 513 -95 194 -135 234 -194 193 -25 -18 -51 -71 -93 -195 -59
-171 -102 -238 -181 -278 -85 -44 -188 -3 -234 94 -53 112 -55 224 -10 514 40
262 51 400 36 488 -19 115 -47 220 -103 387 -53 158 -85 231 -96 221 -3 -4 -9
-72 -13 -151 -5 -105 -12 -154 -25 -182 -74 -160 -293 -158 -370 4 -23 49 -25
64 -22 151 3 67 12 128 32 197 22 81 28 126 31 235 5 162 -10 264 -60 411 -46
135 -88 216 -153 295 -115 140 -222 136 -243 -8 -12 -87 -9 -276 6 -383 18
-123 19 -225 3 -278 -17 -55 -82 -122 -133 -136 -122 -33 -205 25 -240 170
-14 56 -16 95 -11 197 3 70 9 207 12 305 6 176 6 180 -20 245 -19 49 -46 90
-101 152 -41 47 -89 112 -107 145 -31 56 -33 66 -33 160 0 98 1 102 40 173 74
135 165 197 343 233 136 27 414 35 682 19 345 -21 1374 -9 1399 16 11 11 335
3 412 -11z"/>
</g>
</svg>
