<?xml version="1.0" standalone="no"?>
<!DOCTYPE svg PUBLIC "-//W3C//DTD SVG 20010904//EN"
 "http://www.w3.org/TR/2001/REC-SVG-20010904/DTD/svg10.dtd">
<svg version="1.0" xmlns="http://www.w3.org/2000/svg"
 width="1024.000000pt" height="1024.000000pt" viewBox="0 0 1024.000000 1024.000000"
 preserveAspectRatio="xMidYMid meet">
<metadata>
Created by potrace 1.16, written by Peter Selinger 2001-2019
</metadata>
<g transform="translate(0.000000,1024.000000) scale(0.100000,-0.100000)"
fill="#000000" stroke="none">
<path d="M0 5120 l0 -5120 5120 0 5120 0 0 5120 0 5120 -5120 0 -5120 0 0
-5120z m3423 4289 c102 -23 193 -56 259 -93 24 -14 57 -31 73 -39 41 -19 137
-124 168 -183 37 -69 60 -176 52 -244 -9 -72 -31 -168 -43 -183 -15 -20 -62
-176 -62 -207 0 -16 -7 -50 -15 -74 -17 -49 -28 -140 -46 -391 -11 -142 -10
-195 9 -475 13 -190 27 -331 36 -355 8 -22 19 -69 25 -105 11 -64 39 -177 60
-235 6 -16 25 -73 42 -125 108 -328 376 -661 624 -778 131 -61 157 -66 350
-66 158 0 189 3 255 23 41 12 83 27 93 32 10 5 44 24 75 40 72 39 130 85 214
171 64 66 181 225 223 305 12 21 33 56 47 78 14 22 34 58 45 80 11 22 50 99
87 172 36 73 66 138 66 145 1 7 8 31 16 53 8 22 28 92 45 155 26 106 29 129
29 295 0 99 -4 203 -9 230 -5 28 -15 79 -22 115 -16 83 -18 450 -2 505 7 22
21 74 32 115 48 181 153 398 255 525 37 45 148 159 192 194 181 149 396 205
594 156 76 -18 186 -71 269 -129 115 -79 210 -116 381 -146 133 -23 290 -67
290 -81 0 -5 5 -9 10 -9 19 0 144 -88 188 -132 50 -50 141 -170 161 -213 7
-17 19 -41 26 -55 7 -14 25 -68 41 -120 26 -88 28 -107 27 -265 -1 -128 -5
-184 -17 -225 -10 -30 -22 -77 -27 -104 -6 -27 -16 -58 -24 -70 -7 -12 -16
-34 -19 -51 -7 -31 -51 -147 -67 -174 -23 -42 -90 -286 -99 -361 -6 -47 -13
-91 -16 -99 -2 -8 -5 -66 -5 -130 0 -114 17 -223 56 -361 16 -58 18 -182 3
-237 -5 -18 -29 -54 -54 -80 l-45 -48 -72 0 c-71 0 -74 1 -110 38 -21 21 -44
52 -52 71 -33 79 -27 292 11 398 8 24 18 84 21 133 6 115 -1 127 -83 133 -53
3 -64 0 -106 -28 -126 -84 -211 -275 -248 -561 -25 -196 -25 -262 2 -412 16
-88 22 -162 22 -267 0 -132 -2 -150 -24 -199 -33 -76 -104 -160 -186 -224
-120 -92 -168 -149 -219 -257 -31 -65 -75 -178 -75 -194 0 -7 -8 -42 -19 -77
-53 -180 -92 -445 -91 -621 0 -109 3 -133 47 -325 22 -97 24 -129 21 -240 -5
-150 -23 -200 -90 -257 -121 -104 -261 -29 -304 160 -15 70 -15 85 0 212 9 75
25 166 36 202 56 194 49 383 -18 445 -33 31 -42 31 -76 0 -32 -30 -46 -93 -46
-214 0 -193 -38 -452 -90 -616 -28 -88 -60 -240 -60 -287 0 -29 7 -104 16
-167 17 -117 16 -141 -15 -316 -9 -45 -40 -121 -75 -183 -33 -58 -144 -147
-245 -199 -102 -53 -140 -83 -209 -171 -42 -55 -154 -271 -168 -326 -3 -14
-10 -29 -15 -32 -5 -2 -13 -23 -19 -44 -22 -83 -145 -334 -212 -436 -54 -81
-171 -207 -243 -261 -96 -73 -210 -121 -360 -154 -71 -15 -131 -19 -282 -19
-202 0 -317 -11 -393 -38 -32 -11 -79 -16 -160 -15 -95 0 -127 5 -187 25 -191
66 -347 207 -473 428 -132 233 -217 316 -416 405 -164 73 -197 99 -280 225
-58 88 -78 251 -46 377 11 43 28 96 37 117 40 95 146 203 242 247 64 29 76 31
188 31 106 1 126 -2 175 -23 91 -41 138 -76 275 -208 72 -69 166 -150 208
-179 83 -57 203 -121 227 -122 8 0 28 -7 44 -15 35 -19 203 -45 286 -45 125 0
292 41 403 99 100 52 219 161 303 278 44 62 194 345 194 367 0 6 16 50 35 96
19 46 39 104 45 129 5 25 25 109 44 186 57 231 67 297 91 565 31 349 11 725
-45 852 -26 59 -84 125 -134 150 -42 22 -180 37 -228 24 -40 -10 -84 -61 -102
-120 -17 -54 -17 -60 3 -178 15 -89 21 -166 21 -278 0 -148 -1 -157 -26 -205
-56 -107 -122 -144 -216 -123 -52 11 -91 46 -126 113 -23 44 -26 61 -25 145 1
86 35 263 58 300 13 20 45 151 45 181 0 43 -15 65 -63 96 -41 26 -47 27 -257
35 -376 14 -535 51 -730 172 -82 51 -217 179 -287 273 -59 80 -163 283 -163
319 0 13 -4 26 -10 29 -5 3 -14 25 -20 48 -6 23 -17 58 -24 77 -7 19 -23 67
-36 105 -37 116 -120 267 -170 312 -30 27 -57 29 -82 6 -22 -20 -23 -62 -2
-144 37 -143 -30 -270 -141 -269 -46 1 -92 35 -120 89 -21 42 -22 130 -2 202
9 30 21 81 26 114 6 33 16 88 23 122 9 49 9 108 -1 271 -10 164 -10 244 0 378
14 205 8 311 -22 378 -26 60 -31 66 -96 131 -60 61 -110 87 -173 92 -56 5 -85
-10 -126 -63 -42 -56 -51 -133 -28 -235 9 -41 22 -103 29 -139 7 -36 21 -94
31 -130 14 -52 18 -104 18 -260 1 -195 1 -195 -28 -255 -59 -124 -109 -165
-200 -165 -45 0 -63 6 -101 31 -25 17 -58 50 -72 72 -32 51 -73 196 -73 259 0
47 24 170 60 308 40 154 62 325 57 439 -7 131 -40 362 -61 416 -8 22 -15 49
-16 59 0 24 -38 136 -80 236 -81 196 -85 211 -84 380 0 144 2 160 26 220 26
65 56 121 92 176 45 67 242 244 271 244 8 0 15 4 17 8 2 5 32 25 68 46 91 51
101 58 132 78 15 10 32 18 39 18 6 0 43 16 83 35 117 57 186 81 341 119 157
39 204 44 393 45 163 1 208 -2 285 -20z"/>
</g>
</svg>
