<?xml version="1.0" standalone="no"?>
<!DOCTYPE svg PUBLIC "-//W3C//DTD SVG 20010904//EN"
 "http://www.w3.org/TR/2001/REC-SVG-20010904/DTD/svg10.dtd">
<svg version="1.0" xmlns="http://www.w3.org/2000/svg"
 width="1024.000000pt" height="1024.000000pt" viewBox="0 0 1024.000000 1024.000000"
 preserveAspectRatio="xMidYMid meet">
<metadata>
Created by potrace 1.16, written by Peter Selinger 2001-2019
</metadata>
<g transform="translate(0.000000,1024.000000) scale(0.100000,-0.100000)"
fill="#000000" stroke="none">
<path d="M0 5120 l0 -5120 5120 0 5120 0 0 5120 0 5120 -5120 0 -5120 0 0
-5120z m6865 4345 c87 -10 240 -15 465 -15 248 -1 357 -5 420 -16 47 -8 114
-18 150 -23 66 -8 110 -22 279 -85 122 -46 176 -84 297 -209 87 -89 102 -111
127 -176 47 -122 63 -409 28 -486 -17 -37 -108 -135 -159 -171 -27 -19 -94
-107 -122 -162 -12 -22 -30 -78 -41 -124 -11 -45 -29 -108 -40 -138 -21 -56
-33 -79 -125 -235 -56 -96 -108 -253 -137 -415 -36 -200 -32 -255 30 -440 32
-93 35 -111 29 -173 -11 -118 -67 -191 -158 -203 -36 -5 -55 -1 -101 20 -135
64 -179 201 -118 367 42 114 53 180 49 284 -5 115 -25 168 -73 196 -79 46
-122 11 -209 -173 -112 -235 -128 -271 -168 -373 -40 -102 -66 -155 -158 -325
-93 -173 -144 -302 -191 -485 -30 -115 -38 -347 -14 -436 91 -343 92 -349 85
-449 -11 -158 -38 -197 -180 -262 -86 -40 -115 -43 -155 -18 -53 33 -123 117
-131 157 -12 62 4 224 31 328 36 135 46 356 21 433 -19 58 -64 102 -102 102
-35 0 -134 -54 -189 -102 -25 -22 -66 -72 -91 -111 -40 -62 -49 -86 -76 -211
-49 -226 -54 -346 -44 -1026 6 -435 6 -691 -3 -910 -10 -258 -10 -331 3 -475
8 -93 18 -242 21 -330 8 -205 18 -294 56 -485 49 -251 87 -387 146 -525 89
-210 123 -420 94 -595 -20 -123 -138 -298 -236 -352 -70 -38 -174 -62 -244
-55 -84 7 -198 63 -244 118 -90 110 -153 304 -168 514 -10 143 -40 277 -80
357 -19 37 -89 88 -121 88 -22 0 -66 -55 -90 -110 -11 -25 -32 -95 -48 -155
-29 -115 -64 -198 -96 -226 -28 -24 -111 -49 -162 -49 -82 0 -156 63 -191 160
-7 19 -17 125 -22 235 -8 175 -18 265 -35 327 -3 10 -34 31 -69 49 l-64 31
-80 -27 c-102 -35 -181 -31 -278 14 -125 59 -231 205 -249 341 -2 19 -12 71
-21 115 -12 60 -16 136 -17 305 0 262 17 403 84 674 55 226 117 548 130 681
18 173 25 836 10 951 -17 138 -105 414 -159 499 -29 46 -205 285 -290 395
-102 131 -166 233 -200 315 -18 44 -54 127 -81 185 -27 58 -63 140 -79 183
-50 126 -93 182 -162 211 -33 14 -39 13 -69 -2 -19 -9 -47 -34 -63 -54 -25
-31 -32 -53 -45 -147 -14 -92 -14 -123 -4 -194 12 -85 56 -240 92 -328 25 -59
43 -209 35 -279 -15 -124 -87 -218 -184 -239 -73 -16 -91 -14 -167 13 -73 27
-125 70 -155 128 -15 30 -19 58 -19 150 0 119 -1 110 97 468 46 168 32 463
-31 633 -12 34 -73 154 -134 267 -133 242 -141 272 -123 426 6 54 16 128 23
164 20 114 10 198 -26 222 -19 13 -66 9 -91 -8 -14 -9 -44 -56 -70 -111 -53
-112 -57 -153 -24 -290 39 -164 10 -260 -94 -309 -66 -30 -88 -30 -148 2 -91
50 -119 161 -76 305 36 121 38 135 38 211 0 69 -34 189 -83 298 -12 25 -29 65
-40 90 -11 27 -45 70 -82 105 -35 33 -70 74 -79 90 -21 42 -47 173 -47 240 0
140 55 320 121 395 17 19 56 67 87 105 67 83 68 84 157 129 132 67 382 137
559 156 59 6 291 15 515 21 223 5 444 13 491 18 131 15 296 13 395 -5 179 -31
261 -104 310 -274 7 -25 29 -90 49 -145 45 -130 108 -345 135 -465 41 -177
122 -474 176 -635 29 -88 58 -184 65 -213 21 -91 70 -194 226 -472 41 -73 71
-111 124 -160 83 -76 89 -80 117 -80 39 0 79 55 123 168 23 59 80 187 126 284
46 97 84 179 84 181 0 3 36 78 79 168 70 146 111 257 167 454 61 218 91 298
175 470 32 66 79 174 105 240 26 66 66 156 90 200 23 44 52 105 64 135 38 98
132 156 295 180 86 13 315 10 450 -5z"/>
</g>
</svg>
