<?xml version="1.0" standalone="no"?>
<!DOCTYPE svg PUBLIC "-//W3C//DTD SVG 20010904//EN"
 "http://www.w3.org/TR/2001/REC-SVG-20010904/DTD/svg10.dtd">
<svg version="1.0" xmlns="http://www.w3.org/2000/svg"
 width="1024.000000pt" height="1024.000000pt" viewBox="0 0 1024.000000 1024.000000"
 preserveAspectRatio="xMidYMid meet">
<metadata>
Created by potrace 1.16, written by Peter Selinger 2001-2019
</metadata>
<g transform="translate(0.000000,1024.000000) scale(0.100000,-0.100000)"
fill="#000000" stroke="none">
<path d="M0 5120 l0 -5120 5120 0 5120 0 0 5120 0 5120 -5120 0 -5120 0 0
-5120z m4986 3614 c90 -15 190 -46 369 -114 217 -82 480 -137 774 -160 436
-33 861 21 1246 160 282 101 367 114 515 78 67 -17 156 -64 206 -110 41 -38
59 -68 32 -52 -8 4 -10 3 -5 -2 5 -5 14 -9 20 -9 7 0 28 -31 47 -70 34 -67 35
-73 34 -180 0 -101 -3 -119 -38 -220 -55 -158 -59 -262 -17 -478 57 -291 42
-414 -73 -607 -62 -105 -90 -186 -106 -310 -20 -151 6 -294 89 -484 67 -154
85 -232 79 -348 -5 -111 -26 -166 -92 -236 -157 -167 -459 -143 -588 48 -47
71 -62 132 -55 234 5 83 15 114 115 341 51 116 66 182 60 264 -11 147 -110
241 -253 241 -105 0 -181 -45 -227 -135 -28 -53 -28 -162 1 -278 25 -105 26
-155 6 -225 -32 -108 -120 -182 -217 -182 -61 0 -105 18 -155 64 -46 41 -81
56 -131 56 -80 -1 -162 -80 -204 -197 -16 -47 -22 -95 -28 -253 -7 -172 -11
-203 -33 -262 -72 -197 -211 -337 -494 -497 -265 -150 -458 -343 -551 -551
-16 -36 -47 -124 -70 -196 -50 -157 -92 -221 -204 -310 -124 -100 -158 -148
-158 -226 0 -42 17 -79 50 -106 106 -87 582 -137 925 -97 153 18 346 64 468
111 49 19 94 31 100 27 5 -3 7 -2 4 4 -3 5 23 24 59 41 71 35 79 37 68 20 -4
-7 -3 -8 5 -4 6 4 9 11 6 15 -7 12 215 144 310 185 199 86 530 140 713 117
191 -24 263 -113 263 -321 0 -80 -7 -124 -45 -274 -62 -241 -62 -302 1 -516
17 -58 27 -120 30 -195 5 -95 2 -119 -17 -175 -62 -186 -190 -324 -361 -389
-216 -82 -299 -200 -299 -420 0 -56 8 -131 19 -181 36 -161 43 -233 31 -301
-14 -74 -38 -126 -85 -177 -104 -116 -309 -123 -434 -16 -63 55 -93 122 -99
221 l-4 82 53 103 c48 93 53 110 53 168 1 78 -27 143 -101 234 -85 105 -330
256 -473 292 -145 36 -311 -9 -418 -115 -81 -80 -105 -134 -110 -247 -4 -90
-3 -93 44 -210 44 -109 48 -126 49 -204 0 -75 -4 -92 -30 -144 -51 -101 -139
-156 -250 -156 -117 0 -213 57 -270 161 -25 46 -30 68 -33 144 -3 77 1 108 28
215 40 155 40 261 -2 350 -92 199 -351 250 -451 88 -24 -39 -31 -65 -42 -165
-7 -65 -18 -131 -25 -148 -14 -37 -55 -82 -95 -103 -43 -22 -139 -20 -195 5
-70 31 -104 66 -185 189 -41 62 -89 128 -107 145 -55 52 -140 89 -231 100 -45
6 -134 17 -198 26 -149 20 -299 14 -388 -16 -82 -28 -134 -64 -235 -163 -151
-149 -221 -182 -381 -176 -91 3 -107 7 -176 41 -159 77 -259 243 -259 432 0
29 13 99 30 156 33 115 39 209 16 263 -7 18 -35 62 -61 97 -122 164 -134 289
-43 478 32 68 57 101 129 174 53 54 94 87 102 84 8 -3 20 -1 28 5 11 8 10 9
-4 4 -36 -12 -5 14 77 63 84 51 102 59 91 42 -3 -5 -1 -12 4 -16 6 -3 8 3 6
14 -3 15 9 27 53 52 173 97 280 188 361 308 55 81 88 155 141 316 60 182 92
256 145 335 65 98 137 159 262 223 145 75 198 132 241 262 11 33 23 103 27
155 9 134 24 226 46 276 23 51 80 127 122 163 51 44 166 109 241 137 86 32
208 96 248 130 17 13 35 21 40 18 6 -4 8 -3 5 3 -4 5 7 23 24 39 71 67 105
145 154 349 29 125 81 224 142 274 41 34 63 41 42 14 -13 -16 -12 -17 3 -5 10
8 16 19 15 24 -3 14 63 50 80 44 9 -4 11 -2 7 6 -5 8 -2 9 10 5 9 -4 15 -3 12
1 -3 5 29 24 71 43 101 45 97 43 88 29 -5 -9 -4 -11 4 -6 6 4 9 11 6 16 -3 4
11 17 31 29 44 26 56 27 25 1 -13 -11 -19 -20 -14 -20 12 0 49 40 45 48 -2 4
2 8 9 11 8 2 9 -1 4 -10 -5 -8 -6 -12 -2 -9 3 3 5 9 5 13 0 5 25 34 55 66 66
69 97 127 97 180 0 58 -18 88 -65 111 -53 26 -76 25 -194 -5 -259 -65 -391
-55 -761 61 -112 34 -265 43 -364 20 -84 -20 -193 -77 -225 -118 -38 -48 -40
-121 -6 -186 35 -68 32 -133 -10 -188 -38 -50 -84 -67 -166 -62 -118 6 -178
72 -194 213 -11 98 -23 130 -66 179 -131 149 -374 150 -527 3 -92 -89 -110
-164 -87 -370 22 -203 4 -281 -85 -361 -63 -57 -101 -70 -205 -70 -79 0 -96 3
-145 28 -64 33 -111 81 -147 151 -21 39 -27 68 -31 136 -6 116 7 167 88 350
97 222 111 272 112 399 1 131 -23 239 -82 375 -149 345 -137 668 33 862 95
108 296 173 487 159 47 -3 227 -25 400 -48 254 -33 347 -41 480 -42 156 -1
169 1 243 27 43 15 123 48 178 73 54 25 107 43 117 40 9 -3 24 -1 32 5 12 8
10 9 -7 4 -13 -3 -23 -4 -23 -1 0 8 179 63 250 76 166 32 411 33 576 4z"/>
<path d="M4563 8733 c15 -2 39 -2 55 0 15 2 2 4 -28 4 -30 0 -43 -2 -27 -4z"/>
<path d="M4801 8736 c2 -3 31 -7 64 -11 87 -8 99 -11 215 -40 130 -32 156 -38
149 -30 -11 11 -175 54 -263 70 -83 14 -175 20 -165 11z"/>
<path d="M4464 8722 c5 -8 66 -4 66 4 0 2 -16 4 -36 4 -19 0 -33 -4 -30 -8z"/>
<path d="M4330 8700 c-20 -6 -21 -8 -5 -8 11 0 29 3 40 8 25 11 -1 11 -35 0z"/>
<path d="M7605 8684 c-25 -8 -29 -11 -10 -8 17 4 56 8 88 9 32 2 61 6 64 9 11
11 -103 3 -142 -10z"/>
<path d="M7800 8691 c14 -8 61 -18 130 -27 20 -2 19 0 -9 12 -18 8 -40 13 -47
10 -7 -3 -16 -1 -19 4 -4 6 -21 10 -38 10 -23 -1 -28 -3 -17 -9z"/>
<path d="M4240 8674 l-35 -14 35 6 c40 7 76 24 50 23 -8 0 -31 -7 -50 -15z"/>
<path d="M7987 8636 c15 -13 30 -23 32 -20 5 4 -41 43 -52 44 -4 0 5 -11 20
-24z"/>
<path d="M5240 8640 c0 -6 20 -15 45 -22 27 -7 40 -15 32 -20 -7 -4 -5 -7 8
-6 11 0 29 -3 40 -7 18 -7 18 -6 5 7 -20 20 -130 61 -130 48z"/>
<path d="M7455 8630 c-3 -5 -1 -10 4 -10 6 0 11 5 11 10 0 6 -2 10 -4 10 -3 0
-8 -4 -11 -10z"/>
<path d="M8030 8616 c0 -2 7 -9 15 -16 9 -7 15 -8 15 -2 0 5 -7 12 -15 16 -8
3 -15 4 -15 2z"/>
<path d="M7380 8600 c0 -5 5 -10 11 -10 5 0 7 5 4 10 -3 6 -8 10 -11 10 -2 0
-4 -4 -4 -10z"/>
<path d="M5395 8580 c-3 -4 6 -10 20 -12 14 -3 25 -2 25 2 0 11 -39 20 -45 10z"/>
<path d="M7300 8580 c-18 -12 -2 -12 25 0 13 6 15 9 5 9 -8 0 -22 -4 -30 -9z"/>
<path d="M2595 8571 c17 -4 68 -8 115 -10 47 -1 122 -6 168 -10 88 -7 133 2
60 13 -64 9 -378 17 -343 7z"/>
<path d="M3990 8570 c-8 -5 -10 -10 -5 -10 6 0 17 5 25 10 8 5 11 10 5 10 -5
0 -17 -5 -25 -10z"/>
<path d="M7258 8563 c7 -3 16 -2 19 1 4 3 -2 6 -13 5 -11 0 -14 -3 -6 -6z"/>
<path d="M3945 8550 c-3 -6 1 -7 9 -4 18 7 21 14 7 14 -6 0 -13 -4 -16 -10z"/>
<path d="M7220 8550 c-9 -6 -10 -10 -3 -10 6 0 15 5 18 10 8 12 4 12 -15 0z"/>
<path d="M2423 8535 c-18 -8 -33 -16 -33 -19 0 -5 71 22 79 30 9 8 -15 3 -46
-11z"/>
<path d="M3008 8539 c12 -4 32 -5 45 0 17 7 13 9 -23 9 -36 0 -40 -2 -22 -9z"/>
<path d="M5553 8531 c21 -11 45 -17 54 -14 10 4 14 2 10 -4 -4 -6 4 -8 21 -5
24 5 21 7 -23 17 -27 7 -61 15 -75 19 -15 4 -9 -2 13 -13z"/>
<path d="M3140 8529 c28 -12 59 -16 175 -23 l80 -5 -90 14 c-153 23 -194 26
-165 14z"/>
<path d="M7070 8514 l-45 -13 45 4 c25 2 51 4 58 4 6 1 12 6 12 11 0 13 -14
12 -70 -6z"/>
<path d="M3800 8504 l-55 -13 49 5 c27 3 58 9 70 14 31 13 -1 10 -64 -6z"/>
<path d="M5696 8500 c12 -5 43 -11 70 -14 48 -5 47 -5 -11 9 -67 16 -91 18
-59 5z"/>
<path d="M3453 8493 c9 -2 23 -2 30 0 6 3 -1 5 -18 5 -16 0 -22 -2 -12 -5z"/>
<path d="M6988 8493 c7 -3 16 -2 19 1 4 3 -2 6 -13 5 -11 0 -14 -3 -6 -6z"/>
<path d="M3573 8483 c31 -2 83 -2 115 0 31 2 5 3 -58 3 -63 0 -89 -1 -57 -3z"/>
<path d="M5824 8471 c3 -5 15 -7 26 -4 28 7 25 13 -6 13 -14 0 -23 -4 -20 -9z"/>
<path d="M6820 8470 l-45 -7 40 -1 c22 0 49 3 60 8 23 10 9 10 -55 0z"/>
<path d="M5895 8462 c11 -5 26 -7 33 -4 7 2 19 -1 27 -8 8 -7 24 -10 35 -7 11
3 23 1 26 -4 6 -10 104 -10 149 0 21 5 -2 9 -75 14 -58 4 -130 10 -160 12 -36
4 -48 2 -35 -3z"/>
<path d="M6733 8453 c9 -2 23 -2 30 0 6 3 -1 5 -18 5 -16 0 -22 -2 -12 -5z"/>
<path d="M6635 8440 c45 -11 77 -11 70 0 -3 6 -27 9 -53 9 -42 -1 -44 -2 -17
-9z"/>
<path d="M6242 8434 c8 -7 348 -7 356 0 3 3 -77 6 -178 6 -101 0 -181 -2 -178
-6z"/>
<path d="M5070 6570 c-8 -5 -10 -10 -5 -10 6 0 17 5 25 10 8 5 11 10 5 10 -5
0 -17 -5 -25 -10z"/>
<path d="M4865 6470 c-3 -6 1 -7 9 -4 18 7 21 14 7 14 -6 0 -13 -4 -16 -10z"/>
<path d="M4789 6413 c-13 -16 -12 -17 4 -4 9 7 17 15 17 17 0 8 -8 3 -21 -13z"/>
<path d="M3965 5490 c-3 -6 1 -7 9 -4 18 7 21 14 7 14 -6 0 -13 -4 -16 -10z"/>
<path d="M3460 4579 c0 -5 5 -7 10 -4 6 3 10 8 10 11 0 2 -4 4 -10 4 -5 0 -10
-5 -10 -11z"/>
<path d="M7400 3830 c-84 -6 -83 -6 50 -10 74 -2 144 -2 154 -1 10 1 28 -5 40
-12 27 -18 65 -27 71 -18 2 4 -1 8 -8 8 -21 1 -42 8 -48 16 -3 5 -26 10 -50
12 -24 3 -62 6 -84 8 -22 2 -78 1 -125 -3z"/>
<path d="M7241 3815 c3 -2 27 -7 55 -9 33 -4 43 -2 29 4 -21 9 -92 14 -84 5z"/>
<path d="M7125 3790 c-29 -7 -29 -8 10 -9 22 0 47 4 55 9 12 8 10 9 -10 9 -14
-1 -38 -5 -55 -9z"/>
<path d="M6980 3752 c-30 -10 -50 -20 -45 -23 6 -3 37 5 70 17 71 27 54 30
-25 6z"/>
<path d="M7780 3731 c0 -6 4 -13 10 -16 6 -3 7 1 4 9 -7 18 -14 21 -14 7z"/>
<path d="M6890 3720 c-8 -5 -10 -10 -5 -10 6 0 17 5 25 10 8 5 11 10 5 10 -5
0 -17 -5 -25 -10z"/>
<path d="M6480 3490 c-8 -5 -10 -10 -5 -10 6 0 17 5 25 10 8 5 11 10 5 10 -5
0 -17 -5 -25 -10z"/>
<path d="M6340 3430 c-9 -6 -10 -10 -3 -10 6 0 15 5 18 10 8 12 4 12 -15 0z"/>
<path d="M4905 3411 c23 -28 105 -67 161 -77 22 -3 44 -11 51 -16 6 -5 29 -7
50 -3 29 4 33 3 18 -4 -16 -8 -13 -10 20 -9 22 0 63 -2 90 -5 28 -2 39 -3 25
0 -14 2 -35 9 -47 15 -12 6 -31 8 -42 5 -12 -3 -21 -1 -21 4 0 5 -13 9 -28 9
-64 0 -216 49 -272 87 l-25 17 20 -23z"/>
<path d="M6261 3401 c-7 -5 -9 -11 -5 -14 5 -3 15 1 22 9 14 16 5 18 -17 5z"/>
<path d="M6028 3342 c-49 -9 -88 -19 -88 -24 0 -8 47 -2 94 13 16 5 42 9 57 9
16 0 29 5 29 10 0 6 -1 9 -2 9 -2 -1 -42 -8 -90 -17z"/>
<path d="M5898 3313 c7 -3 16 -2 19 1 4 3 -2 6 -13 5 -11 0 -14 -3 -6 -6z"/>
<path d="M5370 3300 c8 -5 26 -10 39 -10 32 0 24 6 -19 14 -25 4 -31 3 -20 -4z"/>
<path d="M5813 3303 c15 -2 37 -2 50 0 12 2 0 4 -28 4 -27 0 -38 -2 -22 -4z"/>
<path d="M5459 3289 c23 -9 277 -7 286 3 3 3 -65 6 -152 6 -107 0 -150 -3
-134 -9z"/>
</g>
</svg>
