<?xml version="1.0" standalone="no"?>
<!DOCTYPE svg PUBLIC "-//W3C//DTD SVG 20010904//EN"
 "http://www.w3.org/TR/2001/REC-SVG-20010904/DTD/svg10.dtd">
<svg version="1.0" xmlns="http://www.w3.org/2000/svg"
 width="1024.000000pt" height="1024.000000pt" viewBox="0 0 1024.000000 1024.000000"
 preserveAspectRatio="xMidYMid meet">
<metadata>
Created by potrace 1.16, written by Peter Selinger 2001-2019
</metadata>
<g transform="translate(0.000000,1024.000000) scale(0.100000,-0.100000)"
fill="#000000" stroke="none">
<path d="M0 5120 l0 -5120 5120 0 5120 0 0 5120 0 5120 -5120 0 -5120 0 0
-5120z m6476 4276 c73 -6 204 -36 330 -77 339 -110 566 -116 884 -24 25 7 74
18 110 25 36 6 85 16 110 22 69 15 305 11 384 -7 178 -42 307 -123 411 -261
16 -21 32 -41 35 -44 16 -15 90 -227 104 -300 47 -251 47 -679 0 -985 -20
-133 -74 -263 -124 -302 -59 -45 -180 -37 -239 17 -18 17 -29 30 -24 30 4 0 1
6 -8 13 -8 7 -24 37 -34 67 -11 30 -23 59 -27 65 -4 5 -8 15 -8 21 0 7 -5 25
-11 41 -6 15 -10 28 -8 28 1 0 -13 27 -31 60 -48 89 -86 114 -151 101 -74 -15
-135 -129 -160 -301 -23 -157 -8 -416 31 -540 60 -190 70 -245 67 -352 -3
-101 -6 -112 -39 -178 -40 -76 -71 -115 -93 -115 -8 0 -15 -5 -15 -10 0 -6 -3
-9 -7 -9 -21 3 -44 -2 -39 -9 2 -4 -27 -7 -64 -6 -66 0 -145 24 -162 49 -4 5
-8 6 -8 1 0 -11 -27 17 -57 60 -48 68 -63 131 -63 265 0 113 -2 129 -21 153
-30 38 -74 35 -110 -6 -16 -17 -32 -41 -35 -52 -4 -12 -21 -43 -39 -71 -17
-27 -38 -64 -45 -82 -8 -17 -18 -29 -22 -27 -4 3 -8 1 -8 -5 0 -9 -74 -92
-185 -206 -132 -137 -178 -249 -191 -465 -5 -98 -18 -193 -38 -275 -13 -58
-51 -147 -83 -200 -47 -77 -94 -123 -168 -166 l-60 -34 -190 -1 c-198 -1 -205
-1 -245 -24 -25 -13 -69 -63 -60 -67 3 -1 -2 -8 -12 -15 -13 -11 -69 -147 -67
-163 1 -3 -2 -36 -6 -73 -4 -37 -8 -221 -10 -407 -3 -311 -5 -346 -24 -405
-11 -36 -32 -84 -47 -107 -26 -39 -85 -79 -130 -86 -10 -1 -24 -6 -30 -9 -31
-20 -186 38 -202 75 -2 4 -9 13 -16 20 -6 6 -29 42 -49 79 -60 108 -121 148
-193 128 -48 -14 -94 -58 -145 -140 -18 -30 -37 -57 -41 -58 -5 -2 -6 -8 -2
-13 3 -5 1 -9 -4 -9 -4 0 -14 -16 -22 -35 -8 -19 -17 -35 -22 -35 -4 0 -8 -5
-8 -11 0 -6 -13 -29 -29 -52 -31 -46 -69 -117 -69 -131 0 -5 -4 -12 -9 -15
-11 -8 -38 -50 -75 -120 -17 -31 -39 -67 -50 -80 -10 -13 -18 -29 -18 -36 0
-7 -7 -18 -15 -25 -9 -7 -13 -20 -10 -29 3 -8 3 -12 -1 -8 -7 6 -50 -63 -132
-213 -20 -35 -57 -100 -84 -143 -26 -43 -48 -82 -48 -87 0 -5 -4 -10 -8 -12
-7 -3 -125 -196 -128 -208 0 -3 -6 -18 -12 -33 -39 -94 -16 -202 58 -278 93
-96 205 -129 429 -130 91 0 170 11 239 33 19 5 44 11 55 13 12 1 43 9 69 18
26 9 60 19 75 22 326 61 469 62 723 5 196 -45 289 -62 365 -66 39 -3 111 -9
162 -14 51 -6 130 -10 176 -10 80 0 417 26 447 35 8 2 35 7 60 10 25 3 72 12
105 20 33 8 86 19 119 25 32 7 83 20 112 30 30 11 54 17 54 15 0 -5 183 60
210 75 12 6 31 13 42 15 12 3 24 9 27 14 3 5 21 11 39 14 18 3 38 10 45 15 7
5 48 19 91 32 102 29 266 32 336 5 64 -24 112 -48 133 -64 9 -8 17 -11 17 -8
0 4 27 -21 60 -54 66 -66 118 -163 165 -304 15 -44 38 -102 53 -130 30 -57 99
-128 114 -118 6 3 8 2 5 -4 -6 -9 92 -63 114 -63 22 0 97 -41 127 -68 17 -16
33 -27 36 -25 8 9 75 -115 85 -157 21 -93 3 -213 -40 -268 -18 -23 -109 -87
-109 -76 0 2 -8 0 -18 -5 -32 -17 -72 -22 -212 -27 -236 -8 -253 -10 -321 -40
-35 -16 -65 -32 -67 -36 -2 -4 -9 -8 -16 -8 -6 0 -32 -19 -58 -42 -26 -24 -55
-50 -65 -59 -10 -8 -38 -37 -63 -65 -76 -83 -218 -193 -232 -179 -3 3 -18 -1
-33 -9 -31 -16 -232 -19 -241 -4 -3 4 -12 8 -20 8 -8 0 -49 16 -92 35 -42 20
-92 43 -110 50 -84 38 -211 7 -364 -88 -41 -26 -79 -47 -84 -47 -5 0 -22 -7
-39 -16 -16 -9 -41 -18 -55 -20 -14 -2 -47 -9 -74 -15 -114 -27 -319 3 -461
67 -22 10 -46 17 -54 15 -7 -1 -10 2 -6 8 3 6 1 11 -6 11 -7 0 -28 12 -48 27
-20 16 -40 28 -44 28 -5 0 -15 9 -23 19 -8 11 -14 17 -14 13 0 -3 -11 4 -23
16 -34 31 -85 70 -115 86 -15 8 -32 20 -40 27 -7 8 -20 14 -28 14 -8 0 -14 4
-14 9 0 8 -91 47 -99 42 -2 -2 -7 2 -10 7 -8 14 -81 23 -181 24 -101 1 -151
-3 -146 -11 2 -3 -8 -6 -23 -7 -29 -1 -47 -8 -223 -91 -231 -107 -385 -136
-733 -137 -234 -1 -384 6 -468 23 -41 8 -193 37 -288 55 -8 1 -47 13 -87 25
-41 12 -76 20 -79 18 -2 -3 -31 5 -63 18 -32 13 -61 21 -64 18 -3 -3 -11 -1
-18 5 -13 10 -108 41 -170 55 -7 1 -17 5 -23 9 -5 3 -26 9 -45 13 -19 4 -40
11 -45 16 -6 4 -20 8 -30 8 -11 -1 -45 6 -75 15 -173 48 -473 63 -655 32 -49
-8 -110 -18 -135 -21 -25 -4 -63 -11 -85 -17 -91 -23 -164 -38 -230 -48 -38
-5 -144 -22 -235 -36 -184 -28 -417 -38 -545 -23 -91 11 -244 46 -262 61 -7 6
-13 7 -13 4 0 -4 -7 0 -16 8 -8 9 -20 14 -25 11 -5 -4 -9 -2 -9 4 0 6 -14 18
-31 27 -30 15 -47 30 -95 87 -29 33 -55 114 -56 174 -1 59 27 171 49 195 9 10
13 18 8 18 -4 0 19 26 51 58 60 58 205 149 256 159 16 3 28 10 28 15 0 5 4 6
10 3 5 -3 16 -3 22 2 7 4 18 8 23 9 6 1 40 16 77 34 68 33 129 88 150 137 7
15 15 30 18 33 9 9 60 89 60 95 0 3 5 11 10 18 36 42 210 361 210 384 0 5 9
28 20 51 11 22 20 46 20 52 0 6 18 73 40 148 52 180 63 216 70 222 3 3 22 39
42 80 20 41 45 84 55 95 11 11 17 27 15 34 -3 8 0 11 7 7 6 -4 11 -3 11 3 0 5
6 16 13 23 6 7 25 31 41 53 17 22 48 57 69 78 22 20 37 37 33 37 -6 0 36 39
98 91 15 13 45 39 65 57 20 18 54 47 76 64 49 38 136 138 151 174 6 14 15 29
21 32 5 4 29 41 53 82 66 115 158 222 240 280 19 13 41 30 48 37 8 7 80 46
160 85 151 74 232 121 286 167 50 43 96 91 96 100 0 5 6 16 13 23 45 47 81
142 133 358 38 162 104 349 129 370 8 7 15 21 15 30 0 10 3 20 8 22 4 2 30 34
57 71 43 58 74 92 175 187 8 9 34 27 55 40 22 13 42 26 45 29 3 4 17 13 32 21
14 8 59 35 100 59 40 24 124 73 186 109 61 36 112 69 112 74 0 5 4 7 9 4 5 -4
11 -3 13 2 1 4 30 28 63 54 104 79 246 230 295 311 13 23 27 44 31 47 3 3 20
30 36 60 16 30 39 71 51 90 12 19 37 64 54 100 18 36 36 67 41 68 4 2 7 12 7
22 0 10 3 20 8 22 4 2 16 21 27 43 11 22 22 42 25 45 8 7 80 130 80 137 0 7
104 154 127 178 35 37 62 82 55 89 -4 4 -2 6 3 4 15 -5 155 142 155 164 0 6 2
9 5 6 5 -5 146 135 233 232 47 50 75 117 80 186 3 46 0 64 -12 77 -9 8 -16 19
-16 23 0 10 -53 54 -67 54 -6 0 -13 4 -15 10 -4 14 -147 31 -237 29 -40 -1
-110 -8 -155 -15 -44 -8 -99 -16 -121 -19 -22 -4 -56 -10 -76 -16 -20 -5 -49
-11 -65 -13 -16 -2 -54 -9 -84 -15 -51 -11 -258 -15 -325 -7 -16 2 -77 13
-135 25 -58 11 -132 25 -165 31 -33 7 -98 10 -146 8 -79 -3 -90 -6 -138 -38
-38 -26 -59 -49 -78 -89 l-26 -53 14 -107 c7 -58 13 -129 12 -157 -2 -102 -46
-180 -123 -219 -19 -10 -37 -21 -40 -25 -20 -31 -311 -39 -340 -10 -3 3 -23
14 -45 25 -22 11 -44 26 -48 33 -5 7 -12 10 -18 7 -5 -4 -9 1 -9 9 0 8 -8 20
-17 25 -10 6 -14 11 -9 11 5 0 1 9 -9 21 -22 23 -26 129 -11 281 5 47 5 94 1
105 -5 10 -9 21 -9 26 -3 22 -61 78 -102 97 -62 31 -116 40 -166 28 -43 -9
-92 -41 -81 -52 3 -3 1 -6 -5 -6 -13 0 -55 -57 -57 -79 -1 -9 -8 -29 -15 -46
-15 -33 -21 -367 -8 -440 15 -86 21 -110 30 -121 5 -7 8 -16 7 -20 -1 -5 0
-11 1 -14 16 -40 23 -258 10 -322 -35 -178 -146 -262 -310 -233 -18 3 -42 11
-54 17 -11 6 -21 10 -21 8 0 -4 -10 4 -65 50 -50 42 -100 190 -100 293 0 56
19 163 50 291 40 158 50 222 51 331 2 169 -17 254 -72 317 -42 47 -74 58 -169
54 -91 -4 -118 -8 -183 -31 -23 -8 -50 -15 -59 -15 -10 0 -18 -3 -18 -7 0 -5
-14 -9 -30 -10 -34 -2 -125 -50 -180 -93 -34 -27 -132 -143 -127 -151 1 -2 1
-3 -1 -2 -5 2 -82 -81 -82 -88 0 -8 -97 -51 -125 -56 -31 -6 -97 16 -127 42
-72 62 -115 208 -127 434 -8 137 -5 490 4 559 4 24 8 63 11 88 9 101 69 284
105 322 11 12 17 22 14 22 -17 0 80 96 133 133 148 101 374 128 607 71 77 -19
308 -96 315 -105 11 -14 190 -59 280 -69 90 -11 144 -8 300 15 48 7 258 73
295 93 17 9 33 15 36 14 4 -1 40 9 80 23 201 65 398 77 624 39 55 -10 129 -23
215 -39 94 -17 211 -32 310 -40 36 -3 84 -8 107 -11 23 -3 154 -5 290 -5 268
0 469 17 595 51 40 11 82 22 94 23 11 2 25 7 31 10 5 3 20 8 34 11 13 2 56 15
94 27 105 34 124 37 260 48 96 7 149 6 281 -3z"/>
</g>
</svg>
